<svg id="Iceland" xmlns="http://www.w3.org/2000/svg" viewBox="0 0 578.47 113.51"><title>ICETRUST_banner</title><path d="M349.81,252.5h0l-4.79,3,.7,1.65-1.08,1.44-.92.33-.47.78,1.24.63-.44.75,2.17.6,1.82-.91,1.21,2.09-3,5.94,1.1-.87-.62,1.56,5.15-1.58.34.37-.61,1.82,1.19,1-.85.4-2.2,4,2.8-4.06,1.13.7-.6-.86,2.65,1.45,1.29-.29.09,1.12.51.08,0,.83.34.51.49-.74,1.36.89-.26,2.1-.42.54-.14,1.06-1.53.21,1.08.49-.19.64-2.56,1.18,3.23-.86.32.1.95,1.06-5,1.55,4.37,0-.21,1-1.1.36v.19l.79-.15.22.3-.36.37.66.36,1.08-1.77,0,1.86.13.21-.19.9-.86.46.22.7-2.19.38-.25-.63-2.24-1.66.39.74-2.56.51v.19l3.57.58,2.12,2-3.79-.16,3,2-.67.58-1.11-.4-.32.28,1.37.95-1.88-.09-.35.4.66,1.1-3,1.05-1.54-2.12-.48-.2,0,.52.27.55.6.23.14.9,1.09.78-.08.55-1.41-.48-.89.32.88,1.14-1.89.52,1,1.08L352.1,298l-2,4.9-2.21.68,1.9-.84-1.56-.34-.07.52-1.94,2.17.15-.66-.63.83.23.35.38-.18.16.68-1.23.47-1.08-.93-.4.3h-.41l-.08.33-.51.16.22-.82-.55.08-.4-1,.18,1-.57-.36v-.3l-.36-.32-.34,0,.17,1.2-.44.41-.44-.1-.37.16.68.21-2.5.92-.08-.22-1.27,1.1,1.07-.17-3.51,1.5.53.08-1.87,1.69-.37,0,.12.35-.88.6,0-.31-1,1.15.44-.21-2,2.37.36-.64-1.69,1.36-1.71.12.36.33-.37.16-.11,1-.74-1.39-.33-.11-.08,1.5-.31-1.56v1.69l-.37.18,0-2-.53.21-.06.34.37.93-1.33.33-.55-.34-.29.27h-.11l0-.41L317.92,319l.12-.81-.35.56-.18-.12,0,.45-1.32,1-.83.91-.45.81-.4.21-.09-.15-.4-.08,0,.19-.37.07.15.51.94-.15-3.57,3.29-.37-.53,1.16-1-2-.33-.14.4.63,1.6.88.08-9.47,1.06.1-.13-.73-.34-.22.31-6.28-2.59.21-.24-.26-.11-.31.19-1-.18,0,.12,1.07.22-3.13-.35-.15-.14.07.35-3-1.68.62,0-.51-.16.06-.48-.4.37-.4-.37.38.14-1.14-1.35.5,1-1.24-1.84.7-1,1.82.77-1.39-1.32.26-1.32-1.66,3.12-2.09-1.46,1.18.33.57-.17-.08-.19h-.23l.18-.32-1.08.15.51-1.14-.22-.72-.62,1.22-.86.14.14.5-3.94-3.66,1.55-.33-1.63-.28-1.09,1,1,.83-1.1-.19-.46.86-3.4.47-.76-.69-6,.1-.87.6-.26-.17.15-.17-2.93,1-.46-.52.34-2.82.57-.07-.08-.28h-.73l0-2.94.16-.17.14,0,1.41,2-.15.3,2,.14.24-.7,1.15-.49.36.27,2.36-1.28.27.17-.81-.69.57-.3.48.13.33-.31h-.23l.2-.16-1.36-.87.46-.17,2,.7.23-.17-.42-.17.28-.33,0-.2.59,0,.49-.47-.59.23.51-.75-1.08,0-.21-.64-.63.23-.41-.1,1.88-2.71,1.05-.09-.36-.2,1-.49,1.07.31.44-.26-.34-.24.37-.28-2-.13-3.44,2.49-1.46-.4,1.47-1.49.23.13.88-.46-1.62.11-.29-.5.12-1.06.33-.15.55-1.45,1.77-.73-.42-.33,1.81-1.4,0,.49,1,.42-.63-.69.44-.33h-1.12l1.87-.68-1.46-.07-.63.37.49-.81-2.15,2.18.08.36-1.73.9-.17-.23.1-.81-.18,0-.59,2.34-.8.28-.57-1-.36.34.28-1.51-.28-.19.15-.5-.78.48-.53-.59.23-.83-1-1.31.82.59.27-.22h-.22l.43-.68-.15-.37-.75.39-.19-.2,1.11-1.71-1.25-.3.15-.36-.22,0,.35-1-.34.48-.16-.3-.21.3-.9.06-.27.31.19.33-1.19.06.36-.45-1.38-.28.74.62L256,292.75l-.63.53L254,293l.28-.14-.7.31-.67,1.5-2.4.14-1.66-4,.24.22,1.66-1,2.59.67.32-.39.41,0,1.06-.84.86.17-.14-.54.58.16-.05.27.14.19.27-.29.09.78.21-.26.17.14.29-1.9.71-.44.86.15-.51.68.07.32-.25.71.5.65.2-1.24.25-.16.1-.45.65-.46.49.63,1.72-1.05-.94,0,1.53-1.07.38.17-.62.83.65-.15,1.2,1.36-.53-.83.66-.54,0-.32,4.35.53.88-.39.93.39.21-.19,1.49-.05.27-.51-.45-.26,1.17-2.85-.47-.69-.61.43,0,.23-2.05,1.63L264.75,284l.73-.4h-.63l6-5.42.52.36-.15-.57,2.72-1.17-3,.33.44-.71-.59-1-.6.18-.09.53-.61-1.25-1.11,2.49-1.78-1.49.31-.57,2.13-1,.5-1.24-1.2,1.35-1.37.39.66-.77-1,.51-.41-.21-.55,1-.21,0-.63-3.16-.45,2.53-.43-.78-.11.73-.21.25-.15-.13-.11-2.43-.58-.1-.28.27.44,3.07-.67-.18-.06-.58-.58,0-.08-.28-.37,0,1-1.27-.66-.69-.58,1.35-.43-1.17-.25,1.35-.47.32-1.07,0-.37-.94-.52.86.15.86-1,.78-1.22-.71-.23.12.1.16-2.6.73-.62,1.22-2.44.49-.43-.3.06-.39-.28-.49.28.07.12-.36-6-1.07,1.7-1.73.18-1.19,1.09-.3,3.49,2.55,1.26-.1-3-2.93,3,1.06L248,268.1l.59-.4,5.15,3.08,0,1.74.89-.72.21.28,1-.06-.21-.57,1.31-.52H255.4l-1.07-1.11,3.31-.68-.29-.21.66-.7-5.72.24-1.47-2.77.31-1,6.7,2-6.52-5,.62-1,3.58,1.21.48,1-3.06-3.42,2.83.55-1.48-1.09h-.36l-.17-.61,1.14-1,3.09,1.1.93,2.15.7-.94.64,1.88-.84,1.9,1.37-2.18.32,1.11.55-.56-1,2.14.82-.53.48-1,0,2.44.6-3.82.73.14.92,1.41-.49,4.38,1.23-3.75.87.88.08.93.21-.6-.5,2.39,1.19-2-1.3-3.09.5-1.26.33-.09.24-.42-1.06.52-4.83-2.94-.44-1.17,2.08-.75,1.87.42.43.63.15,0,.15-.16-.22-.56,2-.71-2.1-.12,1-.84-.32-.22-.36.3-1.9.33,1.1-2-2.38,1.4.34-1.31-1.45,1.72-2.51-1.06-.18-.27.67-.32.85.08.24-.81-1.16-1.11.32-.27,1,.64-.19-.53,1.38.12.14.27.25,0-.94-1.07,2.6,1.14.72-.24.3-.75.4-.17,1.56,1.07-.43-1,2.08,2.4.11.76.66.38-.31.41.09,1.31,1,0,.4-.6,0,.58,1.18-.15.59.88-.74.72.55-.17,2,.93.44,2.9.54-.13L274.2,262l.55-.68-.24-.91.8-.34.53.69,0,1.29,1.11-.19,1,1-3,.79.2.37,2.2-.49-.61.82,1.45,0-.29,1.37.38,1-2,1.88,1.54.62-1.38,1.28-1.71-.64-.51-1.18-1.06-.16,2.31,3.3,1-.09.66.57-.86,1.54,1.72-1.05.14,1.7-1.78,2.31,1.85-.81,2.27,8,0-7.51,1.88,2.94-.32-6,2.66-2.68,0-.24.66.36-.14,3.44.29-.1.05-1.12.28,1.45,1.3.91.28-1.23-.4-.5-.63-.24,1.31-.49.17,1.73.76-3.22.46-.23-.28-.69.31-.74-.65-2.91.21-.59-1.18-6,2.5-1.2.56.11.48-.17,2.32,5.91,1.41.63,2,3.74.12-.66,1,.38-.15.49.44-.5-.95-5.6,1-1.15-.37-1.1.92-1,2.18.23v-.44l.35-.2-.06.35.76.56-.34-.91.42-1.74,1.48-.39-.08.87.5-1.3,1,.22-.29,1.37.88-.85.78.56-.14,1.62.68-.38.79,1.58-.2,1.81,2.1.77.94,1.92.18,0,1.88,5.86-.38-3.43.23-.43-.24-2.64-.56-.77-.23.3-1.47-6.54,1.26-.41,3,.74.36.9.55,0,3,5.33-.33-1.61.88-.37-1.21-.08,1.26-.13.73.91,2.93-6.82.66.24,1.45,2.45,2.42-.7-.65.37.32.48.59-.87,1.07,1.3-.92-1.86,1.85-.85-1.24.88,2,.48-.42-1.61.53-1.22-1-6.71.23.53.76-.86.17.52.4-.32.27,0,.32.76.83-.91.34.37.72-.85,1.27-.08,1.38,1.13-.39,1.89,1.07,0,0,.55,1.53.72-.82,2.68.58.39.32.73,3.2,2.2.52-2.74,1.51-.36,3.29-3.18,3.41.14Zm-36.66-4.84.35.42-.25.4-.18-.31,0-.44Zm-24,78.66.1.36-.29.64-.08-.09-.17-.94.47-.13,0,0Zm20.27-63.55v.3l-.14.09-.28-.3-.19-.89.06-.1Z" transform="translate(-92.1 -231.89)"/><path d="M92.1,322V255.3h11.7V322Z" transform="translate(-92.1 -231.89)"/><path d="M115.1,288.7c0-20.6,15.3-34.5,35-34.5,13.4,0,21.8,6.9,26.7,14.9l-9.9,5.2a19.72,19.72,0,0,0-16.8-9.7c-13.2,0-23,10-23,24.1,0,13.9,9.8,24.1,23,24.1a19.93,19.93,0,0,0,16.8-9.7l10,5c-5.1,8-13.4,15.1-26.8,15.1C130.4,323.2,115.1,309.2,115.1,288.7Z" transform="translate(-92.1 -231.89)"/><path d="M186.2,322V255.3h45.7v10.3h-34v17.2h33.3v10.3H197.9v18.6h34V322Z" transform="translate(-92.1 -231.89)"/><path d="M386.67,322V265.6h-20.2V255.3h52.1v10.3h-20.2V322Z" transform="translate(-92.1 -231.89)"/><path d="M466.57,322l-14.7-24.9h-11.7V322h-11.7V255.3h29.3c13.2,0,21.9,8.5,21.9,20.9,0,11.8-7.8,18.3-15.9,19.6l16.4,26.2Zm1.1-45.9c0-6.4-4.8-10.5-11.4-10.5h-16.1v21.2h16.1C462.87,286.8,467.67,282.6,467.67,276.1Z" transform="translate(-92.1 -231.89)"/><path d="M491.37,295.6V255.3h11.9v40c0,10.6,5.9,17.5,17,17.5s17-6.9,17-17.5v-40h11.9v40.3c0,16.5-9.5,27.6-28.9,27.6S491.37,312.1,491.37,295.6Z" transform="translate(-92.1 -231.89)"/><path d="M559.06,312.6l6.6-9.1a28.66,28.66,0,0,0,21.1,9.3c9.6,0,13.3-4.7,13.3-9.2,0-14-38.8-5.3-38.8-29.8,0-11.1,9.6-19.6,24.3-19.6,10.3,0,18.8,3.4,24.9,9.4l-6.6,8.7a27.19,27.19,0,0,0-19.4-7.7c-6.8,0-11.2,3.4-11.2,8.3,0,12.5,38.8,4.8,38.8,29.6,0,11.1-7.9,20.7-25.8,20.7C574,323.2,565.07,318.8,559.06,312.6Z" transform="translate(-92.1 -231.89)"/><path d="M638.67,322V265.6h-20.2V255.3h52.1v10.3h-20.2V322Z" transform="translate(-92.1 -231.89)"/><path d="M92.1,231.89H670.57v11.7H92.1Z" transform="translate(-92.1 -231.89)"/><path d="M92.1,333.7H670.57v11.7H92.1Z" transform="translate(-92.1 -231.89)"/></svg>