<?xml version="1.0" standalone="no"?>
<!DOCTYPE svg PUBLIC "-//W3C//DTD SVG 20010904//EN"
 "http://www.w3.org/TR/2001/REC-SVG-20010904/DTD/svg10.dtd">
<svg version="1.0" xmlns="http://www.w3.org/2000/svg"
 width="1206.000000pt" height="1206.000000pt" viewBox="0 0 1206.000000 1206.000000"
 preserveAspectRatio="xMidYMid meet">
<metadata>
Created by potrace 1.11, written by Peter Selinger 2001-2013
</metadata>
<g transform="translate(0.000000,1206.000000) scale(0.100000,-0.100000)"
fill="#000000" stroke="none">
<path d="M2241 12036 c-48 -17 -108 -71 -134 -119 l-22 -42 0 -4870 c0 -4781
0 -4871 19 -4909 11 -21 34 -52 52 -70 33 -31 3691 -1975 3782 -2009 32 -12
65 -16 103 -13 52 4 192 76 1905 981 1017 538 1872 992 1901 1011 33 21 62 51
80 81 l28 48 3 4855 c2 3809 0 4865 -10 4900 -16 58 -98 144 -154 159 -60 17
-7507 14 -7553 -3z m7467 -5037 l-3 -4800 -1842 -975 -1842 -974 -1845 976
-1846 977 0 4798 0 4799 3690 0 3690 0 -2 -4801z"/>
<path d="M5285 11359 c-190 -20 -384 -74 -554 -154 -291 -138 -547 -388 -691
-675 -177 -352 -217 -825 -103 -1220 160 -556 587 -943 1183 -1072 92 -19 134
-22 340 -23 211 0 246 2 339 23 258 58 460 166 649 347 82 78 252 285 252 307
0 4 -103 59 -228 122 l-228 114 -29 -45 c-98 -155 -289 -297 -482 -357 -180
-56 -367 -56 -560 0 -537 155 -847 721 -724 1319 85 412 366 711 767 816 76
20 112 24 249 23 144 0 169 -3 248 -27 203 -62 389 -195 494 -353 20 -30 38
-54 41 -54 3 0 106 53 228 117 l223 117 -20 35 c-39 66 -128 177 -201 250
-301 304 -718 440 -1193 390z"/>
<path d="M2820 9785 l0 -1525 265 0 265 0 0 1525 0 1525 -265 0 -265 0 0
-1525z"/>
<path d="M7130 9785 l0 -1525 1050 0 1050 0 0 235 0 235 -780 0 -780 0 0 425
0 425 760 0 760 0 0 240 0 240 -760 0 -760 0 0 390 0 390 778 2 777 3 3 233 2
232 -1050 0 -1050 0 0 -1525z"/>
<path d="M7365 7788 c-150 -11 -262 -62 -349 -160 -62 -68 -89 -142 -90 -243
-1 -113 22 -175 93 -246 70 -69 148 -108 317 -154 304 -84 337 -99 381 -164
28 -41 29 -82 4 -136 -23 -49 -43 -68 -105 -96 -148 -65 -403 -11 -545 117
-28 25 -55 43 -59 40 -15 -9 -132 -173 -132 -184 0 -16 119 -101 194 -139 96
-48 201 -73 336 -80 357 -17 580 148 580 431 0 133 -43 221 -145 298 -62 47
-160 86 -351 138 -194 53 -247 75 -284 116 -69 79 -15 203 103 235 60 17 186
14 253 -6 72 -21 157 -63 208 -104 21 -17 42 -31 46 -31 4 0 38 39 74 88 l66
87 -43 38 c-59 53 -202 122 -289 141 -96 20 -154 23 -263 14z"/>
<path d="M2820 7665 l0 -105 210 0 210 0 0 -595 0 -595 125 0 125 0 0 595 0
595 215 0 215 0 0 105 0 105 -550 0 -550 0 0 -105z"/>
<path d="M4120 7070 l0 -700 125 0 125 0 0 260 0 261 126 -3 126 -3 152 -257
151 -258 143 0 c78 0 142 2 142 4 0 3 -76 125 -169 273 l-169 268 55 18 c109
36 184 101 235 204 27 56 32 77 36 167 5 113 -10 187 -54 262 -31 52 -108 126
-162 153 -92 47 -134 51 -509 51 l-353 0 0 -700z m695 467 c144 -64 180 -237
74 -352 -62 -67 -98 -75 -326 -75 l-193 0 0 218 c0 120 3 222 8 226 4 4 95 6
202 4 159 -3 202 -7 235 -21z"/>
<path d="M5450 7303 c0 -370 3 -482 15 -536 62 -292 293 -444 643 -424 59 4
132 13 162 21 192 53 327 188 376 377 15 54 18 136 21 547 l5 482 -126 0 -126
0 0 -422 c0 -233 -4 -451 -9 -485 -19 -132 -92 -232 -199 -274 -45 -18 -78
-23 -157 -23 -89 -1 -107 2 -160 27 -78 36 -127 85 -162 161 l-28 61 -3 478
-3 477 -124 0 -125 0 0 -467z"/>
<path d="M8130 7665 l0 -105 210 0 210 0 0 -595 0 -595 125 0 125 0 0 595 0
595 215 0 215 0 0 105 0 105 -550 0 -550 0 0 -105z"/>
<path d="M6610 5860 c0 -19 3 -21 12 -12 9 9 9 15 0 24 -9 9 -12 7 -12 -12z"/>
<path d="M7675 5820 c-10 -11 -23 -19 -29 -17 -6 3 -21 -4 -33 -15 -21 -20
-21 -20 -33 2 -8 15 -17 19 -31 15 -12 -4 -19 -2 -19 7 -1 7 -9 3 -20 -10 -11
-13 -23 -21 -28 -18 -4 3 4 -74 19 -171 26 -163 26 -179 12 -214 -12 -31 -13
-45 -3 -74 7 -20 10 -38 8 -40 -2 -2 -26 2 -53 8 l-48 13 29 22 29 22 -43 -18
c-56 -25 -56 -25 -36 -64 l17 -33 -22 20 c-21 18 -23 18 -32 2 -12 -21 -33
-23 -25 -2 7 18 11 18 -54 -1 -44 -13 -55 -13 -61 -2 -99 166 -98 166 -168 1
-30 -71 -65 -153 -79 -183 l-24 -55 -18 23 c-13 15 -28 22 -52 21 -31 -1 -31
-2 -8 -9 19 -6 20 -8 6 -9 -16 -1 -18 -7 -13 -38 8 -49 0 -39 -83 112 -36 65
-72 120 -81 122 -9 3 -21 14 -26 26 -13 29 -164 68 -208 54 -16 -6 -31 -11
-33 -12 -3 -2 51 -249 69 -318 5 -21 14 -35 18 -32 25 15 47 -99 39 -200 -1
-11 1 -51 4 -90 l6 -70 -46 140 c-26 77 -56 154 -67 172 -11 17 -27 44 -36 60
-10 19 -32 34 -68 47 l-53 19 5 51 c6 68 -26 141 -56 124 -18 -9 -19 -7 -15
34 3 34 0 46 -16 60 -20 16 -22 15 -44 -5 l-24 -22 7 38 c7 36 7 37 -23 37
-22 0 -32 -6 -37 -21 -5 -15 -9 -18 -15 -9 -6 10 -15 10 -43 1 -30 -10 -36
-18 -46 -57 -7 -25 -9 -54 -6 -65 7 -22 -13 -26 -21 -4 -8 19 -24 20 -24 1 0
-11 -15 -14 -66 -13 -60 2 -68 0 -86 -24 -16 -21 -17 -30 -8 -54 10 -26 8 -32
-18 -58 l-29 -28 24 -137 c12 -75 23 -147 23 -159 0 -21 -1 -21 -27 -7 -36 18
-43 18 -43 -3 0 -10 -24 27 -54 82 -45 86 -59 103 -92 118 -38 18 -41 23 -102
181 l-64 163 -43 -8 c-64 -12 -145 -55 -145 -78 0 -10 13 -83 29 -163 17 -80
27 -155 24 -166 -3 -11 2 -51 10 -89 16 -72 16 -155 -1 -176 -5 -6 -15 -39
-22 -72 -16 -79 -29 -102 -30 -52 0 40 -4 42 -45 27 l-27 -10 27 -21 c21 -17
25 -27 20 -48 -9 -36 -10 -36 -49 -11 -26 15 -36 29 -37 48 -1 17 -3 21 -6 10
-2 -10 -9 -18 -15 -18 -7 0 -8 29 -4 89 6 77 5 91 -9 98 -13 8 -32 -7 -92 -68
l-75 -78 7 -155 c4 -86 5 -156 2 -156 -3 0 -25 32 -49 70 l-43 71 -5 -193 -5
-192 -59 206 -58 207 -25 -10 c-13 -5 -33 -14 -44 -19 -28 -16 -24 -4 21 52
34 43 40 58 40 99 0 27 -2 49 -5 49 -3 0 -23 -11 -45 -25 -22 -14 -40 -23 -40
-21 0 3 9 20 20 39 20 34 20 34 0 52 -12 11 -29 16 -45 13 -22 -5 -32 5 -85
83 -59 86 -60 89 -36 89 20 0 29 -8 40 -34 11 -25 25 -38 59 -51 45 -17 47
-17 75 3 56 40 57 48 11 66 l-42 17 52 53 c47 48 52 56 41 75 -7 13 -9 39 -4
66 l6 45 -37 0 c-32 0 -36 2 -25 15 19 23 7 28 -37 16 -46 -13 -73 -14 -73 -3
0 5 36 17 80 27 44 10 80 21 80 25 0 4 -11 17 -24 29 -18 17 -33 22 -55 19
-30 -4 -31 -3 -31 31 -1 47 -20 72 -49 64 -19 -5 -22 -11 -17 -33 3 -17 -1
-35 -9 -46 -14 -17 -14 -15 -9 24 6 35 4 41 -8 37 -17 -7 -23 9 -33 96 l-7 57
-64 29 c-47 22 -60 33 -52 41 9 9 8 18 -2 37 -12 22 -18 24 -47 19 -28 -5 -33
-3 -33 12 -1 18 -1 18 -11 2 -6 -11 -22 -18 -41 -18 l-31 0 5 51 c4 36 1 52
-8 56 -7 2 -16 17 -19 31 -3 15 -30 54 -60 87 -39 44 -52 53 -48 36 l6 -24
-39 27 -39 26 -25 -30 c-30 -37 -49 -37 -118 -5 -66 31 -68 31 -48 1 l15 -24
-32 9 c-41 12 -60 11 -52 -1 8 -14 -8 -13 -22 1 -7 7 -19 9 -28 5 -14 -5 -11
-10 14 -32 19 -16 31 -35 31 -50 0 -20 -5 -24 -32 -24 -39 0 -67 -15 -53 -28
6 -5 39 -21 75 -36 l65 -28 39 44 c36 40 38 41 32 16 -3 -16 -3 -28 0 -28 4 0
31 14 61 31 l55 31 -26 -51 -26 -51 32 6 c18 3 46 10 62 15 38 12 46 3 15 -19
l-24 -17 50 -10 50 -11 -48 -14 c-39 -10 -48 -17 -44 -32 6 -23 1 -23 -29 1
-39 31 -99 36 -160 15 -30 -10 -54 -24 -54 -30 0 -40 26 -64 149 -138 118 -71
134 -78 156 -68 15 7 25 8 25 2 0 -6 -4 -10 -10 -10 -5 0 -16 -16 -25 -36 -14
-34 -13 -39 20 -120 l35 -84 -31 -48 c-30 -47 -30 -47 -22 -12 12 57 6 100
-18 126 -13 13 -26 21 -30 17 -4 -5 -17 -43 -29 -86 -13 -42 -25 -75 -28 -73
-2 3 1 49 7 102 11 96 11 98 -13 134 -13 21 -34 40 -45 43 -23 6 -25 2 -40
-93 -8 -52 -9 -53 -10 -15 l-2 40 -15 -27 c-8 -15 -23 -32 -34 -38 -19 -10
-19 -10 0 36 24 55 24 55 5 48 -9 -4 -15 0 -15 9 0 30 -18 27 -39 -6 -21 -33
-29 -31 -10 4 8 15 6 33 -7 71 l-16 50 -21 -21 -21 -21 -27 58 -26 57 -81 28
-81 29 -30 -23 c-17 -13 -31 -30 -31 -38 1 -9 21 -29 46 -45 25 -15 43 -30 41
-32 -2 -3 -34 2 -70 10 l-67 14 51 -59 50 -58 -76 26 c-74 24 -77 25 -90 7 -8
-11 -15 -24 -15 -31 0 -6 74 -69 165 -139 91 -70 164 -128 162 -130 -1 -2 -79
19 -172 47 -174 51 -184 51 -185 6 0 -10 16 -50 36 -89 l36 -71 155 6 c149 6
155 5 139 -12 -9 -10 -13 -20 -10 -23 6 -7 -7 -11 -86 -28 -88 -19 -86 -17
-55 -50 21 -22 39 -30 64 -31 l36 -1 -28 -11 c-21 -8 -26 -16 -21 -30 6 -18 3
-19 -34 -15 -29 4 -44 1 -56 -10 -15 -15 -16 -13 -16 30 l0 45 -122 73 c-68
41 -132 79 -143 86 -16 10 -23 10 -37 0 -14 -10 -6 -25 72 -131 48 -66 87
-122 85 -124 -2 -1 -28 5 -57 14 -29 10 -60 20 -68 23 -8 3 18 -29 59 -71 74
-75 74 -76 48 -83 -27 -6 -35 -1 -198 119 -39 28 -85 16 -93 -24 -3 -17 -26
-54 -50 -83 l-45 -52 165 -28 c98 -17 161 -33 156 -38 -13 -13 -2 -59 14 -65
8 -3 43 0 78 7 56 10 65 15 78 44 14 28 27 36 97 59 77 25 82 26 109 10 27
-15 30 -15 55 3 17 12 26 29 27 46 0 53 23 77 35 38 5 -15 15 -20 39 -20 38 0
50 11 61 55 l7 30 12 -30 13 -30 13 37 c13 35 15 37 32 21 17 -15 17 -17 -6
-48 -25 -33 -20 -55 11 -55 7 0 13 -6 13 -14 0 -14 29 -31 37 -22 3 2 -1 39
-7 81 -12 81 -6 103 24 92 12 -5 16 -22 16 -72 0 -37 4 -65 10 -65 6 0 10 7
10 15 0 10 7 15 17 13 14 -2 19 8 27 52 l9 55 14 -60 c7 -33 16 -71 19 -85 l6
-25 21 26 c12 15 34 29 50 31 22 4 25 3 16 -8 -14 -17 -11 -17 32 -3 19 7 46
23 61 37 24 22 26 22 22 5 -4 -12 -29 -31 -66 -49 -85 -40 -88 -52 -28 -103
l49 -41 27 60 c28 64 39 72 49 40 6 -20 25 -28 25 -11 0 5 7 11 15 15 22 8 51
-50 34 -70 -6 -8 -10 -16 -8 -18 2 -2 33 0 69 5 36 4 66 6 68 4 1 -1 -26 -15
-62 -30 -42 -18 -63 -32 -59 -40 3 -9 -2 -12 -14 -9 -23 6 -325 -263 -329
-293 -3 -18 11 -23 134 -52 75 -17 143 -31 151 -31 16 0 97 63 128 99 l21 26
12 -25 c9 -21 6 -37 -20 -99 -22 -53 -27 -77 -19 -82 7 -4 9 -14 6 -22 -7 -19
-90 -27 -124 -13 -15 6 -32 5 -48 -2 -18 -8 -53 -8 -141 3 l-116 15 -19 -23
c-10 -12 -18 -26 -19 -32 0 -5 -7 1 -16 13 -8 12 -25 22 -36 22 -20 0 -20 1
-4 19 29 32 0 34 -45 4 -32 -21 -38 -29 -25 -31 14 -3 10 -9 -18 -28 -41 -28
-52 -30 -60 -9 -10 28 -44 -1 -63 -54 -9 -27 -21 -47 -25 -45 -13 8 -6 77 9
96 13 14 12 17 -7 23 -40 13 -67 -12 -74 -66 -4 -27 -10 -49 -14 -49 -4 0 -20
11 -36 25 -34 29 -40 31 -32 9 5 -12 0 -15 -18 -12 -14 1 -37 -6 -53 -17 -63
-45 -73 -47 -145 -27 l-67 19 -44 -28 c-25 -15 -48 -25 -52 -21 -9 8 -11 14
39 -111 l39 -97 68 0 67 0 19 45 c21 53 29 57 78 44 30 -9 40 -7 55 6 16 14
31 14 186 -10 93 -14 180 -27 193 -31 21 -5 23 -3 12 10 -11 13 -11 16 2 16
25 0 47 -11 41 -21 -11 -18 36 -9 56 11 11 11 29 20 40 20 11 0 23 0 28 0 4 0
7 -8 8 -19 2 -27 13 -41 33 -41 28 0 32 -11 12 -39 -10 -14 -24 -37 -30 -49
-12 -23 -12 -24 18 -17 34 7 37 2 17 -34 -8 -15 -16 -20 -20 -12 -4 6 -12 11
-17 11 -6 0 1 -15 14 -32 17 -23 22 -39 17 -53 -11 -28 17 -60 37 -43 22 18
35 -9 28 -61 -4 -27 -3 -41 3 -37 5 3 17 -5 26 -18 23 -36 53 -24 66 28 6 22
15 52 20 66 l8 25 1 -27 c1 -16 3 -28 6 -28 15 0 95 46 95 55 0 6 23 33 51 60
29 28 48 43 44 35 -6 -12 -5 -13 6 -2 7 6 31 12 54 11 l40 0 -45 -19 c-33 -14
-39 -19 -22 -19 13 -1 20 -5 17 -11 -4 -6 -1 -18 7 -27 12 -15 11 -15 -9 -5
-12 7 -23 17 -25 23 -2 5 -25 -6 -52 -27 -35 -26 -45 -39 -35 -45 9 -5 -1 -14
-33 -28 -40 -17 -50 -28 -71 -73 -48 -103 -46 -118 17 -119 l41 -1 -30 -13
c-16 -7 -45 -29 -64 -48 l-33 -35 37 -11 c21 -6 43 -7 49 -4 6 4 50 35 98 70
85 61 88 62 136 56 38 -4 49 -9 47 -22 -2 -13 -12 -15 -48 -13 -36 3 -50 -1
-66 -17 -12 -12 -29 -21 -39 -21 -10 0 -35 -28 -62 -68 -58 -86 -58 -86 -26
-80 18 4 29 1 33 -8 3 -8 18 -14 34 -14 29 0 38 -13 19 -25 -6 -4 -8 -11 -4
-16 3 -6 -3 -13 -15 -16 -19 -5 -25 -15 -22 -36 2 -10 -11 -9 -59 8 -73 26
-96 15 -39 -19 34 -20 34 -40 0 -42 -29 -2 -36 -11 -22 -27 9 -12 0 -20 -49
-46 -33 -18 -68 -30 -78 -27 -22 7 -82 -29 -82 -50 0 -14 -7 -15 -37 -10 -21
3 -47 6 -57 6 -11 0 -17 3 -13 6 9 9 -73 125 -84 119 -5 -4 -9 -42 -9 -86 l0
-79 28 0 c24 -1 25 -2 10 -14 -12 -8 -21 -38 -28 -86 -15 -103 -6 -111 87 -79
37 13 76 23 86 21 10 -1 28 5 40 13 31 22 334 22 363 0 23 -18 42 -18 137 -4
64 9 76 15 86 35 9 20 16 23 38 18 l28 -7 -23 25 -22 24 23 22 c24 22 105 33
92 12 -3 -6 -15 -10 -26 -10 -10 0 -19 -4 -19 -8 0 -5 39 -44 87 -88 100 -90
130 -114 120 -97 -5 8 1 15 18 19 14 3 32 19 41 35 8 16 17 29 20 29 7 0 0
-47 -10 -72 -6 -13 -1 -17 20 -20 15 -2 30 -9 32 -17 4 -11 -4 -13 -38 -8 -23
3 -39 2 -34 -2 30 -25 84 -61 91 -61 4 0 25 32 46 70 21 39 40 70 41 70 2 0 1
-12 -2 -26 -4 -20 3 -32 29 -54 36 -31 30 -39 -11 -15 -35 20 -45 19 -65 -12
-17 -25 -17 -28 0 -60 10 -18 22 -33 27 -33 5 0 6 -5 2 -12 -4 -7 -3 -8 4 -4
6 4 18 -6 27 -24 9 -17 20 -28 25 -25 6 4 10 -1 10 -9 0 -8 34 -33 75 -56 73
-40 76 -41 179 -43 58 0 103 -4 101 -7 -5 -8 306 -134 340 -137 17 -1 41 -5
55 -8 25 -6 479 41 488 50 3 3 -2 5 -11 5 -17 0 -53 82 -43 98 5 9 93 -1 103
-12 2 -2 -7 -13 -21 -24 -27 -21 -35 -52 -13 -52 6 1 53 39 102 85 82 77 88
85 63 85 -18 0 -28 5 -28 15 0 15 10 19 41 16 9 -1 33 20 53 47 19 27 53 61
75 76 22 15 42 35 46 44 4 12 8 13 14 4 5 -9 32 -2 106 28 54 22 101 37 104
32 7 -10 107 -10 117 0 4 5 3 18 -3 30 -12 28 -7 48 13 48 10 0 14 -14 14 -51
0 -31 4 -48 10 -44 6 3 10 18 10 33 0 21 2 24 10 12 7 -11 10 -7 10 18 0 40
13 35 40 -16 18 -36 19 -36 20 -10 0 15 5 30 10 33 6 4 8 11 5 16 -4 5 11 9
33 9 28 0 51 9 83 32 24 18 47 33 51 33 9 0 71 73 92 110 10 17 32 37 49 46
18 9 31 22 30 28 -2 6 2 11 8 11 16 0 109 81 106 93 -1 5 31 24 71 41 41 17
68 32 62 34 -15 5 28 52 48 52 8 0 41 9 73 21 44 16 56 25 52 37 -4 10 -2 13
6 8 22 -14 43 15 36 51 -7 38 6 44 28 12 14 -19 31 -26 65 -28 9 -1 11 -8 7
-21 -8 -26 -1 -25 35 2 l30 22 30 -23 c27 -20 35 -21 66 -11 24 8 34 17 32 28
-2 10 -8 17 -15 17 -6 0 -15 3 -19 7 -9 9 15 40 26 33 10 -6 100 95 100 112 0
14 22 16 59 6 l23 -6 -23 -13 c-28 -15 -12 -18 24 -5 18 7 35 37 75 135 29 69
52 129 52 133 0 4 -18 -11 -41 -32 l-40 -40 -19 25 c-27 34 -25 37 17 45 53
10 56 13 33 45 -11 15 -20 30 -20 33 0 13 46 14 81 2 36 -13 39 -13 39 4 0 9
-13 27 -30 39 -16 13 -30 30 -30 39 0 8 -11 26 -25 39 -25 23 -34 54 -15 54 5
0 22 -16 37 -36 15 -20 37 -47 48 -60 l20 -24 82 27 82 27 -15 29 c-25 47 -13
60 46 52 28 -4 50 -5 50 -2 0 3 -16 15 -36 27 -42 27 -33 45 14 28 27 -11 34
-10 49 5 9 9 15 18 12 20 -2 1 -37 24 -76 50 -40 26 -73 48 -73 50 0 1 44 1
97 -1 l98 -2 -59 54 c-57 52 -60 54 -147 66 -50 7 -92 16 -94 20 -3 4 25 13
61 20 55 11 65 15 61 30 -4 14 7 10 44 -17 27 -19 56 -45 66 -58 17 -22 21
-23 76 -13 47 8 57 13 52 26 -4 10 4 23 20 36 24 20 26 26 23 96 l-3 75 -29
-48 c-21 -35 -32 -45 -40 -37 -6 6 -11 18 -11 28 0 12 -7 16 -23 15 -13 -2
-21 1 -17 7 3 6 15 10 26 10 18 0 39 33 39 61 0 5 -46 9 -102 10 l-103 1 104
33 c57 19 110 36 119 40 13 5 10 12 -16 38 l-32 31 -64 -17 c-85 -23 -92 -21
-28 8 57 26 71 58 31 70 -17 6 -19 9 -8 16 8 5 24 9 37 9 14 0 22 6 22 18 0 9
7 31 16 47 9 17 17 56 18 89 1 57 0 60 -33 79 -31 19 -34 19 -43 3 -12 -22
-28 -11 -28 20 0 14 -6 27 -14 30 -8 3 -18 19 -21 35 -6 25 -10 28 -33 23 -15
-4 -29 -8 -31 -10 -2 -2 -38 16 -80 38 -49 27 -71 35 -61 23 16 -20 15 -20
-36 1 -6 3 -32 -27 -57 -66 -26 -38 -49 -70 -52 -70 -16 0 73 140 95 150 l25
12 -34 28 -33 28 17 52 c10 30 14 55 8 61 -5 5 -62 -8 -138 -31 -72 -22 -134
-40 -139 -40 -8 0 -5 18 9 54 8 18 7 18 -19 0 -25 -16 -20 -2 48 134 42 84 76
157 76 163 0 6 -14 36 -31 65 l-30 53 -53 -25 c-50 -25 -54 -26 -102 -12 -44
13 -49 17 -46 40 2 20 -4 28 -28 38 -16 7 -30 15 -30 19 1 14 26 39 47 45 12
4 36 25 54 47 l31 40 -17 45 c-9 25 -13 49 -9 53 5 5 62 40 127 80 64 40 117
74 117 77 0 2 -42 4 -93 4 l-93 0 -90 -84 c-64 -60 -102 -87 -131 -95 l-40
-11 -12 -71 c-10 -53 -17 -69 -27 -65 -33 13 -166 109 -171 124 -3 9 -14 24
-24 32 -17 14 -17 18 5 86 l23 71 -43 22 c-24 11 -44 28 -44 36 0 9 -9 15 -25
15 -27 0 -29 6 -16 62 8 35 6 40 -25 68 -43 37 -101 41 -129 10z"/>
<path d="M6380 5084 c0 -11 7 -29 15 -40 14 -19 14 -19 14 1 0 11 -6 29 -14
39 -15 20 -15 20 -15 0z"/>
<path d="M5280 1573 c0 -10 4 -24 9 -32 7 -11 10 -9 16 8 7 22 0 41 -16 41 -5
0 -9 -8 -9 -17z"/>
</g>
</svg>
