<?xml version="1.0" encoding="utf-8"?>
<!-- Generator: Adobe Illustrator 21.1.0, SVG Export Plug-In . SVG Version: 6.00 Build 0)  -->
<svg version="1.1" id="Capa_1" xmlns="http://www.w3.org/2000/svg" xmlns:xlink="http://www.w3.org/1999/xlink" x="0px" y="0px"
	 viewBox="0 0 489.8 489.8" style="enable-background:new 0 0 489.8 489.8;" xml:space="preserve">
<style type="text/css">
	.st0{fill:#F0F0F0;}
</style>
<g>
	<path class="st0" d="M469.1,64.5H20.9C10.6,64.5,2.1,72,0.4,81.8c-0.6,2.4-0.3,322.7-0.3,322.7c0,11.4,9.4,20.8,20.8,20.8H468
		c11.4,0,20.8-8.3,21.8-19.8V85.3C489.9,73.8,480.5,64.5,469.1,64.5z M404.3,106.1L244.5,220.5L84.7,106.1
		C84.7,106.1,404.3,106.1,404.3,106.1z M40.7,384.8V124.9l192.4,137.2c7.8,6.3,17.2,4.4,22.9,0l192.4-137.8v260.5L40.7,384.8
		L40.7,384.8z"/>
</g>
</svg>
