<?xml version="1.0" encoding="iso-8859-1"?>
<!-- Generator: Adobe Illustrator 19.0.0, SVG Export Plug-In . SVG Version: 6.00 Build 0)  -->
<svg version="1.1" id="Capa_1" xmlns="http://www.w3.org/2000/svg" xmlns:xlink="http://www.w3.org/1999/xlink" x="0px" y="0px"
	 viewBox="0 0 512.001 512.001" style="enable-background:new 0 0 512.001 512.001;" xml:space="preserve">
<path style="fill:#3EDDBF;" d="M496.143,270.509v132.468H14.913V222.14c0-9.961,4.146-19.461,11.452-26.231
	c13.835-12.816,36.486-32.267,46.605-32.267c6.55,0,13.635,11.336,24.678,23.712c14.433,16.154,35.615,34.093,71.178,30.997
	c36.434-3.17,57.879-24.279,77.025-38.05c13.856-9.972,26.515-16.112,42.784-8.817c19.24,8.628,26.084,27.344,31.574,44.411
	c5.553,17.298,9.709,32.897,23.974,34.618c20.426,2.456,48.746-38.019,72.899-57.354c9.342-7.484,18.065-11.809,25.465-9.258
	c21.434,7.39,43.215,54.782,50.793,72.721C495.198,261.02,496.143,265.733,496.143,270.509z"/>
<g>
	<path style="fill:#00AD8C;" d="M350.239,402.977H14.913v-39.142l64.166-136.866l9.615-20.51l8.954-19.104
		c14.433,16.154,35.615,34.093,71.178,30.997c36.434-3.17,57.879-24.279,77.025-38.05l12.722,27.134L350.239,402.977z"/>
	<path style="fill:#00AD8C;" d="M496.143,361.82v41.157H232.487l87.721-187.082c5.553,17.298,9.709,32.897,23.974,34.618
		c20.426,2.456,48.746-38.019,72.899-57.354l51.528,109.942L496.143,361.82z"/>
	<path style="fill:#00AD8C;" d="M496.143,330.445v72.532H14.913v-129.13c0,0,42.973-43.257,58.057-43.257
		c15.084,0.011,33.033,60.177,95.856,54.709c62.823-5.469,81.066-64.229,119.809-46.868c38.743,17.362,27.207,75.618,55.548,79.029
		c28.33,3.411,71.818-75.734,98.364-66.601C469.082,259.991,496.143,330.445,496.143,330.445z"/>
</g>
<path style="fill:#728080;" d="M503.526,443.053H231.091l1.795-3.831l82.903-176.827l0.819-1.742l8.345-17.802l27.974-59.663
	c8.355-17.844,33.726-17.844,42.091,0l48.747,103.99l10.591,22.599l56.834,121.219C513.821,436.609,509.725,443.053,503.526,443.053
	z"/>
<path style="fill:#585E60;" d="M451.763,343.03c-3.075,8.618-10.507,19.503-28.383,22.484c-1.963,0.325-3.926,0.493-5.826,0.493
	c-9.909,0-23.47-4.283-31.815-24.678c-4.304-10.497-6.56-23.397-8.754-35.867c-1.753-10.014-4.954-28.278-8.796-32.781
	c-0.115,0.021-0.252,0.053-0.399,0.095c-7.788,2.099-14.947,3.159-21.298,3.159h-0.042c-14.8,0-23.491-5.784-28.183-10.644
	c-0.913-0.945-1.743-1.921-2.477-2.897l0.819-1.742l8.345-17.802l27.974-59.663c8.355-17.844,33.726-17.844,42.091,0l48.747,103.99
	l10.591,22.599c0.01,1.994,0.063,4.01,0.116,5.889C454.702,324.745,454.943,334.129,451.763,343.03z"/>
<path style="fill:#3EDDBF;" d="M420.798,349.979c-39.184,6.508-17.498-103.088-57.112-92.402
	c-39.615,10.675-38.733-14.727-38.733-14.727l27.974-59.663c8.355-17.844,33.726-17.844,42.091,0l48.747,103.99
	C429.888,305.82,452.172,344.762,420.798,349.979z"/>
<path style="fill:#585E60;" d="M372.744,422.574v12.292c0,2.593-2.225,4.64-4.807,4.419l-12.25-1.018
	c-0.336-0.031-33.6-2.803-55.601-2.803c-21.518,0-55.275,2.771-55.611,2.803l-11.588,0.955l83.721-178.569
	c13.247,11.011,38.302,35.983,38.302,67.357v12.092l-0.063,0.01c7.169,11.504,10.78,23.124,10.78,34.744v8.933
	c0,2.057-1.407,3.852-3.411,4.325c3.495,5.71,6.13,11.452,7.893,17.194C371.862,411.059,372.744,416.822,372.744,422.574z"/>
<path style="fill:#A5B1B2;" d="M351.635,443.053H8.474c-6.199,0-10.295-6.444-7.664-12.057l92.523-197.341l9.615-20.521
	l44.202-94.281c10.423-22.253,42.071-22.253,52.504,0l36.444,77.738l8.219,17.53l27.123,57.868l77.707,165.763L351.635,443.053z"/>
<path style="fill:#728080;" d="M244.317,214.121c-1.742,5.763-1.952,12.774-2.152,19.618c-0.241,8.103-0.462,15.766-3.149,22.757
	c-4.23,11.032-13.73,17.362-26.053,17.362c-6.634,0-18.936-2.236-26.809-17.173c-3.716-7.064-5.626-15.262-7.473-23.197
	c-1.218-5.238-3.432-14.758-5.584-17.498c-4.094,0.021-9.3,0.577-11.515,3.013c-1.879,2.068-3.055,6.235-4.304,10.654
	c-2.656,9.395-8.177,28.939-31.784,28.939c-10.15,0-23.072-4.755-32.162-24.94l9.615-20.521l44.202-94.281
	c10.423-22.253,42.071-22.253,52.504,0l36.444,77.738L244.317,214.121z"/>
<path style="fill:#A7F9E9;" d="M236.098,196.591c-19.051,22.463,0.766,61.521-23.135,61.521c-25.192,0-12.596-57.868-39.572-57.868
	c-43.141,0-21.308,42.606-47.896,42.606c-11.987,0-18.747-14.506-22.547-29.716l44.202-94.281c10.423-22.253,42.071-22.253,52.504,0
	L236.098,196.591z"/>
<path style="fill:#728080;" d="M349.147,437.752c-10.854-0.808-32.97-2.288-49.061-2.288c-21.518,0-55.275,2.771-55.611,2.803
	l-12.239,1.008c-2.582,0.21-4.797-1.826-4.797-4.43v-12.271c0-11.515,3.527-23.04,10.528-34.461
	c-1.008-0.241-1.858-0.808-2.467-1.564c-0.598-0.766-0.955-1.732-0.955-2.761v-8.933c0-11.62,3.621-23.24,10.78-34.744l-0.053-0.01
	V328.01c0-23.198,13.688-42.889,26.168-56.021L349.147,437.752z"/>
<rect x="284.88" y="389.63" style="fill:#B4732D;" width="30.421" height="75.63"/>
<path style="fill:#8B5016;" d="M315.3,389.626v44.522c-5.284-0.175-10.481-0.281-15.21-0.281c-4.681,0-9.897,0.114-15.21,0.289
	v-44.53H315.3z"/>
<path style="fill:#A7F9E9;" d="M333.233,377.315c3.333-0.265,6.392-0.651,8.954-1.039c4.693-0.711,7.775-5.251,6.795-9.896
	c-2.929-13.884-12.55-26.428-22.492-36.177c1.822-0.185,3.538-0.418,5.084-0.662c4.566-0.723,7.672-5.06,6.831-9.606
	c-4.077-22.021-23.615-40.358-33.112-48.138c-3.026-2.479-7.383-2.479-10.409,0c-9.497,7.78-29.035,26.116-33.112,48.138
	c-0.842,4.546,2.264,8.882,6.831,9.606c1.546,0.245,3.262,0.478,5.084,0.662c-9.942,9.748-19.563,22.293-22.492,36.177
	c-0.98,4.644,2.102,9.185,6.795,9.896c2.562,0.388,5.622,0.774,8.954,1.039c-9.788,9.589-18.815,21.357-22.275,34.267
	c-1.452,5.417,2.975,10.628,8.57,10.232c11.919-0.844,32.024-2.09,46.849-2.09c15.115,0,35.022,1.237,46.842,2.081
	c5.596,0.4,10.027-4.812,8.574-10.231C352.044,398.667,343.019,386.902,333.233,377.315z"/>
<path style="fill:#3EDDBF;" d="M346.937,421.811c-2.333-0.166-4.981-0.346-7.844-0.529c-0.467-14.326-8.624-27.628-18.626-38.657
	c-1.989-2.193-0.732-5.705,2.201-6.112c5.597-0.776,9.331-1.66,9.331-1.66c0-14.84-8.5-28.554-18.478-39.547
	c-1.944-2.142-0.788-5.576,2.059-6.085c3.466-0.621,5.695-1.215,5.695-1.215c0-22.849-18.597-42.838-30.129-53.027
	c1.359-1.201,2.62-2.266,3.741-3.185c3.026-2.479,7.383-2.478,10.409,0.001c9.497,7.781,29.034,26.118,33.11,48.139
	c0.841,4.545-2.263,8.88-6.828,9.605c-1.547,0.246-3.264,0.48-5.087,0.666c9.944,9.749,19.564,22.291,22.492,36.176
	c0.979,4.645-2.103,9.185-6.796,9.895c-2.561,0.388-5.619,0.773-8.952,1.038c9.787,9.589,18.812,21.355,22.272,34.265
	C356.959,416.999,352.532,422.209,346.937,421.811z"/>
<g>
	<path style="fill:#585E60;" d="M76.512,397.354c-0.656,0-1.322-0.085-1.986-0.261c-4.125-1.094-6.582-5.324-5.487-9.449
		l26.442-99.682c1.094-4.125,5.325-6.578,9.449-5.487c4.125,1.094,6.582,5.324,5.487,9.449l-26.442,99.682
		C83.057,395.067,79.93,397.354,76.512,397.354z"/>
	<path style="fill:#585E60;" d="M221.187,337.115c-3.536,0-6.725-2.443-7.532-6.036l-7.181-31.997
		c-0.934-4.164,1.684-8.297,5.847-9.231c4.163-0.935,8.297,1.684,9.231,5.847l7.181,31.997c0.934,4.164-1.684,8.297-5.847,9.231
		C222.317,337.054,221.747,337.115,221.187,337.115z"/>
	<path style="fill:#585E60;" d="M442.617,416.146c-3.211,0-6.21-2.017-7.309-5.225l-8.424-24.605
		c-1.382-4.037,0.771-8.431,4.807-9.813c4.037-1.381,8.431,0.77,9.813,4.807l8.424,24.605c1.382,4.037-0.771,8.431-4.807,9.813
		C444.292,416.011,443.447,416.146,442.617,416.146z"/>
</g>
<g>
	<path style="fill:#A7F9E9;" d="M365.322,472.531h-97.424c-4.268,0-7.726-3.459-7.726-7.726s3.459-7.726,7.726-7.726h97.424
		c4.268,0,7.726,3.459,7.726,7.726S369.59,472.531,365.322,472.531z"/>
	<path style="fill:#A7F9E9;" d="M348.368,96.252c-4.268,0-7.726-3.459-7.726-7.726v-0.963c0-4.268,3.459-7.726,7.726-7.726
		s7.726,3.459,7.726,7.726v0.963C356.095,92.793,352.636,96.252,348.368,96.252z"/>
	<path style="fill:#A7F9E9;" d="M427.096,55.884c-4.268,0-7.726-3.459-7.726-7.726v-0.963c0-4.268,3.459-7.726,7.726-7.726
		s7.726,3.459,7.726,7.726v0.963C434.822,52.426,431.364,55.884,427.096,55.884z"/>
	<path style="fill:#A7F9E9;" d="M451.588,147.556c-4.268,0-7.726-3.459-7.726-7.726v-0.964c0-4.268,3.459-7.726,7.726-7.726
		s7.726,3.459,7.726,7.726v0.964C459.314,144.097,455.856,147.556,451.588,147.556z"/>
	<path style="fill:#A7F9E9;" d="M232.886,96.733c-4.268,0-7.726-3.459-7.726-7.726v-0.963c0-4.268,3.459-7.726,7.726-7.726
		s7.726,3.459,7.726,7.726v0.963C240.613,93.274,237.154,96.733,232.886,96.733z"/>
	<path style="fill:#A7F9E9;" d="M66.951,71.979c-4.268,0-7.726-3.459-7.726-7.726V63.29c0-4.268,3.459-7.726,7.726-7.726
		s7.726,3.459,7.726,7.726v0.963C74.678,68.52,71.219,71.979,66.951,71.979z"/>
	<path style="fill:#A7F9E9;" d="M324.995,118.177c-4.268,0-7.726-3.459-7.726-7.726v-0.963c0-4.268,3.459-7.726,7.726-7.726
		c4.268,0,7.726,3.459,7.726,7.726v0.963C332.721,114.719,329.263,118.177,324.995,118.177z"/>
	<path style="fill:#A7F9E9;" d="M89.127,124.594c-4.268,0-7.726-3.459-7.726-7.726v-0.963c0-4.268,3.459-7.726,7.726-7.726
		c4.268,0,7.726,3.459,7.726,7.726v0.963C96.854,121.135,93.395,124.594,89.127,124.594z"/>
	<path style="fill:#A7F9E9;" d="M27.741,125.907c-4.268,0-7.726-3.459-7.726-7.726v-0.945c0-4.268,3.459-7.726,7.726-7.726
		s7.726,3.459,7.726,7.726v0.945C35.467,122.448,32.009,125.907,27.741,125.907z"/>
</g>
<g>
</g>
<g>
</g>
<g>
</g>
<g>
</g>
<g>
</g>
<g>
</g>
<g>
</g>
<g>
</g>
<g>
</g>
<g>
</g>
<g>
</g>
<g>
</g>
<g>
</g>
<g>
</g>
<g>
</g>
</svg>
