<svg id="Capa_1" enable-background="new 0 0 497 497" height="512" viewBox="0 0 497 497" width="512" xmlns="http://www.w3.org/2000/svg"><path d="m437 302 60 45v30.001l-30 45 30 45v22.499c0 4.142-3.358 7.5-7.5 7.5h-22.5l-30-30z" fill="#7d3826"/><path d="m467 310.5h-422l-45 36.5v142.5c0 4.142 3.358 7.5 7.5 7.5h459.5z" fill="#a94525"/><path d="m467 377.001-45 45 45 45h30v-90z" fill="#3193e0"/><path d="m293.5 376.988c-24.853 0-45 20.147-45 45s20.147 45 45 45l173.5.013v-90z" fill="#26abff"/><path d="m497 209.97-60 30 30-119.97h22.5c4.142 0 7.5 3.358 7.5 7.5z" fill="#5b3364"/><path d="m166.228 164.2c-2.61-7.83-11.49-14.23-19.74-14.23l-31.43.01v89.99h76.43z" fill="#3b7bc1"/><path d="m124.74 134.2c-2.61-7.83-11.49-14.23-19.74-14.23l-31.43.01v119.99l76.43-30z" fill="#5b3364"/><path d="m93.12 134.2 25.26 75.77-44.81 30-73.57-30v-82.472c0-4.141 3.357-7.499 7.498-7.5l66.072-.018c5.37.07 11 2.82 14.96 6.91 2.07 2.14 3.7 4.64 4.59 7.31z" fill="#504b83"/><path d="m330.773 164.2c2.61-7.83 11.49-14.23 19.74-14.23l31.43.01v89.99h-76.43z" fill="#3b7bc1"/><path d="m392.001 119.97c-8.25 0-17.13 6.4-19.74 14.23l-25.26 75.77 120 45v-134.97z" fill="#504b83"/><path d="m437 284.056 60-30v-44.088h-30z" fill="#7cf0ee"/><path d="m467 290.556h-422l-45-36.5v-44.088h467z" fill="#bdf7f7"/><path d="m435.786 254.069c-12.435 0-23.588-5.458-31.214-14.101-7.626 8.643-18.78 14.101-31.214 14.101s-23.588-5.458-31.214-14.101c-7.626 8.643-18.78 14.101-31.214 14.101s-23.588-5.458-31.214-14.101c-7.626 8.643-18.78 14.101-31.214 14.101s-23.588-5.458-31.214-14.101c-7.626 8.643-18.78 14.101-31.214 14.101s-23.588-5.458-31.214-14.101c-7.626 8.643-18.78 14.101-31.214 14.101s-23.588-5.458-31.214-14.101c-7.626 8.643-18.78 14.101-31.214 14.101s-23.591-5.458-31.218-14.101c-7.377 8.36-18.055 13.741-30 14.084v92.948h467l15-29.991v-47.05l-15-29.991c-7.626 8.643-18.779 14.101-31.214 14.101z" fill="#3b7bc1"/><path d="m497 254.056c-11.945-.343-22.623-5.725-30-14.088v107.064h30z" fill="#4663a2"/><path d="m248.5 0v120c33.137 0 60-26.863 60-60s-26.863-60-60-60z" fill="#ffa630"/><path d="m278.5 60c0-33.137-13.431-60-30-60-33.137 0-60 26.863-60 60s26.863 60 60 60c16.569 0 30-26.863 30-60z" fill="#ffc938"/><g fill="#d45223"><path d="m30 459.5c-4.143 0-7.5-3.358-7.5-7.5v-15c0-4.142 3.357-7.5 7.5-7.5s7.5 3.358 7.5 7.5v15c0 4.142-3.357 7.5-7.5 7.5z"/><path d="m60 474.5c-4.143 0-7.5-3.358-7.5-7.5v-15c0-4.142 3.357-7.5 7.5-7.5s7.5 3.358 7.5 7.5v15c0 4.142-3.357 7.5-7.5 7.5z"/><path d="m218.5 459.488c-4.143 0-7.5-3.358-7.5-7.5v-15c0-4.142 3.357-7.5 7.5-7.5s7.5 3.358 7.5 7.5v15c0 4.143-3.357 7.5-7.5 7.5z"/><path d="m188.5 444.488c-4.143 0-7.5-3.358-7.5-7.5v-15c0-4.142 3.357-7.5 7.5-7.5s7.5 3.358 7.5 7.5v15c0 4.143-3.357 7.5-7.5 7.5z"/><path d="m90 399.5c-4.143 0-7.5-3.358-7.5-7.5v-15c0-4.142 3.357-7.5 7.5-7.5s7.5 3.358 7.5 7.5v15c0 4.142-3.357 7.5-7.5 7.5z"/></g></svg>