<svg id="Layer_1" enable-background="new 0 0 512 512" height="512" viewBox="0 0 512 512" width="512" xmlns="http://www.w3.org/2000/svg"><g><g><path d="m252.317 213h-222.378c-5.886 0-11.229-3.443-13.66-8.804s-1.503-11.648 2.375-16.077l111.189-127c2.848-3.253 6.962-5.119 11.286-5.119s8.438 1.866 11.286 5.119l111.189 127c3.877 4.429 4.806 10.716 2.375 16.077-2.433 5.361-7.776 8.804-13.662 8.804z" fill="#595454"/></g><g><path d="m481.939 213h-222.378c-5.886 0-11.229-3.443-13.66-8.804s-1.503-11.648 2.375-16.077l111.189-127c2.847-3.253 6.961-5.119 11.285-5.119s8.438 1.866 11.286 5.119l111.189 127c3.877 4.429 4.806 10.716 2.375 16.077s-7.775 8.804-13.661 8.804z" fill="#454040"/></g><g><path d="m385.939 213h-260c-5.612 0-10.754-3.133-13.329-8.119s-2.15-10.993 1.1-15.568l130-183c2.814-3.96 7.371-6.313 12.229-6.313s9.415 2.353 12.229 6.313l130 183c3.25 4.575 3.674 10.582 1.1 15.568s-7.717 8.119-13.329 8.119z" fill="#6b5c59"/></g><path d="m398.167 189.313-130-183c-2.813-3.96-7.37-6.313-12.228-6.313v213h130c5.612 0 10.754-3.133 13.329-8.119s2.149-10.993-1.101-15.568z" fill="#4f4540"/><path d="m496.57 512h-33.781l-155.808-71.553-115.951 71.553h-175.6c-8.488 0-15.369-6.881-15.369-15.369v-298.262c0-8.488 6.881-15.369 15.369-15.369h481.14c8.488 0 15.369 6.881 15.369 15.369v298.262c0 8.488-6.881 15.369-15.369 15.369z" fill="#bee75e"/><path d="m496.57 183h-240.632v288.945l51.043-31.498 155.808 71.553h33.781c8.488 0 15.369-6.881 15.369-15.369v-298.262c0-8.488-6.881-15.369-15.369-15.369z" fill="#00cb75"/><path d="m434.135 431.441c-19.531-24.369-46.679-47.015-72.934-68.915-41.042-34.235-83.48-69.636-80.973-100.16 1.709-20.818 25.451-44.325 68.656-67.979 2.425-1.327 9.718-5.869 17.671-11.387h-190.103c-43.592 23.368-68.79 51.887-76.568 86.461-14.7 65.34 39.757 130.256 75.792 173.213 10.521 12.54 19.606 23.371 24.398 31.066 5.884 9.447 6.958 17.453-4.965 30.421-2.015 2.192-3.39 4.917-4.078 7.839h271.759c2.908-26.495-6.515-52.936-28.655-80.559z" fill="#bcfbff"/><path d="m434.135 431.441c-19.531-24.369-46.679-47.015-72.934-68.915-41.042-34.235-83.48-69.636-80.973-100.16 1.709-20.818 25.451-44.325 68.656-67.979 2.425-1.327 9.718-5.869 17.671-11.387h-110.617v329h206.851c2.909-26.495-6.514-52.936-28.654-80.559z" fill="#7dd5f4"/></g></svg>