<svg id="Iceland" xmlns="http://www.w3.org/2000/svg" viewBox="0 0 189.18 289.28"><defs><style>.cls-1{fill:#fff;stroke:#000;stroke-miterlimit:10;stroke-width:6px;}.cls-2{fill:none;}</style></defs><title>ICETRUST_logo</title><path class="cls-1" d="M373.23,329.54a3,3,0,0,1-1.4-.35l-88.59-46.87a3,3,0,0,1-1.6-2.65V49.26a3,3,0,0,1,3-3H461.82a3,3,0,0,1,3,3V279.67a3,3,0,0,1-1.6,2.65l-88.59,46.87A3,3,0,0,1,373.23,329.54Z" transform="translate(-278.64 -43.26)"/><path d="M435.45,197.76h.05l-6.28,3.88.92,2.17-1.41,1.89-1.21.43-.62,1,1.62.83-.57,1,2.84.79,2.39-1.19,1.59,2.74-3.87,7.79,1.44-1.15-.81,2,6.75-2.08.45.49-.8,2.39,1.56,1.35-1.12.53-2.88,5.23,3.67-5.32,1.48.92-.78-1.13,3.47,1.91,1.69-.39.12,1.46.66.11,0,1.08.45.66.65-1,1.78,1.16-.34,2.75-.55.71-.19,1.39-2,.28,1.42.64-.25.84-3.35,1.55,4.23-1.13.42.13,1.25,1.39-6.5,2,5.73,0-.28,1.32-1.44.47v.25l1-.2.29.39-.47.49.87.48,1.42-2.32,0,2.44.16.27-.25,1.18-1.13.61.29.92-2.87.5-.32-.83-2.94-2.18.52,1-3.36.67v.25l4.68.76,2.77,2.59-5-.21,4,2.57-.88.76-1.45-.53-.41.37,1.79,1.24-2.47-.12-.46.52.87,1.45-4,1.38-2-2.78-.63-.26-.06.68.35.72.78.3.18,1.17,1.42,1-.1.72-1.85-.63-1.16.42,1.15,1.49-2.48.68,1.31,1.42,2-2-2.66,6.42-2.89.9,2.49-1.1-2-.45-.1.69-2.55,2.85.2-.87-.83,1.08.31.45.49-.24.2.89-1.61.61L428,267.43l-.53.4H427l-.1.43-.67.21.28-1.07-.72.11-.52-1.25.23,1.3-.75-.47v-.39l-.47-.43-.45,0,.22,1.57-.57.54-.57-.12-.48.21.89.28L420,270l-.1-.29-1.67,1.44,1.41-.23-4.6,2,.69.1-2.46,2.21-.48-.07.16.46-1.15.79.05-.41-1.32,1.51.58-.28-2.61,3.11.47-.84-2.22,1.78-2.24.15.47.44-.49.21-.15,1.31-1-1.82-.43-.14-.1,2-.41-2,0,2.22-.49.24,0-2.57-.7.27-.08.44.48,1.21-1.75.43-.72-.45-.38.35h-.14l-.05-.54-4.94,2,.16-1.06-.46.74-.24-.16,0,.59-1.73,1.28-1.09,1.19-.59,1.06-.52.28-.12-.19-.52-.11,0,.25-.49.1.19.67,1.24-.19-4.67,4.32-.48-.69,1.53-1.36-2.69-.43-.19.53.83,2.1,1.15.11-12.42,1.39.13-.18-1-.45-.28.4-8.24-3.39.28-.31-.35-.15-.41.25-1.34-.24,0,.16,1.4.29-4.11-.46-.2-.19.09.45-3.88-2.21.82,0-.66-.22.07-.63-.52.48-.52-.48.5.18-1.49-1.77.65,1.33L352,285.85l.92-1.37,2.38,1-1.83-1.73.33-1.73-2.17,4.09-2.74-1.91,1.55.43.75-.22-.1-.25-.31,0,.24-.43-1.41.2.67-1.49-.29-.94-.82,1.6-1.12.18.18.66L343,279.18l2-.43-2.14-.37-1.43,1.26,1.28,1.09-1.44-.24-.6,1.13-4.46.62-1-.9-7.86.13-1.14.79-.34-.22.2-.22-3.84,1.32-.6-.68.44-3.69.74-.09-.11-.37-1,0,0-3.85.2-.22.18.06,1.85,2.65-.19.4,2.58.19.31-.92,1.5-.65.48.35,3.09-1.68.35.23-1.06-.9.74-.39.63.17.43-.41h-.3l.27-.21-1.78-1.13.61-.22,2.68.91.31-.22-.55-.22.36-.43-.06-.26.77,0,.64-.61-.77.3.67-1-1.41,0-.28-.84-.83.3-.54-.13,2.46-3.55,1.38-.12-.47-.26,1.27-.65,1.41.4.58-.34-.44-.32.49-.37-2.67-.17-4.51,3.27-1.91-.52,1.93-1.95.3.18,1.16-.61-2.13.15-.38-.65.16-1.39.43-.2.72-1.91,2.32-1-.55-.44,2.38-1.83-.05.64,1.26.55-.82-.9.58-.43h-1.46l2.45-.89-1.92-.09-.83.48.65-1.06-2.82,2.86.1.47-2.27,1.18-.22-.31.13-1.06-.23,0-.77,3.07-1.05.37-.75-1.3-.47.44.37-2-.37-.26.19-.66-1,.63-.69-.77.3-1.09-1.35-1.71,1.07.77.36-.29h-.29l.57-.9-.2-.48-1,.51-.25-.26,1.46-2.25-1.64-.4.19-.47-.29,0,.45-1.31-.44.62-.21-.39-.28.39-1.18.08-.36.41.25.43-1.55.08.47-.59-1.81-.36,1,.81-9.42-1.43-.83.7-1.77-.37.37-.18-.92.41-.87,2-3.15.18L303.09,248l.31.29,2.18-1.31,3.4.88.42-.51.54,0,1.39-1.1,1.12.22-.19-.71.76.21-.07.35.18.25.36-.38.12,1,.27-.34.22.19.38-2.49.94-.57,1.13.19-.67.9.09.42-.33.94.65.86.26-1.63.32-.21.13-.59.85-.61.64.82,2.26-1.38-1.23.05,2-1.4.5.23-.81,1.09.86-.2,1.57,1.78-.7-1.09.86-.71,0-.42,5.7.7,1.16-.51,1.22.51.28-.25,1.95-.07.35-.67-.6-.34,1.53-3.73-.61-.91-.81.56,0,.3-2.69,2.13L323.94,239l1-.53h-.83l7.86-7.1.69.47-.19-.74,3.57-1.53-3.93.43.57-.94-.77-1.37-.78.24-.11.7-.79-1.63-1.46,3.27-2.34-2,.41-.75,2.79-1.26.65-1.62-1.57,1.77-1.8.51.87-1-1.29.67-.54-.28-.72,1.31-.28-.06-.83-4.14-.59,3.32-.56-1-.15,1-.28.32-.19-.17-.14-3.19-.76-.13-.37.36.57,4-.88-.24-.08-.76-.76,0-.1-.37-.49,0,1.36-1.66-.87-.91-.76,1.78-.57-1.54-.32,1.77-.62.42-1.41,0-.49-1.23-.68,1.12.19,1.13-1.36,1-1.6-.93-.3.16.14.21-3.41,1-.81,1.6-3.2.64-.57-.39.08-.52-.36-.65.36.09.16-.48-7.93-1.4,2.22-2.27.23-1.56,1.44-.4,4.58,3.35,1.65-.13-3.91-3.84,3.91,1.4L302,218.2l.77-.52,6.75,4,0,2.28,1.17-.95.27.37,1.3-.08-.27-.75,1.72-.68-2.12,0-1.4-1.45,4.34-.9-.38-.28.86-.92-7.49.32L305.68,215l.41-1.26,8.78,2.57-8.55-6.61.81-1.28,4.69,1.58.62,1.36-4-4.48,3.71.73-1.94-1.43h-.47l-.23-.8,1.5-1.29,4,1.44,1.22,2.82.92-1.23.84,2.47-1.1,2.49,1.8-2.86.42,1.46.73-.73-1.26,2.81,1.08-.69.63-1.27,0,3.2.78-5,1,.18,1.21,1.85-.65,5.74,1.61-4.92,1.14,1.15.1,1.22.27-.79-.66,3.13,1.56-2.59L325,209.94l.65-1.65.44-.12.32-.55-1.39.68-6.33-3.85-.58-1.54,2.72-1,2.45.55.56.83.2.05.19-.21-.29-.73,2.67-.93-2.76-.16,1.32-1.1-.41-.29-.47.4-2.49.44,1.45-2.57L320.12,200l.44-1.71-1.9,2.26-3.3-1.39-.24-.35.88-.42,1.11.11.31-1.06L315.9,196l.43-.36,1.3.84-.25-.69,1.81.16.19.35.33,0-1.24-1.41,3.4,1.49.95-.31.4-1,.52-.23,2,1.41-.56-1.37,2.73,3.14.15,1,.86.5-.4.53.12,1.72,1.27,0,.52-.78.05.76,1.55-.19.77,1.16-1,.94.72-.22,2.66,1.21.57,3.8.71-.17-.2,2,.73-.89-.31-1.2,1-.45.69.9,0,1.69,1.46-.25,1.29,1.34-4,1,.27.48,2.88-.65-.8,1.08,1.9.05-.38,1.8.5,1.37L339,219l2,.81-1.81,1.68-2.24-.83-.66-1.54-1.39-.2,3,4.32,1.27-.12.87.75-1.13,2,2.25-1.38.19,2.23-2.33,3,2.42-1.06,3,10.48,0-9.85,2.47,3.85-.42-7.87,3.48-3.51,0-.32.87.47-.19,4.51.38-.14.07-1.47.37,1.9,1.7,1.2.36-1.61-.52-.66-.82-.31,1.71-.64.23,2.27,1-4.23.6-.3-.37-.9.41-1-.85-3.82.27-.77-1.55-7.87,3.28-1.57.73.14.63-.23,3,7.75,1.85.83,2.58,4.91.15-.87,1.34.5-.19.64.58-.65-1.24-7.34,1.36-1.51-.49-1.44,1.21-1.33,2.85.3v-.58l.46-.26-.08.46,1,.73-.44-1.19.56-2.28,1.94-.51-.1,1.14.66-1.7,1.33.29-.38,1.79,1.16-1.12,1,.74-.19,2.12.89-.5,1,2.07-.27,2.37,2.76,1,1.23,2.51.24,0,2.46,7.68-.5-4.5.3-.56-.31-3.46-.74-1-.3.4-1.93-8.58,1.65-.54,3.94,1,.47,1.18.72,0,3.9,7-.43-2.11,1.15-.48-1.58-.11,1.65-.16,1,1.19,3.85-8.94.87.32,1.9,3.22,3.17-.92-.85.49.42.63.77-1.13,1.4,1.71-1.2-2.44,2.43-1.12-1.63,1.15,2.64.64-.56-2.11.7-1.6-1.35-8.8.3.7,1-1.13.22.68.52-.42.36.06.42,1,1.09-1.19.44.49.94-1.11,1.66-.1,1.81,1.49-.51,2.47,1.4,0-.06.72,2,.94-1.08,3.51.76.51.41,1L424,205.8l.68-3.59,2-.47,4.31-4.17,4.47.18Zm-48.05-6.34.46.56-.33.52-.24-.41,0-.57ZM356,294.53l.13.47-.38.83-.1-.12-.22-1.23.61-.17,0,.05Zm26.58-83.32v.4l-.18.12-.37-.39-.25-1.17.08-.13Z" transform="translate(-278.64 -43.26)"/><path d="M296.34,134.33V61h12.87v73.37Z" transform="translate(-278.64 -43.26)"/><path d="M321.64,97.7c0-22.66,16.83-38,38.5-38,14.74,0,24,7.59,29.37,16.39l-10.89,5.72a21.69,21.69,0,0,0-18.48-10.67c-14.52,0-25.3,11-25.3,26.51,0,15.29,10.78,26.51,25.3,26.51a21.93,21.93,0,0,0,18.48-10.67l11,5.5c-5.61,8.8-14.74,16.61-29.48,16.61C338.47,135.65,321.64,120.25,321.64,97.7Z" transform="translate(-278.64 -43.26)"/><path d="M399.85,134.33V61h50.27V72.29h-37.4V91.21h36.63v11.33H412.72V123h37.4v11.33Z" transform="translate(-278.64 -43.26)"/><path d="M306.56,179.71V151.19H296.34V146h26.35v5.21H312.48v28.52Z" transform="translate(-278.64 -43.26)"/><path d="M347,179.71l-7.43-12.59h-5.92v12.59H327.7V146h14.82c6.68,0,11.08,4.3,11.08,10.57,0,6-3.94,9.25-8,9.91l8.29,13.25Zm.56-23.21c0-3.24-2.43-5.31-5.76-5.31h-8.14v10.72h8.14C345.09,161.91,347.52,159.79,347.52,156.5Z" transform="translate(-278.64 -43.26)"/><path d="M359.5,166.36V146h6v20.23c0,5.36,3,8.85,8.6,8.85s8.6-3.49,8.6-8.85V146h6v20.38c0,8.34-4.8,14-14.62,14S359.5,174.71,359.5,166.36Z" transform="translate(-278.64 -43.26)"/><path d="M393.74,175l3.34-4.6a14.49,14.49,0,0,0,10.67,4.7c4.86,0,6.73-2.38,6.73-4.65,0-7.08-19.62-2.68-19.62-15.07,0-5.61,4.85-9.91,12.29-9.91a17.46,17.46,0,0,1,12.59,4.75l-3.34,4.4a13.75,13.75,0,0,0-9.81-3.89c-3.44,0-5.66,1.72-5.66,4.2,0,6.32,19.62,2.43,19.62,15,0,5.61-4,10.47-13,10.47C401.27,180.32,396.77,178.1,393.74,175Z" transform="translate(-278.64 -43.26)"/><path d="M434,179.71V151.19H423.78V146h26.35v5.21H439.91v28.52Z" transform="translate(-278.64 -43.26)"/><polygon class="cls-2" points="183.18 6 183.18 236.41 94.59 283.28 6 236.41 6 6 183.18 6"/></svg>