<?xml version="1.0" encoding="utf-8"?>
<!-- Generator: Adobe Illustrator 21.1.0, SVG Export Plug-In . SVG Version: 6.00 Build 0)  -->
<svg version="1.1" id="Iceland" xmlns="http://www.w3.org/2000/svg" xmlns:xlink="http://www.w3.org/1999/xlink" x="0px" y="0px"
	 viewBox="0 0 578.5 113.5" style="enable-background:new 0 0 578.5 113.5;" xml:space="preserve">
<style type="text/css">
	.st0{fill:#F0F0F0;}
</style>
<title>ICETRUST_banner</title>
<path class="st0" d="M257.7,20.6L257.7,20.6l-4.8,3l0.7,1.6l-1.1,1.4l-0.9,0.3l-0.5,0.8l1.2,0.6l-0.4,0.8l2.2,0.6l1.8-0.9l1.2,2.1
	l-3,5.9l1.1-0.9l-0.6,1.6l5.1-1.6l0.3,0.4l-0.6,1.8l1.2,1l-0.9,0.4l-2.2,4l2.8-4.1l1.1,0.7l-0.6-0.9l2.6,1.5l1.3-0.3l0.1,1.1
	l0.5,0.1v0.8l0.3,0.5l0.5-0.7l1.4,0.9l-0.3,2.1l-0.4,0.5l-0.1,1.1l-1.5,0.2l1.1,0.5l-0.2,0.6l-2.6,1.2l3.2-0.9l0.3,0.1l1,1.1l-5,1.5
	h4.4l-0.2,1l-1.1,0.4v0.2l0.8-0.1l0.2,0.3l-0.4,0.4l0.7,0.4l1.1-1.8v1.9l0.1,0.2l-0.2,0.9l-0.9,0.5l0.2,0.7l-2.2,0.4l-0.2-0.6
	l-2.2-1.7l0.4,0.7l-2.6,0.5v0.2l3.6,0.6l2.1,2L263,58l3,2l-0.7,0.6l-1.1-0.4l-0.3,0.3l1.4,1l-1.9-0.1l-0.4,0.4l0.7,1.1l-3,1
	l-1.5-2.1l-0.5-0.2v0.5l0.3,0.5l0.6,0.2l0.1,0.9l1.1,0.8l-0.1,0.5l-1.4-0.5l-0.9,0.3l0.9,1.1l-1.9,0.5l1,1.1l1.6-1.6l-2,4.9
	l-2.2,0.7l1.9-0.8l-1.6-0.3l-0.1,0.5l-1.9,2.2l0.1-0.7l-0.6,0.8l0.2,0.4l0.4-0.2l0.2,0.7l-1.2,0.5l-1.1-0.9l-0.4,0.3h-0.4l-0.1,0.3
	l-0.5,0.2l0.2-0.8l-0.5,0.1l-0.4-1l0.2,1l-0.6-0.4v-0.3l-0.4-0.3h-0.3l0.2,1.2l-0.4,0.4l-0.4-0.1l-0.4,0.2l0.7,0.2l-2.5,0.9
	l-0.1-0.2l-1.3,1.1l1.1-0.2l-3.5,1.5l0.5,0.1l-1.9,1.7h-0.4l0.1,0.4l-0.9,0.6v-0.3l-1,1.1l0.4-0.2l-2,2.4l0.4-0.6l-1.7,1.4l-1.7,0.1
	l0.4,0.3l-0.4,0.2l-0.1,1l-0.7-1.4l-0.3-0.1l-0.1,1.5l-0.3-1.6V86l-0.4,0.2v-2l-0.5,0.2l-0.1,0.3l0.4,0.9l-1.3,0.3l-0.5-0.3
	l-0.3,0.3h-0.1v-0.4l-3.9,1.6l0.1-0.8l-0.4,0.6l-0.2-0.1v0.5l-1.3,1l-0.8,0.9l-0.5,0.8l-0.4,0.2l-0.1-0.1l-0.4-0.1v0.2l-0.4,0.1
	l0.1,0.5l0.9-0.1l-3.6,3.3l-0.4-0.5l1.2-1l-2-0.3l-0.1,0.4l0.6,1.6l0.9,0.1l-9.5,1.1l0.1-0.1l-0.7-0.3l-0.2,0.3l-6.3-2.6l0.2-0.2
	l-0.3-0.1l-0.3,0.2l-1-0.2v0.1l1.1,0.2l-3.1-0.4l-0.1-0.1l0.1,0.4l-3-1.7h0.6l-0.5-0.2l0.1-0.5l-0.4,0.4l-0.4-0.4l0.4,0.1l-1.1-1.4
	l0.5,1l-1.2-1.8l0.7-1l1.8,0.8l-1.4-1.3l0.3-1.3l-1.7,3.1l-2.1-1.5l1.2,0.3l0.6-0.2l-0.1-0.2h-0.2l0.2-0.3l-1.1,0.1l0.5-1.1
	l-0.2-0.7l-0.6,1.2l-0.9,0.1l0.1,0.5l-3.9-3.7l1.5-0.3l-1.6-0.3l-1.1,1l1,0.8l-1.1-0.2l-0.5,0.9l-3.4,0.5l-0.8-0.7l-6,0.1l-0.9,0.6
	l-0.3-0.2l0.1-0.2l-2.9,1l-0.5-0.5l0.3-2.8l0.6-0.1l-0.1-0.3H171v-2.9l0.2-0.2h0.1l1.4,2l-0.1,0.3l2,0.1l0.2-0.7l1.1-0.5l0.4,0.3
	l2.4-1.3l0.3,0.2l-0.8-0.7l0.6-0.3l0.5,0.1l0.3-0.3h-0.2l0.2-0.2l-1.4-0.9l0.5-0.2l2,0.7l0.2-0.2l-0.4-0.2l0.3-0.3v-0.2h0.6l0.5-0.5
	l-0.6,0.2l0.5-0.8h-1.1l-0.2-0.6l-0.6,0.2l-0.4-0.1l1.9-2.7l1-0.1l-0.4-0.2l1-0.5l1.1,0.3l0.4-0.3l-0.3-0.2l0.4-0.3l-2-0.1l-3.4,2.5
	l-1.5-0.4l1.5-1.5l0.2,0.1l0.9-0.5l-1.6,0.1l-0.3-0.5l0.1-1.1l0.3-0.1l0.5-1.5l1.8-0.7l-0.4-0.3l1.8-1.4v0.5l1,0.4l-0.6-0.7l0.4-0.3
	h-1.1l1.9-0.7l-1.5-0.1l-0.6,0.4l0.5-0.8l-2.1,2.2l0.1,0.4l-1.7,0.9l-0.2-0.2l0.1-0.8h-0.2l-0.6,2.3l-0.8,0.3l-0.6-1l-0.4,0.3
	l0.3-1.5l-0.3-0.2l0.1-0.5l-0.8,0.5l-0.5-0.6l0.2-0.8l-1-1.3l0.8,0.6l0.3-0.2h-0.2l0.4-0.7l-0.1-0.4l-0.8,0.4l-0.2-0.2l1.1-1.7
	l-1.2-0.3l0.1-0.4h-0.2l0.4-1l-0.3,0.5l-0.2-0.3l-0.2,0.3l-0.9,0.1l-0.3,0.3l0.2,0.3l-1.2,0.1l0.4-0.5l-1.4-0.3l0.7,0.6l-7.4-1
	l-0.6,0.5l-1.4-0.3l0.3-0.1l-0.7,0.3l-0.7,1.5l-2.4,0.1l-1.7-4l0.2,0.2l1.7-1l2.6,0.7l0.3-0.4h0.4l1.1-0.8l0.9,0.2l-0.1-0.5l0.6,0.2
	l0,0.3l0.1,0.2l0.3-0.3l0.1,0.8l0.2-0.3l0.2,0.1l0.3-1.9l0.7-0.4L167,56l-0.5,0.7l0.1,0.3l-0.2,0.7l0.5,0.6l0.2-1.2l0.2-0.2l0.1-0.5
	l0.6-0.5l0.5,0.6l1.7-1h-0.9l1.5-1.1l0.4,0.2l-0.6,0.8l0.6-0.1l1.2,1.4l-0.5-0.8l0.7-0.5v-0.3l4.4,0.5l0.9-0.4l0.9,0.4l0.2-0.2
	l1.5,0l0.3-0.5l-0.5-0.3l1.2-2.9l-0.5-0.7l-0.6,0.4v0.2l-2,1.6l-5.6-1.2l0.7-0.4h-0.6l6-5.4l0.5,0.4l-0.1-0.6l2.7-1.2l-3,0.3
	l0.4-0.7l-0.6-1l-0.6,0.2l-0.1,0.5l-0.6-1.2l-1.1,2.5l-1.8-1.5l0.3-0.6l2.1-1l0.5-1.2l-1.2,1.4l-1.4,0.4l0.7-0.8l-1,0.5l-0.4-0.2
	l-0.5,1h-0.2l-0.6-3.2l-0.5,2.5l-0.4-0.8l-0.1,0.7l-0.2,0.2l-0.1-0.1l-0.1-2.4l-0.6-0.1l-0.3,0.3l0.4,3.1l-0.7-0.2l-0.1-0.6h-0.6
	l-0.1-0.3h-0.4l1-1.3l-0.7-0.7l-0.6,1.4l-0.4-1.2l-0.2,1.4l-0.5,0.3h-1.1l-0.4-0.9l-0.5,0.9l0.1,0.9l-1,0.8l-1.2-0.7l-0.2,0.1
	l0.1,0.2l-2.6,0.7l-0.6,1.2l-2.4,0.5l-0.4-0.3l0.1-0.4l-0.3-0.5l0.3,0.1l0.1-0.4l-6-1.1l1.7-1.7l0.2-1.2l1.1-0.3l3.5,2.5l1.3-0.1
	l-3-2.9l3,1.1l-3.5-4.7l0.6-0.4l5.1,3.1v1.7l0.9-0.7l0.2,0.3l1-0.1l-0.2-0.6l1.3-0.5h-1.5l-1.1-1.1l3.3-0.7l-0.3-0.2l0.7-0.7
	l-5.7,0.2l-1.5-2.8l0.3-1l6.7,2l-6.5-5l0.6-1l3.6,1.2l0.5,1l-3.1-3.4l2.8,0.5l-1.5-1.1h-0.4l-0.2-0.6l1.1-1l3.1,1.1l0.9,2.1l0.7-0.9
	l0.6,1.9l-0.8,1.9l1.4-2.2l0.3,1.1l0.5-0.6l-1,2.1l0.8-0.5l0.5-1V33l0.6-3.8l0.7,0.1l0.9,1.4l-0.5,4.4l1.2-3.8l0.9,0.9l0.1,0.9
	l0.2-0.6l-0.5,2.4l1.2-2l-1.3-3.1l0.5-1.3l0.3-0.1l0.2-0.4l-1.1,0.5l-4.8-2.9l-0.4-1.2l2.1-0.8l1.9,0.4l0.4,0.6h0.1l0.1-0.2
	l-0.2-0.6l2-0.7l-2.1-0.1l1-0.8l-0.3-0.2l-0.4,0.3l-1.9,0.3l1.1-2l-2.4,1.4l0.3-1.3l-1.5,1.7l-2.5-1.1l-0.2-0.3l0.7-0.3l0.9,0.1
	l0.2-0.8l-1.2-1.1l0.3-0.3l1,0.6l-0.2-0.5l1.4,0.1l0.1,0.3h0.2l-0.9-1.1l2.6,1.1l0.7-0.2l0.3-0.8l0.4-0.2l1.6,1.1l-0.4-1l2.1,2.4
	l0.1,0.8l0.7,0.4l-0.3,0.4l0.1,1.3h1l0.4-0.6v0.6l1.2-0.1l0.6,0.9l-0.7,0.7l0.5-0.2l2,0.9l0.4,2.9l0.5-0.1l0,1.6l0.5-0.7l-0.2-0.9
	l0.8-0.3l0.5,0.7v1.3l1.1-0.2l1,1l-3,0.8l0.2,0.4l2.2-0.5l-0.6,0.8h1.5l-0.3,1.4l0.4,1l-2,1.9l1.5,0.6l-1.4,1.3l-1.7-0.6l-0.5-1.2
	l-1.1-0.2l2.3,3.3l1-0.1l0.7,0.6l-0.9,1.5l1.7-1l0.1,1.7l-1.8,2.3l1.9-0.8l2.3,8v-7.5l1.9,2.9l-0.3-6l2.7-2.7v-0.2l0.7,0.4l-0.1,3.4
	l0.3-0.1l0-1.1l0.3,1.5l1.3,0.9l0.3-1.2l-0.4-0.5l-0.6-0.2l1.3-0.5l0.2,1.7l0.8-3.2l0.5-0.2l-0.3-0.7l0.3-0.7l-0.6-2.9l0.2-0.6
	l-1.2-6l2.5-1.2l0.6,0.1l0.5-0.2l2.3,5.9l1.4,0.6l2,3.7l0.1-0.7l1,0.4l-0.1,0.5l0.4-0.5l-1-5.6l1-1.1l-0.4-1.1l0.9-1l2.2,0.2v-0.4
	l0.4-0.2l-0.1,0.4l0.8,0.6l-0.3-0.9l0.4-1.7l1.5-0.4l-0.1,0.9l0.5-1.3l1,0.2l-0.3,1.4l0.9-0.9l0.8,0.6l-0.1,1.6l0.7-0.4l0.8,1.6
	l-0.2,1.8l2.1,0.8l0.9,1.9h0.2l1.9,5.9l-0.4-3.4l0.2-0.4l-0.2-2.6l-0.6-0.8l-0.2,0.3l-1.5-6.5l1.3-0.4l3,0.7l0.4,0.9h0.5l3,5.3
	l-0.3-1.6l0.9-0.4l-1.2-0.1l1.3-0.1l0.7,0.9l2.9-6.8l0.7,0.2l1.5,2.5l2.4-0.7l-0.6,0.4l0.3,0.5l0.6-0.9l1.1,1.3l-0.9-1.9l1.9-0.9
	l-1.2,0.9l2,0.5l-0.4-1.6l0.5-1.2l-1-6.7l0.2,0.5l0.8-0.9l0.2,0.5l0.4-0.3h0.3l0.3,0.8l0.8-0.9l0.3,0.4l0.7-0.9l1.3-0.1l1.4,1.1
	l-0.4,1.9h1.1v0.6l1.5,0.7l-0.8,2.7l0.6,0.4l0.3,0.7l3.2,2.2l0.5-2.7l1.5-0.4l3.3-3.2l3.4,0.1L257.7,20.6z M221,15.8l0.4,0.4
	l-0.2,0.4l-0.2-0.3L221,15.8L221,15.8z M197,94.4l0.1,0.4l-0.3,0.6l-0.1-0.1l-0.2-0.9l0.5-0.1l0,0L197,94.4z M217.3,30.9v0.3
	l-0.1,0.1l-0.3-0.3l-0.2-0.9l0.1-0.1L217.3,30.9z"/>
<path class="st0" d="M0,90.1V23.4h11.7v66.7H0z"/>
<path class="st0" d="M23,56.8c0-20.6,15.3-34.5,35-34.5c13.4,0,21.8,6.9,26.7,14.9l-9.9,5.2c-3.5-6-9.9-9.6-16.8-9.7
	c-13.2,0-23,10-23,24.1c0,13.9,9.8,24.1,23,24.1c6.9-0.1,13.3-3.8,16.8-9.7l10,5c-5.1,8-13.4,15.1-26.8,15.1
	C38.3,91.3,23,77.3,23,56.8z"/>
<path class="st0" d="M94.1,90.1V23.4h45.7v10.3h-34v17.2h33.3v10.3h-33.3v18.6h34v10.3H94.1z"/>
<path class="st0" d="M294.6,90.1V33.7h-20.2V23.4h52.1v10.3h-20.2v56.4H294.6z"/>
<path class="st0" d="M374.5,90.1l-14.7-24.9h-11.7v24.9h-11.7V23.4h29.3c13.2,0,21.9,8.5,21.9,20.9c0,11.8-7.8,18.3-15.9,19.6
	l16.4,26.2L374.5,90.1z M375.6,44.2c0-6.4-4.8-10.5-11.4-10.5h-16.1v21.2h16.1C370.8,54.9,375.6,50.7,375.6,44.2z"/>
<path class="st0" d="M399.3,63.7V23.4h11.9v40c0,10.6,5.9,17.5,17,17.5s17-6.9,17-17.5v-40h11.9v40.3c0,16.5-9.5,27.6-28.9,27.6
	S399.3,80.2,399.3,63.7z"/>
<path class="st0" d="M467,80.7l6.6-9.1c5.4,5.9,13.1,9.3,21.1,9.3c9.6,0,13.3-4.7,13.3-9.2c0-14-38.8-5.3-38.8-29.8
	c0-11.1,9.6-19.6,24.3-19.6c10.3,0,18.8,3.4,24.9,9.4l-6.6,8.7c-5.2-5-12.2-7.8-19.4-7.7c-6.8,0-11.2,3.4-11.2,8.3
	c0,12.5,38.8,4.8,38.8,29.6c0,11.1-7.9,20.7-25.8,20.7C481.9,91.3,473,86.9,467,80.7z"/>
<path class="st0" d="M546.6,90.1V33.7h-20.2V23.4h52.1v10.3h-20.2v56.4H546.6z"/>
<path class="st0" d="M0,0h578.5v11.7H0V0z"/>
<path class="st0" d="M0,101.8h578.5v11.7H0V101.8z"/>
</svg>
