<svg version="1.1" viewBox="0.0 0.0 870.9081364829397 340.0" fill="none" stroke="none" stroke-linecap="square" stroke-miterlimit="10" xmlns:xlink="http://www.w3.org/1999/xlink" xmlns="http://www.w3.org/2000/svg"><clipPath id="p.0"><path d="m0 0l870.90814 0l0 340.0l-870.90814 0l0 -340.0z" clip-rule="nonzero"/></clipPath><g clip-path="url(#p.0)"><path fill="#000000" fill-opacity="0.0" d="m0 0l870.90814 0l0 340.0l-870.90814 0z" fill-rule="evenodd"/><path fill="#37474f" d="m4.1601048 59.90661l0 0c0 -30.287844 24.553148 -54.840992 54.840996 -54.840992l750.97943 0c14.544739 0 28.493774 5.777874 38.778442 16.062555c10.284668 10.284681 16.062561 24.233702 16.062561 38.778435l0 219.35739c0 30.287842 -24.553162 54.840973 -54.841003 54.840973l-750.97943 0l0 0c-30.287846 0 -54.840996 -24.553131 -54.840996 -54.840973z" fill-rule="evenodd"/><path fill="#000000" fill-opacity="0.0" d="m49.05512 91.45407l860.66144 0l0 208.15747l-860.66144 0z" fill-rule="evenodd"/><path fill="#ffffff" d="m60.33637 81.93281l0 -32.406254l4.281246 0l0 11.6875q1.15625 -1.125 2.59375 -1.921875q1.4375 -0.796875 3.203125 -0.796875q1.359375 0 2.09375 0.71875q0.75 0.71875 1.046875 1.796875q0.296875 1.078125 0.296875 2.203125l0 18.718754l-4.28125 0l0 -17.484375q0 -1.2343788 -0.359375 -1.9062538q-0.359375 -0.6875 -1.46875 -0.6875q-0.765625 0 -1.59375 0.4375q-0.8125 0.4375 -1.53125 1.078125l0 18.562504l-4.281246 0zm24.034359 0.3125q-2.5625 0 -4.046875 -1.03125q-1.46875 -1.046875 -2.09375 -2.953125q-0.609375 -1.921875 -0.609375 -4.53125l0 -6.71875q0 -2.59375 0.609375 -4.515629q0.625 -1.921875 2.09375 -2.953125q1.484375 -1.046875 4.046875 -1.046875q2.5625 0 4.015625 1.046875q1.46875 1.03125 2.078125 2.953125q0.625 1.9218788 0.625 4.515629l0 6.71875q0 2.609375 -0.625 4.53125q-0.609375 1.90625 -2.078125 2.953125q-1.453125 1.03125 -4.015625 1.03125zm0 -3.15625q1.25 0 1.75 -0.71875q0.5 -0.71875 0.59375 -1.890625q0.09375 -1.1875 0.09375 -2.46875l0 -7.234375q0 -1.328125 -0.09375 -2.484375q-0.09375 -1.1562538 -0.59375 -1.8906288q-0.5 -0.75 -1.75 -0.75q-1.234375 0 -1.765625 0.75q-0.515625 0.734375 -0.609375 1.8906288q-0.09375 1.15625 -0.09375 2.484375l0 7.234375q0 1.28125 0.09375 2.46875q0.09375 1.171875 0.609375 1.890625q0.53125 0.71875 1.765625 0.71875zm10.64061 2.84375l0 -23.125004l4.28125 0l0 2.28125q1.15625 -1.078125 2.5625 -1.828125q1.40625 -0.765625 3.078125 -0.765625q1.40625 0 2.140625 0.71875q0.734375 0.71875 1.03125 1.796875q0.3125 1.078125 0.3125 2.203125l0 18.718754l-4.28125 0l0 -17.484375q0 -1.2343788 -0.359375 -1.9062538q-0.359375 -0.6875 -1.484375 -0.6875q-0.71875 0 -1.5 0.421875q-0.78125 0.421875 -1.5 1.015625l0 18.640629l-4.28125 0zm23.919357 0.3125q-2.5625 0 -4.046875 -1.03125q-1.46875 -1.046875 -2.09375 -2.953125q-0.609375 -1.921875 -0.609375 -4.53125l0 -6.71875q0 -2.59375 0.609375 -4.515629q0.625 -1.921875 2.09375 -2.953125q1.484375 -1.046875 4.046875 -1.046875q2.5625 0 4.015625 1.046875q1.46875 1.03125 2.078125 2.953125q0.625 1.9218788 0.625 4.515629l0 6.71875q0 2.609375 -0.625 4.53125q-0.609375 1.90625 -2.078125 2.953125q-1.453125 1.03125 -4.015625 1.03125zm0 -3.15625q1.25 0 1.75 -0.71875q0.5 -0.71875 0.59375 -1.890625q0.09375 -1.1875 0.09375 -2.46875l0 -7.234375q0 -1.328125 -0.09375 -2.484375q-0.09375 -1.1562538 -0.59375 -1.8906288q-0.5 -0.75 -1.75 -0.75q-1.234375 0 -1.765625 0.75q-0.515625 0.734375 -0.609375 1.8906288q-0.09375 1.15625 -0.09375 2.484375l0 7.234375q0 1.28125 0.09375 2.46875q0.09375 1.171875 0.609375 1.890625q0.53125 0.71875 1.765625 0.71875zm13.968735 3.15625q-1.359375 0 -2.125 -0.71875q-0.765625 -0.71875 -1.0625 -1.796875q-0.296875 -1.078125 -0.296875 -2.203125l0 -18.718754l4.28125 0l0 17.437504q0 1.25 0.359375 1.953125q0.359375 0.6875 1.484375 0.6875q0.71875 0 1.5 -0.40625q0.78125 -0.421875 1.5 -1.03125l0 -18.640629l4.28125 0l0 23.125004l-4.28125 0l0 -2.28125q-1.125 1.078125 -2.546875 1.84375q-1.421875 0.75 -3.09375 0.75zm14.396866 -0.3125l0 -23.125004l4.28125 0l0 3.28125q1.28125 -2.109375 2.5625 -2.828125q1.28125 -0.734375 2.5625 -0.734375q0.15625 0 0.296875 0q0.140625 0 0.375 0.046875l0 4.71875q-0.484375 -0.203125 -1.109375 -0.34375q-0.609375 -0.140625 -1.25 -0.140625q-1.0 0 -1.828125 0.46875q-0.8125 0.453125 -1.609375 1.7812538l0 16.875l-4.28125 0zm18.074356 0.3125q-2.828125 0 -4.5625 -1.765625q-1.71875 -1.78125 -1.953125 -4.703125l3.5625 -1.078125q0.3125 2.1875 1.078125 3.296875q0.765625 1.09375 2.234375 1.09375q1.171875 0 1.765625 -0.65625q0.59375 -0.65625 0.59375 -1.78125q0 -1.0 -0.4375 -1.796875q-0.4375 -0.796875 -1.4375 -1.640625l-3.953125 -3.40625q-1.203125 -1.03125 -2.03125 -2.3125q-0.8125 -1.28125 -0.8125 -3.328125q0 -1.8281288 0.734375 -3.0937538q0.75 -1.265625 2.078125 -1.921875q1.34375 -0.65625 3.140625 -0.65625q2.765625 0 4.21875 1.78125q1.46875 1.78125 1.671875 4.296879l-2.890625 1.078125q-0.15625 -1.203125 -0.484375 -2.0937538q-0.3125 -0.90625 -0.875 -1.40625q-0.5625 -0.5 -1.46875 -0.5q-1.046875 0 -1.671875 0.703125q-0.609375 0.703125 -0.609375 1.6562538q0 0.609375 0.25 1.1875q0.265625 0.578125 0.90625 1.140625l4.078125 3.75q0.84375 0.765625 1.578125 1.65625q0.734375 0.875 1.21875 2.0q0.484375 1.109375 0.484375 2.59375q0 1.953125 -0.8125 3.28125q-0.796875 1.3125 -2.234375 1.96875q-1.4375 0.65625 -3.359375 0.65625zm9.725616 -0.3125l0 -32.406254l4.28125 0l0 11.6875q1.15625 -1.125 2.59375 -1.921875q1.4375 -0.796875 3.203125 -0.796875q1.359375 0 2.09375 0.71875q0.75 0.71875 1.046875 1.796875q0.296875 1.078125 0.296875 2.203125l0 18.718754l-4.28125 0l0 -17.484375q0 -1.2343788 -0.359375 -1.9062538q-0.359375 -0.6875 -1.46875 -0.6875q-0.765625 0 -1.59375 0.4375q-0.8125 0.4375 -1.53125 1.078125l0 18.562504l-4.28125 0zm17.956238 0l0 -23.125004l4.28125 0l0 23.125004l-4.28125 0zm0 -26.562504l0 -4.484375l4.28125 0l0 4.484375l-4.28125 0zm8.878738 34.156254l0 -30.718754l4.28125 0l0 1.84375q0.765625 -0.875 1.84375 -1.515625q1.078125 -0.640625 2.5625 -0.640625q1.796875 0 2.859375 0.9375q1.0625 0.9375 1.578125 2.359375q0.515625 1.421875 0.671875 2.8906288q0.171875 1.453125 0.171875 2.484375l0 5.609375q0 2.4375 -0.484375 4.625q-0.484375 2.171875 -1.75 3.515625q-1.25 1.328125 -3.53125 1.328125q-1.234375 0 -2.203125 -0.609375q-0.953125 -0.625 -1.71875 -1.421875l0 9.3125l-4.28125 0zm7.359375 -10.640625q1.125 0 1.59375 -0.8125q0.484375 -0.828125 0.609375 -2.21875q0.125 -1.40625 0.125 -3.078125l0 -5.609375q0 -1.4375 -0.171875 -2.65625q-0.15625 -1.2187538 -0.671875 -1.9375038q-0.515625 -0.71875 -1.640625 -0.71875q-0.84375 0 -1.609375 0.359375q-0.75 0.359375 -1.3125 0.84375l0 14.796879q0.609375 0.4375 1.359375 0.734375q0.765625 0.296875 1.71875 0.296875z" fill-rule="nonzero"/><path fill="#ffffff" d="m58.976994 146.2528l6.984371 -25.921875l2.96875 0l-6.999996 25.921875l-2.953125 0z" fill-rule="nonzero"/><path fill="#ffffff" d="m75.988144 128.53406l-1.609375 0l0 -5.1875l1.609375 0l0 5.1875zm21.0 9.265625q0 3.5625 -1.78125 6.046875q-2.0 2.78125 -5.4375 2.78125q-2.8125 0 -4.34375 -2.140625l0 1.765625l-2.8125 0l0 -16.59375l2.53125 0l0 2.21875q1.765625 -2.59375 4.84375 -2.59375q4.375 0 6.140625 4.03125q0.859375 1.96875 0.859375 4.484375zm-2.890625 0.109375q0 -2.578125 -0.890625 -4.25q-1.125 -2.15625 -3.484375 -2.15625q-2.359375 0 -3.59375 2.265625q-0.984375 1.828125 -0.984375 4.390625q0 2.453125 0.953125 4.109375q1.171875 2.046875 3.4375 2.046875q2.359375 0 3.578125 -2.140625q0.984375 -1.734375 0.984375 -4.265625z" fill-rule="nonzero"/><path fill="#ffffff" d="m100.050644 146.2528l0 -18.5l3.421875 0l0 1.828125q0.921875 -0.859375 2.03125 -1.46875q1.125 -0.609375 2.46875 -0.609375q1.125 0 1.71875 0.578125q0.59375 0.578125 0.828125 1.4375q0.25 0.859375 0.25 1.765625l0 14.96875l-3.421875 0l0 -13.984375q0 -0.984375 -0.296875 -1.53125q-0.28125 -0.546875 -1.1875 -0.546875q-0.578125 0 -1.203125 0.34375q-0.609375 0.328125 -1.1875 0.8125l0 14.90625l-3.421875 0zm18.93866 0.28125q-2.3125 0 -3.4375 -0.953125q-1.109375 -0.953125 -1.46875 -2.765625q-0.34375 -1.8125 -0.34375 -4.34375l0 -1.5l7.296875 0l0 -3.578125q0 -0.9375 -0.140625 -1.703125q-0.140625 -0.765625 -0.5625 -1.203125q-0.421875 -0.453125 -1.3125 -0.453125q-0.796875 0 -1.21875 0.375q-0.40625 0.359375 -0.5625 1.03125q-0.140625 0.671875 -0.140625 1.59375l0 1.125l-3.328125 0l0 -0.703125q0 -2.75 1.203125 -4.34375q1.203125 -1.609375 4.015625 -1.609375q2.171875 0 3.359375 0.828125q1.1875 0.828125 1.640625 2.484375q0.46875 1.640625 0.46875 4.046875l0 4.28125q0 2.4375 -0.484375 4.09375q-0.46875 1.640625 -1.65625 2.46875q-1.1875 0.828125 -3.328125 0.828125zm0.03125 -2.515625q0.828125 0 1.265625 -0.390625q0.4375 -0.390625 0.59375 -1.296875q0.15625 -0.90625 0.15625 -2.515625l0 -0.984375l-3.9375 0l0 1.65625q0 1.125 0.125 1.921875q0.125 0.796875 0.546875 1.203125q0.421875 0.40625 1.25 0.40625z" fill-rule="nonzero"/><path fill="#ffffff" d="m135.16446 123.23718l-0.421875 2.453125q-0.875 -0.15625 -1.65625 -0.15625q-1.359375 0 -1.859375 0.609375q-0.484375 0.59375 -0.484375 2.0l0 19.015625q0 2.78125 -0.6875 4.0625q-0.953125 1.765625 -3.484375 1.765625q-1.140625 0 -2.203125 -0.296875l0.53125 -2.390625q0.84375 0.21875 1.328125 0.21875q1.203125 0 1.546875 -1.203125q0.15625 -0.5625 0.15625 -2.21875l0 -19.203125q0 -2.53125 1.0625 -3.703125q1.109375 -1.234375 3.546875 -1.234375q1.1875 0 2.625 0.28125zm4.890625 20.703125l3.234375 0l0 2.3125l-9.28125 0l0 -2.3125l3.21875 0l0 -11.953125l-3.21875 0l0 -2.328125l9.28125 0l0 2.328125l-3.234375 0l0 11.953125z" fill-rule="nonzero"/><path fill="#ffffff" d="m146.07071 152.33093l0 -24.578125l3.421875 0l0 1.46875q0.609375 -0.703125 1.46875 -1.203125q0.859375 -0.515625 2.046875 -0.515625q1.4375 0 2.28125 0.75q0.859375 0.75 1.265625 1.890625q0.421875 1.140625 0.546875 2.3125q0.125 1.15625 0.125 1.984375l0 4.484375q0 1.953125 -0.390625 3.703125q-0.375 1.734375 -1.390625 2.8125q-1.0 1.0625 -2.828125 1.0625q-0.984375 0 -1.75 -0.484375q-0.765625 -0.5 -1.375 -1.140625l0 7.453125l-3.421875 0zm5.875 -8.515625q0.90625 0 1.28125 -0.65625q0.390625 -0.65625 0.484375 -1.765625q0.09375 -1.125 0.09375 -2.46875l0 -4.484375q0 -1.140625 -0.125 -2.109375q-0.125 -0.984375 -0.546875 -1.5625q-0.40625 -0.578125 -1.3125 -0.578125q-0.671875 0 -1.28125 0.296875q-0.609375 0.28125 -1.046875 0.65625l0 11.84375q0.46875 0.359375 1.078125 0.59375q0.609375 0.234375 1.375 0.234375zm7.5845337 2.4375l6.984375 -25.921875l2.96875 0l-7.0 25.921875l-2.953125 0z" fill-rule="nonzero"/><path fill="#ffffff" d="m201.46284 146.2528l3.9375 -18.5l3.421875 0l-0.390625 1.828125q1.09375 -0.859375 2.34375 -1.46875q1.25 -0.609375 2.59375 -0.609375q1.125 0 1.59375 0.578125q0.46875 0.578125 0.53125 1.4375q0.0625 0.859375 -0.125 1.765625l-3.1875 14.96875l-3.421875 0l2.96875 -13.984375q0.21875 -0.984375 0.046875 -1.53125q-0.171875 -0.546875 -1.078125 -0.546875q-0.578125 0 -1.28125 0.34375q-0.6875 0.328125 -1.359375 0.8125l-3.171875 14.90625l-3.421875 0zm19.079285 0.25q-2.046875 0 -3.0625 -0.828125q-1.0 -0.828125 -1.171875 -2.359375q-0.171875 -1.546875 0.265625 -3.625l1.140625 -5.375q0.453125 -2.078125 1.28125 -3.609375q0.828125 -1.546875 2.171875 -2.375q1.359375 -0.828125 3.40625 -0.828125q2.046875 0 3.046875 0.828125q1.0 0.828125 1.15625 2.375q0.171875 1.53125 -0.28125 3.609375l-1.140625 5.375q-0.4375 2.078125 -1.265625 3.625q-0.8125 1.53125 -2.15625 2.359375q-1.34375 0.828125 -3.390625 0.828125zm0.53125 -2.515625q1.0 0 1.515625 -0.578125q0.53125 -0.578125 0.796875 -1.515625q0.28125 -0.953125 0.5 -1.984375l1.234375 -5.78125q0.21875 -1.0625 0.34375 -1.984375q0.125 -0.9375 -0.15625 -1.515625q-0.265625 -0.59375 -1.265625 -0.59375q-0.984375 0 -1.53125 0.59375q-0.546875 0.578125 -0.828125 1.515625q-0.28125 0.921875 -0.5 1.984375l-1.234375 5.78125q-0.21875 1.03125 -0.34375 1.984375q-0.109375 0.9375 0.1875 1.515625q0.296875 0.578125 1.28125 0.578125zm10.646896 2.515625q-1.09375 0 -1.59375 -0.5625q-0.484375 -0.578125 -0.546875 -1.4375q-0.046875 -0.875 0.140625 -1.765625l3.1875 -14.984375l3.4375 0l-2.96875 13.953125q-0.21875 1.0 -0.0625 1.5625q0.171875 0.546875 1.078125 0.546875q0.578125 0 1.265625 -0.328125q0.6875 -0.34375 1.375 -0.8125l3.171875 -14.921875l3.421875 0l-3.9375 18.5l-3.421875 0l0.390625 -1.828125q-1.078125 0.875 -2.34375 1.484375q-1.25 0.59375 -2.59375 0.59375zm11.470657 -0.25l3.9375 -18.5l3.421875 0l-0.390625 1.828125q1.09375 -0.859375 2.34375 -1.46875q1.25 -0.609375 2.59375 -0.609375q1.1250153 0 1.5937653 0.578125q0.46875 0.578125 0.53125 1.4375q0.0625 0.859375 -0.125 1.765625l-3.1875153 14.96875l-3.421875 0l2.96875 -13.984375q0.21875 -0.984375 0.046875 -1.53125q-0.171875 -0.546875 -1.078125 -0.546875q-0.578125 0 -1.28125 0.34375q-0.6875 0.328125 -1.359375 0.8125l-3.171875 14.90625l-3.421875 0z" fill-rule="nonzero"/><path fill="#ffffff" d="m289.87918 146.5028q-1.09375 0 -1.9375 -0.609375q-0.828125 -0.625 -1.3125 -1.59375q-0.46875 -0.984375 -0.46875 -2.078125q0 -1.734375 0.578125 -2.90625q0.578125 -1.1875 1.578125 -2.0q1.015625 -0.828125 2.34375 -1.421875q1.328125 -0.609375 2.796875 -1.1875l0 -1.3125q0 -1.125 -0.125 -1.859375q-0.125 -0.734375 -0.53125 -1.09375q-0.40625 -0.375 -1.203125 -0.375q-0.703125 0 -1.140625 0.328125q-0.421875 0.3125 -0.625 0.90625q-0.1875 0.578125 -0.1875 1.390625l0 0.921875l-3.390625 -0.125q0.0625 -3.078125 1.40625 -4.53125q1.34375 -1.453125 4.171875 -1.453125q2.75 0 3.890625 1.5q1.15625 1.5 1.15625 4.359375l0 8.4375q0 0.875 0.046875 1.671875q0.046875 0.796875 0.125 1.484375q0.078125 0.6875 0.15625 1.296875l-3.140625 0q-0.09375 -0.515625 -0.25 -1.296875q-0.140625 -0.78125 -0.203125 -1.421875q-0.3125 1.09375 -1.234375 2.03125q-0.90625 0.9375 -2.5 0.9375zm1.34375 -2.9375q0.5 0 0.953125 -0.28125q0.453125 -0.296875 0.796875 -0.65625q0.359375 -0.375 0.484375 -0.59375l0 -5.25q-0.796875 0.4375 -1.5 0.890625q-0.703125 0.453125 -1.234375 0.953125q-0.53125 0.484375 -0.84375 1.109375q-0.296875 0.625 -0.296875 1.421875q0 1.125 0.40625 1.765625q0.421875 0.640625 1.234375 0.640625zm9.272644 2.6875l0 -25.921875l3.421875 0l0 25.921875l-3.421875 0zm11.296783 0.25q-2.265625 0 -3.65625 -1.421875q-1.375 -1.421875 -1.5625 -3.75l2.84375 -0.875q0.265625 1.765625 0.875 2.65625q0.609375 0.875 1.78125 0.875q0.9375 0 1.40625 -0.53125q0.484375 -0.53125 0.484375 -1.421875q0 -0.8125 -0.359375 -1.4375q-0.34375 -0.640625 -1.140625 -1.3125l-3.171875 -2.734375q-0.953125 -0.828125 -1.609375 -1.84375q-0.65625 -1.03125 -0.65625 -2.65625q0 -1.484375 0.59375 -2.484375q0.59375 -1.015625 1.65625 -1.53125q1.078125 -0.53125 2.515625 -0.53125q2.203125 0 3.375 1.421875q1.171875 1.421875 1.328125 3.4375l-2.296875 0.859375q-0.140625 -0.953125 -0.390625 -1.671875q-0.25 -0.71875 -0.703125 -1.109375q-0.453125 -0.40625 -1.1875 -0.40625q-0.828125 0 -1.328125 0.5625q-0.5 0.546875 -0.5 1.3125q0 0.484375 0.203125 0.953125q0.21875 0.46875 0.734375 0.90625l3.265625 3.015625q0.671875 0.609375 1.265625 1.3125q0.59375 0.703125 0.96875 1.609375q0.390625 0.890625 0.390625 2.0625q0 1.578125 -0.640625 2.640625q-0.640625 1.046875 -1.796875 1.578125q-1.15625 0.515625 -2.6875 0.515625zm12.764893 0q-2.046875 0 -3.234375 -0.828125q-1.171875 -0.828125 -1.671875 -2.359375q-0.5 -1.546875 -0.5 -3.625l0 -5.375q0 -2.078125 0.5 -3.609375q0.5 -1.546875 1.671875 -2.375q1.1875 -0.828125 3.234375 -0.828125q2.046875 0 3.21875 0.828125q1.171875 0.828125 1.65625 2.375q0.5 1.53125 0.5 3.609375l0 5.375q0 2.078125 -0.5 3.625q-0.484375 1.53125 -1.65625 2.359375q-1.171875 0.828125 -3.21875 0.828125zm0 -2.515625q1.0 0 1.390625 -0.578125q0.40625 -0.578125 0.484375 -1.515625q0.078125 -0.953125 0.078125 -1.984375l0 -5.78125q0 -1.0625 -0.078125 -1.984375q-0.078125 -0.9375 -0.484375 -1.515625q-0.390625 -0.59375 -1.390625 -0.59375q-0.984375 0 -1.40625 0.59375q-0.421875 0.578125 -0.5 1.515625q-0.078125 0.921875 -0.078125 1.984375l0 5.78125q0 1.03125 0.078125 1.984375q0.078125 0.9375 0.5 1.515625q0.421875 0.578125 1.40625 0.578125zm20.131165 2.515625q-2.265625 0 -3.65625 -1.421875q-1.375 -1.421875 -1.5625 -3.75l2.84375 -0.875q0.265625 1.765625 0.875 2.65625q0.609375 0.875 1.78125 0.875q0.9375 0 1.40625 -0.53125q0.484375 -0.53125 0.484375 -1.421875q0 -0.8125 -0.359375 -1.4375q-0.34375 -0.640625 -1.140625 -1.3125l-3.171875 -2.734375q-0.953125 -0.828125 -1.609375 -1.84375q-0.65625 -1.03125 -0.65625 -2.65625q0 -1.484375 0.59375 -2.484375q0.59375 -1.015625 1.65625 -1.53125q1.078125 -0.53125 2.515625 -0.53125q2.203125 0 3.375 1.421875q1.171875 1.421875 1.328125 3.4375l-2.296875 0.859375q-0.140625 -0.953125 -0.390625 -1.671875q-0.25 -0.71875 -0.703125 -1.109375q-0.453125 -0.40625 -1.1875 -0.40625q-0.828125 0 -1.328125 0.5625q-0.5 0.546875 -0.5 1.3125q0 0.484375 0.203125 0.953125q0.21875 0.46875 0.734375 0.90625l3.265625 3.015625q0.671875 0.609375 1.265625 1.3125q0.59375 0.703125 0.96875 1.609375q0.390625 0.890625 0.390625 2.0625q0 1.578125 -0.640625 2.640625q-0.640625 1.046875 -1.796875 1.578125q-1.15625 0.515625 -2.6875 0.515625zm7.6867676 5.828125l0 -24.578125l3.421875 0l0 1.46875q0.609375 -0.703125 1.46875 -1.203125q0.859375 -0.515625 2.046875 -0.515625q1.4375 0 2.28125 0.75q0.859375 0.75 1.265625 1.890625q0.421875 1.140625 0.546875 2.3125q0.125 1.15625 0.125 1.984375l0 4.484375q0 1.953125 -0.390625 3.703125q-0.375 1.734375 -1.390625 2.8125q-1.0 1.0625 -2.828125 1.0625q-0.984375 0 -1.75 -0.484375q-0.765625 -0.5 -1.375 -1.140625l0 7.453125l-3.421875 0zm5.875 -8.515625q0.90625 0 1.28125 -0.65625q0.390625 -0.65625 0.484375 -1.765625q0.09375 -1.125 0.09375 -2.46875l0 -4.484375q0 -1.140625 -0.125 -2.109375q-0.125 -0.984375 -0.546875 -1.5625q-0.40625 -0.578125 -1.3125 -0.578125q-0.671875 0 -1.28125 0.296875q-0.609375 0.28125 -1.046875 0.65625l0 11.84375q0.46875 0.359375 1.078125 0.59375q0.609375 0.234375 1.375 0.234375zm13.506409 2.6875q-2.171875 0 -3.359375 -0.84375q-1.1875 -0.84375 -1.65625 -2.484375q-0.453125 -1.65625 -0.453125 -4.0625l0 -4.21875q0 -2.46875 0.484375 -4.09375q0.484375 -1.640625 1.671875 -2.46875q1.203125 -0.828125 3.3125 -0.828125q2.34375 0 3.4375 0.96875q1.109375 0.953125 1.453125 2.765625q0.359375 1.796875 0.359375 4.328125l0 1.5l-7.296875 0l0 3.71875q0 1.109375 0.203125 1.828125q0.21875 0.703125 0.671875 1.046875q0.46875 0.328125 1.203125 0.328125q0.765625 0 1.171875 -0.375q0.40625 -0.375 0.546875 -1.0625q0.140625 -0.6875 0.140625 -1.609375l0 -1.125l3.328125 0l0 0.703125q0 2.796875 -1.1875 4.390625q-1.171875 1.59375 -4.03125 1.59375zm-2.046875 -11.296875l3.9375 0l0 -1.65625q0 -1.15625 -0.125 -1.9375q-0.125 -0.78125 -0.53125 -1.171875q-0.390625 -0.40625 -1.265625 -0.40625q-0.828125 0 -1.265625 0.390625q-0.421875 0.375 -0.59375 1.296875q-0.15625 0.90625 -0.15625 2.5l0 0.984375zm10.722015 11.046875l0 -25.921875l3.421875 0l0 25.921875l-3.421875 0zm7.3280334 0l0 -25.921875l3.421875 0l0 25.921875l-3.421875 0zm12.124878 0.25q-2.171875 0 -3.359375 -0.84375q-1.1875 -0.84375 -1.65625 -2.484375q-0.453125 -1.65625 -0.453125 -4.0625l0 -4.21875q0 -2.46875 0.484375 -4.09375q0.484375 -1.640625 1.671875 -2.46875q1.203125 -0.828125 3.3125 -0.828125q2.34375 0 3.4375 0.96875q1.109375 0.953125 1.453125 2.765625q0.359375 1.796875 0.359375 4.328125l0 1.5l-7.296875 0l0 3.71875q0 1.109375 0.203125 1.828125q0.21875 0.703125 0.671875 1.046875q0.46875 0.328125 1.203125 0.328125q0.765625 0 1.171875 -0.375q0.40625 -0.375 0.546875 -1.0625q0.140625 -0.6875 0.140625 -1.609375l0 -1.125l3.328125 0l0 0.703125q0 2.796875 -1.1875 4.390625q-1.171875 1.59375 -4.03125 1.59375zm-2.046875 -11.296875l3.9375 0l0 -1.65625q0 -1.15625 -0.125 -1.9375q-0.125 -0.78125 -0.53125 -1.171875q-0.390625 -0.40625 -1.265625 -0.40625q-0.828125 0 -1.265625 0.390625q-0.421875 0.375 -0.59375 1.296875q-0.15625 0.90625 -0.15625 2.5l0 0.984375zm14.690796 11.296875q-2.328125 0 -3.484375 -1.703125q-1.15625 -1.71875 -1.15625 -5.8125l0 -3.578125q0 -2.109375 0.34375 -3.921875q0.359375 -1.8125 1.328125 -2.890625q0.984375 -1.09375 2.875 -1.09375q0.921875 0 1.6875 0.421875q0.78125 0.40625 1.375 1.015625l0 -8.609375l3.4375 0l0 25.921875l-3.4375 0l0 -1.1875q-0.59375 0.640625 -1.328125 1.046875q-0.71875 0.390625 -1.640625 0.390625zm0.859375 -2.6875q0.484375 0 1.03125 -0.171875q0.546875 -0.171875 1.078125 -0.53125l0 -12.125q-0.4375 -0.3125 -0.984375 -0.546875q-0.546875 -0.25 -1.1875 -0.25q-1.1875 0 -1.609375 1.140625q-0.40625 1.125 -0.40625 2.734375l0 5.21875q0 1.265625 0.140625 2.3125q0.15625 1.046875 0.59375 1.640625q0.453125 0.578125 1.34375 0.578125zm9.190887 -10.84375l0 -3.640625l3.453125 0l0 3.640625l-3.453125 0zm0 10.203125l0 -3.640625l3.453125 0l0 3.640625l-3.453125 0zm13.5383 3.078125l0 -25.921875l3.421875 0l0 9.34375q0.921875 -0.890625 2.078125 -1.53125q1.15625 -0.640625 2.5625 -0.640625q1.078125 0 1.671875 0.578125q0.59375 0.578125 0.828125 1.4375q0.25 0.859375 0.25 1.765625l0 14.96875l-3.421875 0l0 -13.984375q0 -0.984375 -0.296875 -1.53125q-0.28125 -0.546875 -1.171875 -0.546875q-0.609375 0 -1.265625 0.359375q-0.65625 0.34375 -1.234375 0.859375l0 14.84375l-3.421875 0zm19.224396 0.25q-2.046875 0 -3.234375 -0.828125q-1.171875 -0.828125 -1.671875 -2.359375q-0.5 -1.546875 -0.5 -3.625l0 -5.375q0 -2.078125 0.5 -3.609375q0.5 -1.546875 1.671875 -2.375q1.1875 -0.828125 3.234375 -0.828125q2.046875 0 3.21875 0.828125q1.171875 0.828125 1.65625 2.375q0.5 1.53125 0.5 3.609375l0 5.375q0 2.078125 -0.5 3.625q-0.484375 1.53125 -1.65625 2.359375q-1.171875 0.828125 -3.21875 0.828125zm0 -2.515625q1.0 0 1.390625 -0.578125q0.40625 -0.578125 0.484375 -1.515625q0.078125 -0.953125 0.078125 -1.984375l0 -5.78125q0 -1.0625 -0.078125 -1.984375q-0.078125 -0.9375 -0.484375 -1.515625q-0.390625 -0.59375 -1.390625 -0.59375q-0.984375 0 -1.40625 0.59375q-0.421875 0.578125 -0.5 1.515625q-0.078125 0.921875 -0.078125 1.984375l0 5.78125q0 1.03125 0.078125 1.984375q0.078125 0.9375 0.5 1.515625q0.421875 0.578125 1.40625 0.578125zm8.521881 2.265625l0 -18.5l3.421875 0l0 1.828125q0.921875 -0.859375 2.03125 -1.46875q1.125 -0.609375 2.46875 -0.609375q1.125 0 1.71875 0.578125q0.59375 0.578125 0.828125 1.4375q0.25 0.859375 0.25 1.765625l0 14.96875l-3.421875 0l0 -13.984375q0 -0.984375 -0.296875 -1.53125q-0.28125 -0.546875 -1.1875 -0.546875q-0.578125 0 -1.203125 0.34375q-0.609375 0.328125 -1.1875 0.8125l0 14.90625l-3.421875 0zm19.12616 0.25q-2.046875 0 -3.234375 -0.828125q-1.171875 -0.828125 -1.671875 -2.359375q-0.5 -1.546875 -0.5 -3.625l0 -5.375q0 -2.078125 0.5 -3.609375q0.5 -1.546875 1.671875 -2.375q1.1875 -0.828125 3.234375 -0.828125q2.046875 0 3.21875 0.828125q1.171875 0.828125 1.65625 2.375q0.5 1.53125 0.5 3.609375l0 5.375q0 2.078125 -0.5 3.625q-0.484375 1.53125 -1.65625 2.359375q-1.171875 0.828125 -3.21875 0.828125zm0 -2.515625q1.0 0 1.390625 -0.578125q0.40625 -0.578125 0.484375 -1.515625q0.078125 -0.953125 0.078125 -1.984375l0 -5.78125q0 -1.0625 -0.078125 -1.984375q-0.078125 -0.9375 -0.484375 -1.515625q-0.390625 -0.59375 -1.390625 -0.59375q-0.984375 0 -1.40625 0.59375q-0.421875 0.578125 -0.5 1.515625q-0.078125 0.921875 -0.078125 1.984375l0 5.78125q0 1.03125 0.078125 1.984375q0.078125 0.9375 0.5 1.515625q0.421875 0.578125 1.40625 0.578125zm8.615662 2.265625l0 -18.5l3.421875 0l0 2.625q1.015625 -1.6875 2.03125 -2.265625q1.03125 -0.578125 2.0625 -0.578125q0.125 0 0.234375 0q0.125 0 0.3125 0.03125l0 3.78125q-0.390625 -0.171875 -0.890625 -0.28125q-0.484375 -0.109375 -1.0 -0.109375q-0.796875 0 -1.453125 0.375q-0.65625 0.359375 -1.296875 1.421875l0 13.5l-3.421875 0zm14.459534 0.25q-2.265625 0 -3.65625 -1.421875q-1.375 -1.421875 -1.5625 -3.75l2.84375 -0.875q0.265625 1.765625 0.875 2.65625q0.609375 0.875 1.78125 0.875q0.9375 0 1.40625 -0.53125q0.484375 -0.53125 0.484375 -1.421875q0 -0.8125 -0.359375 -1.4375q-0.34375 -0.640625 -1.140625 -1.3125l-3.171875 -2.734375q-0.953125 -0.828125 -1.609375 -1.84375q-0.65625 -1.03125 -0.65625 -2.65625q0 -1.484375 0.59375 -2.484375q0.59375 -1.015625 1.65625 -1.53125q1.078125 -0.53125 2.515625 -0.53125q2.203125 0 3.375 1.421875q1.171875 1.421875 1.328125 3.4375l-2.296875 0.859375q-0.140625 -0.953125 -0.390625 -1.671875q-0.25 -0.71875 -0.703125 -1.109375q-0.453125 -0.40625 -1.1875 -0.40625q-0.828125 0 -1.328125 0.5625q-0.5 0.546875 -0.5 1.3125q0 0.484375 0.203125 0.953125q0.21875 0.46875 0.734375 0.90625l3.265625 3.015625q0.671875 0.609375 1.265625 1.3125q0.59375 0.703125 0.96875 1.609375q0.390625 0.890625 0.390625 2.0625q0 1.578125 -0.640625 2.640625q-0.640625 1.046875 -1.796875 1.578125q-1.15625 0.515625 -2.6875 0.515625zm7.7805176 -0.25l0 -25.921875l3.421875 0l0 9.34375q0.921875 -0.890625 2.078125 -1.53125q1.15625 -0.640625 2.5625 -0.640625q1.078125 0 1.671875 0.578125q0.59375 0.578125 0.828125 1.4375q0.25 0.859375 0.25 1.765625l0 14.96875l-3.421875 0l0 -13.984375q0 -0.984375 -0.296875 -1.53125q-0.28125 -0.546875 -1.171875 -0.546875q-0.609375 0 -1.265625 0.359375q-0.65625 0.34375 -1.234375 0.859375l0 14.84375l-3.421875 0zm14.365051 0l0 -18.5l3.421875 0l0 18.5l-3.421875 0zm0 -21.25l0 -3.578125l3.421875 0l0 3.578125l-3.421875 0zm7.109253 27.328125l0 -24.578125l3.421875 0l0 1.46875q0.609375 -0.703125 1.46875 -1.203125q0.859375 -0.515625 2.046875 -0.515625q1.4375 0 2.28125 0.75q0.859375 0.75 1.265625 1.890625q0.421875 1.140625 0.546875 2.3125q0.125 1.15625 0.125 1.984375l0 4.484375q0 1.953125 -0.390625 3.703125q-0.375 1.734375 -1.390625 2.8125q-1.0 1.0625 -2.828125 1.0625q-0.984375 0 -1.75 -0.484375q-0.765625 -0.5 -1.375 -1.140625l0 7.453125l-3.421875 0zm5.875 -8.515625q0.90625 0 1.28125 -0.65625q0.390625 -0.65625 0.484375 -1.765625q0.09375 -1.125 0.09375 -2.46875l0 -4.484375q0 -1.140625 -0.125 -2.109375q-0.125 -0.984375 -0.546875 -1.5625q-0.40625 -0.578125 -1.3125 -0.578125q-0.671875 0 -1.28125 0.296875q-0.609375 0.28125 -1.046875 0.65625l0 11.84375q0.46875 0.359375 1.078125 0.59375q0.609375 0.234375 1.375 0.234375z" fill-rule="nonzero"/><path fill="#ffffff" d="m64.711365 204.5028q-1.4374962 0 -2.3281212 -0.53125q-0.875 -0.546875 -1.28125 -1.53125q-0.390625 -1.0 -0.390625 -2.34375l0 -12.0625l-1.953125 0l0 -2.28125l1.953125 0l0 -5.40625l3.4218712 0l0 5.40625l2.984375 0l0 2.28125l-2.984375 0l0 11.828125q0 1.09375 0.34375 1.5625q0.359375 0.453125 1.359375 0.453125q0.25 0 0.578125 -0.03125q0.34375 -0.03125 0.671875 -0.0625l0 2.53125q-0.640625 0.09375 -1.1875 0.140625q-0.546875 0.046875 -1.1875 0.046875zm5.027893 -0.25l0 -25.921875l3.421875 0l0 9.34375q0.921875 -0.890625 2.078125 -1.53125q1.15625 -0.640625 2.5625 -0.640625q1.078125 0 1.671875 0.578125q0.59375 0.578125 0.828125 1.4375q0.25 0.859375 0.25 1.765625l0 14.96875l-3.421875 0l0 -13.984375q0 -0.984375 -0.296875 -1.53125q-0.28125 -0.546875 -1.171875 -0.546875q-0.609375 0 -1.265625 0.359375q-0.65625 0.34375 -1.234375 0.859375l0 14.84375l-3.421875 0zm19.255661 0.25q-2.171875 0 -3.359375 -0.84375q-1.1875 -0.84375 -1.65625 -2.484375q-0.453125 -1.65625 -0.453125 -4.0625l0 -4.21875q0 -2.46875 0.484375 -4.09375q0.484375 -1.640625 1.671875 -2.46875q1.203125 -0.828125 3.3125 -0.828125q2.34375 0 3.4375 0.96875q1.109375 0.953125 1.453125 2.765625q0.359375 1.796875 0.359375 4.328125l0 1.5l-7.296875 0l0 3.71875q0 1.109375 0.203125 1.828125q0.21875 0.703125 0.671875 1.046875q0.46875 0.328125 1.203125 0.328125q0.765625 0 1.171875 -0.375q0.40625 -0.375 0.546875 -1.0625q0.140625 -0.6875 0.140625 -1.609375l0 -1.125l3.328125 0l0 0.703125q0 2.796875 -1.1875 4.390625q-1.171875 1.59375 -4.03125 1.59375zm-2.046875 -11.296875l3.9375 0l0 -1.65625q0 -1.15625 -0.125 -1.9375q-0.125 -0.78125 -0.53125 -1.171875q-0.390625 -0.40625 -1.265625 -0.40625q-0.828125 0 -1.265625 0.390625q-0.421875 0.375 -0.59375 1.296875q-0.15625 0.90625 -0.15625 2.5l0 0.984375zm21.065674 11.296875q-1.09375 0 -1.9375 -0.609375q-0.828125 -0.625 -1.3125 -1.59375q-0.46875 -0.984375 -0.46875 -2.078125q0 -1.734375 0.578125 -2.90625q0.578125 -1.1875 1.578125 -2.0q1.015625 -0.828125 2.34375 -1.421875q1.328125 -0.609375 2.796875 -1.1875l0 -1.3125q0 -1.125 -0.125 -1.859375q-0.125 -0.734375 -0.53125 -1.09375q-0.40625 -0.375 -1.203125 -0.375q-0.703125 0 -1.140625 0.328125q-0.421875 0.3125 -0.625 0.90625q-0.1875 0.578125 -0.1875 1.390625l0 0.921875l-3.390625 -0.125q0.0625 -3.078125 1.40625 -4.53125q1.34375 -1.453125 4.171875 -1.453125q2.75 0 3.890625 1.5q1.15625 1.5 1.15625 4.359375l0 8.4375q0 0.875 0.046875 1.671875q0.046875 0.796875 0.125 1.484375q0.078125 0.6875 0.15625 1.296875l-3.140625 0q-0.09375 -0.515625 -0.25 -1.296875q-0.140625 -0.78125 -0.203125 -1.421875q-0.3125 1.09375 -1.234375 2.03125q-0.90625 0.9375 -2.5 0.9375zm1.34375 -2.9375q0.5 0 0.953125 -0.28125q0.453125 -0.296875 0.796875 -0.65625q0.359375 -0.375 0.484375 -0.59375l0 -5.25q-0.796875 0.4375 -1.5 0.890625q-0.703125 0.453125 -1.234375 0.953125q-0.53125 0.484375 -0.84375 1.109375q-0.296875 0.625 -0.296875 1.421875q0 1.125 0.40625 1.765625q0.421875 0.640625 1.234375 0.640625zm14.007034 2.9375q-2.265625 0 -3.4375 -0.90625q-1.171875 -0.90625 -1.578125 -2.5625q-0.390625 -1.671875 -0.390625 -3.890625l0 -4.25q0 -2.34375 0.40625 -3.984375q0.421875 -1.640625 1.59375 -2.515625q1.171875 -0.890625 3.40625 -0.890625q2.015625 0 3.125 0.65625q1.109375 0.65625 1.515625 1.953125q0.421875 1.296875 0.421875 3.21875l0 1.078125l-3.109375 0l0 -1.109375q0 -1.21875 -0.15625 -1.921875q-0.15625 -0.703125 -0.578125 -1.015625q-0.421875 -0.328125 -1.1875 -0.328125q-0.828125 0 -1.28125 0.390625q-0.4375 0.375 -0.59375 1.296875q-0.140625 0.90625 -0.140625 2.46875l0 5.828125q0 2.359375 0.453125 3.171875q0.453125 0.796875 1.59375 0.796875q0.875 0 1.265625 -0.40625q0.40625 -0.40625 0.515625 -1.140625q0.109375 -0.734375 0.109375 -1.65625l0 -1.5l3.109375 0l0 1.265625q0 1.859375 -0.4375 3.203125q-0.4375 1.34375 -1.546875 2.046875q-1.09375 0.703125 -3.078125 0.703125zm13.027023 0q-1.4375 0 -2.328125 -0.53125q-0.875 -0.546875 -1.28125 -1.53125q-0.390625 -1.0 -0.390625 -2.34375l0 -12.0625l-1.953125 0l0 -2.28125l1.953125 0l0 -5.40625l3.421875 0l0 5.40625l2.984375 0l0 2.28125l-2.984375 0l0 11.828125q0 1.09375 0.34375 1.5625q0.359375 0.453125 1.359375 0.453125q0.25 0 0.578125 -0.03125q0.34375 -0.03125 0.671875 -0.0625l0 2.53125q-0.640625 0.09375 -1.1875 0.140625q-0.546875 0.046875 -1.1875 0.046875zm17.340286 0q-2.046875 0 -3.234375 -0.828125q-1.171875 -0.828125 -1.671875 -2.359375q-0.5 -1.546875 -0.5 -3.625l0 -5.375q0 -2.078125 0.5 -3.609375q0.5 -1.546875 1.671875 -2.375q1.1875 -0.828125 3.234375 -0.828125q2.046875 0 3.21875 0.828125q1.171875 0.828125 1.65625 2.375q0.5 1.53125 0.5 3.609375l0 5.375q0 2.078125 -0.5 3.625q-0.484375 1.53125 -1.65625 2.359375q-1.171875 0.828125 -3.21875 0.828125zm0 -2.515625q1.0 0 1.390625 -0.578125q0.40625 -0.578125 0.484375 -1.515625q0.078125 -0.953125 0.078125 -1.984375l0 -5.78125q0 -1.0625 -0.078125 -1.984375q-0.078125 -0.9375 -0.484375 -1.515625q-0.390625 -0.59375 -1.390625 -0.59375q-0.984375 0 -1.40625 0.59375q-0.421875 0.578125 -0.5 1.515625q-0.078125 0.921875 -0.078125 1.984375l0 5.78125q0 1.03125 0.078125 1.984375q0.078125 0.9375 0.5 1.515625q0.421875 0.578125 1.40625 0.578125zm8.615646 2.265625l0 -18.5l3.421875 0l0 2.625q1.015625 -1.6875 2.03125 -2.265625q1.03125 -0.578125 2.0625 -0.578125q0.125 0 0.234375 0q0.125 0 0.3125 0.03125l0 3.78125q-0.390625 -0.171875 -0.890625 -0.28125q-0.484375 -0.109375 -1.0 -0.109375q-0.796875 0 -1.453125 0.375q-0.65625 0.359375 -1.296875 1.421875l0 13.5l-3.421875 0zm21.787537 0.25q-2.265625 0 -3.65625 -1.421875q-1.375 -1.421875 -1.5625 -3.75l2.84375 -0.875q0.265625 1.765625 0.875 2.65625q0.609375 0.875 1.78125 0.875q0.9375 0 1.40625 -0.53125q0.484375 -0.53125 0.484375 -1.421875q0 -0.8125 -0.359375 -1.4375q-0.34375 -0.640625 -1.140625 -1.3125l-3.171875 -2.734375q-0.953125 -0.828125 -1.609375 -1.84375q-0.65625 -1.03125 -0.65625 -2.65625q0 -1.484375 0.59375 -2.484375q0.59375 -1.015625 1.65625 -1.53125q1.078125 -0.53125 2.515625 -0.53125q2.203125 0 3.375 1.421875q1.171875 1.421875 1.328125 3.4375l-2.296875 0.859375q-0.140625 -0.953125 -0.390625 -1.671875q-0.25 -0.71875 -0.703125 -1.109375q-0.453125 -0.40625 -1.1875 -0.40625q-0.828125 0 -1.328125 0.5625q-0.5 0.546875 -0.5 1.3125q0 0.484375 0.203125 0.953125q0.21875 0.46875 0.734375 0.90625l3.265625 3.015625q0.671875 0.609375 1.265625 1.3125q0.59375 0.703125 0.96875 1.609375q0.390625 0.890625 0.390625 2.0625q0 1.578125 -0.640625 2.640625q-0.640625 1.046875 -1.796875 1.578125q-1.15625 0.515625 -2.6875 0.515625zm12.608643 0q-1.4375 0 -2.328125 -0.53125q-0.875 -0.546875 -1.28125 -1.53125q-0.390625 -1.0 -0.390625 -2.34375l0 -12.0625l-1.953125 0l0 -2.28125l1.953125 0l0 -5.40625l3.421875 0l0 5.40625l2.984375 0l0 2.28125l-2.984375 0l0 11.828125q0 1.09375 0.34375 1.5625q0.359375 0.453125 1.359375 0.453125q0.25 0 0.578125 -0.03125q0.34375 -0.03125 0.671875 -0.0625l0 2.53125q-0.640625 0.09375 -1.1875 0.140625q-0.546875 0.046875 -1.1875 0.046875zm8.262268 0q-1.09375 0 -1.9375 -0.609375q-0.828125 -0.625 -1.3125 -1.59375q-0.46875 -0.984375 -0.46875 -2.078125q0 -1.734375 0.578125 -2.90625q0.578125 -1.1875 1.578125 -2.0q1.015625 -0.828125 2.34375 -1.421875q1.328125 -0.609375 2.796875 -1.1875l0 -1.3125q0 -1.125 -0.125 -1.859375q-0.125 -0.734375 -0.53125 -1.09375q-0.40625 -0.375 -1.203125 -0.375q-0.703125 0 -1.140625 0.328125q-0.421875 0.3125 -0.625 0.90625q-0.1875 0.578125 -0.1875 1.390625l0 0.921875l-3.390625 -0.125q0.0625 -3.078125 1.40625 -4.53125q1.34375 -1.453125 4.171875 -1.453125q2.75 0 3.890625 1.5q1.15625 1.5 1.15625 4.359375l0 8.4375q0 0.875 0.046875 1.671875q0.046875 0.796875 0.125 1.484375q0.078125 0.6875 0.15625 1.296875l-3.140625 0q-0.09375 -0.515625 -0.25 -1.296875q-0.140625 -0.78125 -0.203125 -1.421875q-0.3125 1.09375 -1.234375 2.03125q-0.90625 0.9375 -2.5 0.9375zm1.34375 -2.9375q0.5 0 0.953125 -0.28125q0.453125 -0.296875 0.796875 -0.65625q0.359375 -0.375 0.484375 -0.59375l0 -5.25q-0.796875 0.4375 -1.5 0.890625q-0.703125 0.453125 -1.234375 0.953125q-0.53125 0.484375 -0.84375 1.109375q-0.296875 0.625 -0.296875 1.421875q0 1.125 0.40625 1.765625q0.421875 0.640625 1.234375 0.640625zm13.626038 2.9375q-1.4375 0 -2.328125 -0.53125q-0.875 -0.546875 -1.28125 -1.53125q-0.390625 -1.0 -0.390625 -2.34375l0 -12.0625l-1.953125 0l0 -2.28125l1.953125 0l0 -5.40625l3.421875 0l0 5.40625l2.984375 0l0 2.28125l-2.984375 0l0 11.828125q0 1.09375 0.34375 1.5625q0.359375 0.453125 1.359375 0.453125q0.25 0 0.578125 -0.03125q0.34375 -0.03125 0.671875 -0.0625l0 2.53125q-0.640625 0.09375 -1.1875 0.140625q-0.546875 0.046875 -1.1875 0.046875zm10.043518 0q-2.171875 0 -3.359375 -0.84375q-1.1875 -0.84375 -1.65625 -2.484375q-0.453125 -1.65625 -0.453125 -4.0625l0 -4.21875q0 -2.46875 0.484375 -4.09375q0.484375 -1.640625 1.671875 -2.46875q1.203125 -0.828125 3.3125 -0.828125q2.34375 0 3.4375 0.96875q1.109375 0.953125 1.453125 2.765625q0.359375 1.796875 0.359375 4.328125l0 1.5l-7.296875 0l0 3.71875q0 1.109375 0.203125 1.828125q0.21875 0.703125 0.671875 1.046875q0.46875 0.328125 1.203125 0.328125q0.765625 0 1.171875 -0.375q0.40625 -0.375 0.546875 -1.0625q0.140625 -0.6875 0.140625 -1.609375l0 -1.125l3.328125 0l0 0.703125q0 2.796875 -1.1875 4.390625q-1.171875 1.59375 -4.03125 1.59375zm-2.046875 -11.296875l3.9375 0l0 -1.65625q0 -1.15625 -0.125 -1.9375q-0.125 -0.78125 -0.53125 -1.171875q-0.390625 -0.40625 -1.265625 -0.40625q-0.828125 0 -1.265625 0.390625q-0.421875 0.375 -0.59375 1.296875q-0.15625 0.90625 -0.15625 2.5l0 0.984375zm22.815674 11.296875q-2.046875 0 -3.234375 -0.828125q-1.171875 -0.828125 -1.671875 -2.359375q-0.5 -1.546875 -0.5 -3.625l0 -5.375q0 -2.078125 0.5 -3.609375q0.5 -1.546875 1.671875 -2.375q1.1875 -0.828125 3.234375 -0.828125q2.046875 0 3.21875 0.828125q1.171875 0.828125 1.65625 2.375q0.50001526 1.53125 0.50001526 3.609375l0 5.375q0 2.078125 -0.50001526 3.625q-0.484375 1.53125 -1.65625 2.359375q-1.171875 0.828125 -3.21875 0.828125zm0 -2.515625q1.0 0 1.390625 -0.578125q0.40625 -0.578125 0.484375 -1.515625q0.078125 -0.953125 0.078125 -1.984375l0 -5.78125q0 -1.0625 -0.078125 -1.984375q-0.078125 -0.9375 -0.484375 -1.515625q-0.390625 -0.59375 -1.390625 -0.59375q-0.984375 0 -1.40625 0.59375q-0.421875 0.578125 -0.5 1.515625q-0.078125 0.921875 -0.078125 1.984375l0 5.78125q0 1.03125 0.078125 1.984375q0.078125 0.9375 0.5 1.515625q0.421875 0.578125 1.40625 0.578125zm9.600021 2.265625l0 -15.96875l-2.203125 0l0 -2.53125l2.203125 0l0 -0.953125q0 -1.734375 0.265625 -2.953125q0.28125 -1.234375 1.140625 -1.90625q0.875 -0.671875 2.59375 -0.671875q0.640625 0 1.140625 0.046875q0.5 0.046875 1.109375 0.171875l0 2.5q-0.296875 -0.078125 -0.65625 -0.125q-0.34375 -0.046875 -0.625 -0.046875q-1.0 0 -1.28125 0.65625q-0.265625 0.65625 -0.265625 1.75l0 1.53125l2.828125 0l0 2.53125l-2.828125 0l0 15.96875l-3.421875 0zm15.433929 6.078125l0 -24.578125l3.421875 0l0 1.46875q0.609375 -0.703125 1.46875 -1.203125q0.859375 -0.515625 2.046875 -0.515625q1.4375 0 2.28125 0.75q0.859375 0.75 1.265625 1.890625q0.421875 1.140625 0.546875 2.3125q0.125 1.15625 0.125 1.984375l0 4.484375q0 1.953125 -0.390625 3.703125q-0.375 1.734375 -1.390625 2.8125q-1.0 1.0625 -2.828125 1.0625q-0.984375 0 -1.75 -0.484375q-0.765625 -0.5 -1.375 -1.140625l0 7.453125l-3.421875 0zm5.875 -8.515625q0.90625 0 1.28125 -0.65625q0.390625 -0.65625 0.484375 -1.765625q0.09375 -1.125 0.09375 -2.46875l0 -4.484375q0 -1.140625 -0.125 -2.109375q-0.125 -0.984375 -0.546875 -1.5625q-0.40625 -0.578125 -1.3125 -0.578125q-0.671875 0 -1.28125 0.296875q-0.609375 0.28125 -1.046875 0.65625l0 11.84375q0.46875 0.359375 1.078125 0.59375q0.609375 0.234375 1.375 0.234375zm8.490784 2.4375l0 -18.5l3.421875 0l0 2.625q1.015625 -1.6875 2.03125 -2.265625q1.03125 -0.578125 2.0625 -0.578125q0.125 0 0.234375 0q0.125 0 0.3125 0.03125l0 3.78125q-0.390625 -0.171875 -0.890625 -0.28125q-0.484375 -0.109375 -1.0 -0.109375q-0.796875 0 -1.453125 0.375q-0.65625 0.359375 -1.296875 1.421875l0 13.5l-3.421875 0zm15.256378 0.25q-2.046875 0 -3.234375 -0.828125q-1.171875 -0.828125 -1.671875 -2.359375q-0.5 -1.546875 -0.5 -3.625l0 -5.375q0 -2.078125 0.5 -3.609375q0.5 -1.546875 1.671875 -2.375q1.1875 -0.828125 3.234375 -0.828125q2.046875 0 3.21875 0.828125q1.171875 0.828125 1.65625 2.375q0.5 1.53125 0.5 3.609375l0 5.375q0 2.078125 -0.5 3.625q-0.484375 1.53125 -1.65625 2.359375q-1.171875 0.828125 -3.21875 0.828125zm0 -2.515625q1.0 0 1.390625 -0.578125q0.40625 -0.578125 0.484375 -1.515625q0.078125 -0.953125 0.078125 -1.984375l0 -5.78125q0 -1.0625 -0.078125 -1.984375q-0.078125 -0.9375 -0.484375 -1.515625q-0.390625 -0.59375 -1.390625 -0.59375q-0.984375 0 -1.40625 0.59375q-0.421875 0.578125 -0.5 1.515625q-0.078125 0.921875 -0.078125 1.984375l0 5.78125q0 1.03125 0.078125 1.984375q0.078125 0.9375 0.5 1.515625q0.421875 0.578125 1.40625 0.578125zm13.443756 2.515625q-1.4375 0 -2.328125 -0.53125q-0.875 -0.546875 -1.28125 -1.53125q-0.390625 -1.0 -0.390625 -2.34375l0 -12.0625l-1.953125 0l0 -2.28125l1.953125 0l0 -5.40625l3.421875 0l0 5.40625l2.984375 0l0 2.28125l-2.984375 0l0 11.828125q0 1.09375 0.34375 1.5625q0.359375 0.453125 1.359375 0.453125q0.25 0 0.578125 -0.03125q0.34375 -0.03125 0.671875 -0.0625l0 2.53125q-0.640625 0.09375 -1.1875 0.140625q-0.546875 0.046875 -1.1875 0.046875zm10.043518 0q-2.171875 0 -3.359375 -0.84375q-1.1875 -0.84375 -1.65625 -2.484375q-0.453125 -1.65625 -0.453125 -4.0625l0 -4.21875q0 -2.46875 0.484375 -4.09375q0.484375 -1.640625 1.671875 -2.46875q1.203125 -0.828125 3.3125 -0.828125q2.34375 0 3.4375 0.96875q1.109375 0.953125 1.453125 2.765625q0.359375 1.796875 0.359375 4.328125l0 1.5l-7.296875 0l0 3.71875q0 1.109375 0.203125 1.828125q0.21875 0.703125 0.671875 1.046875q0.46875 0.328125 1.203125 0.328125q0.765625 0 1.171875 -0.375q0.40625 -0.375 0.546875 -1.0625q0.140625 -0.6875 0.140625 -1.609375l0 -1.125l3.328125 0l0 0.703125q0 2.796875 -1.1875 4.390625q-1.171875 1.59375 -4.03125 1.59375zm-2.046875 -11.296875l3.9375 0l0 -1.65625q0 -1.15625 -0.125 -1.9375q-0.125 -0.78125 -0.53125 -1.171875q-0.390625 -0.40625 -1.265625 -0.40625q-0.828125 0 -1.265625 0.390625q-0.421875 0.375 -0.59375 1.296875q-0.15625 0.90625 -0.15625 2.5l0 0.984375zm15.456421 11.296875q-2.265625 0 -3.4375 -0.90625q-1.171875 -0.90625 -1.578125 -2.5625q-0.390625 -1.671875 -0.390625 -3.890625l0 -4.25q0 -2.34375 0.40625 -3.984375q0.421875 -1.640625 1.59375 -2.515625q1.171875 -0.890625 3.40625 -0.890625q2.015625 0 3.125 0.65625q1.109375 0.65625 1.515625 1.953125q0.421875 1.296875 0.421875 3.21875l0 1.078125l-3.109375 0l0 -1.109375q0 -1.21875 -0.15625 -1.921875q-0.15625 -0.703125 -0.578125 -1.015625q-0.421875 -0.328125 -1.1875 -0.328125q-0.828125 0 -1.28125 0.390625q-0.4375 0.375 -0.59375 1.296875q-0.140625 0.90625 -0.140625 2.46875l0 5.828125q0 2.359375 0.453125 3.171875q0.453125 0.796875 1.59375 0.796875q0.875 0 1.265625 -0.40625q0.40625 -0.40625 0.515625 -1.140625q0.109375 -0.734375 0.109375 -1.65625l0 -1.5l3.109375 0l0 1.265625q0 1.859375 -0.4375 3.203125q-0.4375 1.34375 -1.546875 2.046875q-1.09375 0.703125 -3.078125 0.703125zm13.027039 0q-1.4375 0 -2.328125 -0.53125q-0.875 -0.546875 -1.28125 -1.53125q-0.390625 -1.0 -0.390625 -2.34375l0 -12.0625l-1.953125 0l0 -2.28125l1.953125 0l0 -5.40625l3.421875 0l0 5.40625l2.984375 0l0 2.28125l-2.984375 0l0 11.828125q0 1.09375 0.34375 1.5625q0.359375 0.453125 1.359375 0.453125q0.25 0 0.578125 -0.03125q0.34375 -0.03125 0.671875 -0.0625l0 2.53125q-0.640625 0.09375 -1.1875 0.140625q-0.546875 0.046875 -1.1875 0.046875zm5.152893 -0.25l0 -18.5l3.421875 0l0 18.5l-3.421875 0zm0 -21.25l0 -3.578125l3.421875 0l0 3.578125l-3.421875 0zm7.109253 21.25l0 -18.5l3.421875 0l0 1.828125q0.921875 -0.859375 2.03125 -1.46875q1.125 -0.609375 2.46875 -0.609375q1.125 0 1.71875 0.578125q0.59375 0.578125 0.828125 1.4375q0.25 0.859375 0.25 1.765625l0 14.96875l-3.421875 0l0 -13.984375q0 -0.984375 -0.296875 -1.53125q-0.28125 -0.546875 -1.1875 -0.546875q-0.578125 0 -1.203125 0.34375q-0.609375 0.328125 -1.1875 0.8125l0 14.90625l-3.421875 0zm18.84491 5.734375q-1.671875 0 -3.015625 -0.359375q-1.34375 -0.34375 -2.109375 -1.125q-0.765625 -0.765625 -0.765625 -2.015625q0 -0.890625 0.375 -1.5625q0.390625 -0.671875 1.0 -1.15625q0.609375 -0.5 1.28125 -0.828125q-0.890625 -0.25 -1.34375 -0.8125q-0.453125 -0.5625 -0.453125 -1.171875q0 -1.015625 0.546875 -1.75q0.546875 -0.75 1.5 -1.609375q-1.046875 -0.796875 -1.59375 -2.046875q-0.546875 -1.25 -0.546875 -3.453125q0 -2.1875 0.59375 -3.640625q0.59375 -1.453125 1.75 -2.203125q1.171875 -0.75 2.875 -0.75q1.5 0 2.40625 0.515625q0.921875 0.5 1.40625 1.53125q0.15625 -0.25 0.859375 -0.875q0.703125 -0.625 1.625 -1.046875l0.515625 -0.21875l0.859375 2.203125q-0.40625 0.0625 -1.09375 0.3125q-0.6875 0.234375 -1.28125 0.484375q-0.59375 0.234375 -0.75 0.390625q0.21875 0.546875 0.390625 1.578125q0.1875 1.015625 0.1875 1.8125q0 1.890625 -0.484375 3.328125q-0.484375 1.4375 -1.59375 2.265625q-1.09375 0.8125 -3.046875 0.8125q-0.421875 0 -0.90625 -0.0625q-0.46875 -0.078125 -0.859375 -0.171875q-0.1875 0.296875 -0.40625 0.6875q-0.203125 0.375 -0.203125 0.71875q0 0.359375 0.359375 0.5625q0.375 0.203125 1.1875 0.28125l2.875 0.25q2.171875 0.1875 3.21875 1.3125q1.0625 1.125 1.0625 3.203125q0 1.5 -0.703125 2.53125q-0.703125 1.046875 -2.125 1.5625q-1.421875 0.515625 -3.59375 0.515625zm0.25 -2.6875q1.828125 0 2.6875 -0.4375q0.875 -0.4375 0.875 -1.390625q0 -0.578125 -0.21875 -0.96875q-0.203125 -0.375 -0.75 -0.59375q-0.546875 -0.234375 -1.5625 -0.328125l-2.921875 -0.25q-0.34375 0.34375 -0.671875 0.703125q-0.3125 0.34375 -0.515625 0.734375q-0.1875 0.40625 -0.1875 0.859375q0 0.828125 0.703125 1.25q0.703125 0.421875 2.5625 0.421875zm-0.15625 -11.109375q0.734375 0 1.15625 -0.265625q0.4375 -0.28125 0.65625 -0.796875q0.234375 -0.53125 0.3125 -1.296875q0.078125 -0.78125 0.078125 -1.734375q0 -0.96875 -0.078125 -1.75q-0.078125 -0.78125 -0.296875 -1.34375q-0.203125 -0.5625 -0.640625 -0.84375q-0.421875 -0.296875 -1.15625 -0.296875q-0.703125 0 -1.171875 0.296875q-0.453125 0.28125 -0.6875 0.8125q-0.21875 0.53125 -0.3125 1.3125q-0.09375 0.78125 -0.09375 1.8125q0 0.859375 0.078125 1.609375q0.078125 0.75 0.3125 1.296875q0.25 0.546875 0.6875 0.875q0.453125 0.3125 1.15625 0.3125zm20.638672 8.3125q-2.265625 0 -3.65625 -1.421875q-1.375 -1.421875 -1.5625 -3.75l2.84375 -0.875q0.265625 1.765625 0.875 2.65625q0.609375 0.875 1.78125 0.875q0.9375 0 1.40625 -0.53125q0.484375 -0.53125 0.484375 -1.421875q0 -0.8125 -0.359375 -1.4375q-0.34375 -0.640625 -1.140625 -1.3125l-3.171875 -2.734375q-0.953125 -0.828125 -1.609375 -1.84375q-0.65625 -1.03125 -0.65625 -2.65625q0 -1.484375 0.59375 -2.484375q0.59375 -1.015625 1.65625 -1.53125q1.078125 -0.53125 2.515625 -0.53125q2.203125 0 3.375 1.421875q1.171875 1.421875 1.328125 3.4375l-2.296875 0.859375q-0.140625 -0.953125 -0.390625 -1.671875q-0.25 -0.71875 -0.703125 -1.109375q-0.453125 -0.40625 -1.1875 -0.40625q-0.828125 0 -1.328125 0.5625q-0.5 0.546875 -0.5 1.3125q0 0.484375 0.203125 0.953125q0.21875 0.46875 0.734375 0.90625l3.265625 3.015625q0.671875 0.609375 1.265625 1.3125q0.59375 0.703125 0.96875 1.609375q0.390625 0.890625 0.390625 2.0625q0 1.578125 -0.640625 2.640625q-0.640625 1.046875 -1.796875 1.578125q-1.15625 0.515625 -2.6875 0.515625zm12.764893 0q-2.046875 0 -3.234375 -0.828125q-1.171875 -0.828125 -1.671875 -2.359375q-0.5 -1.546875 -0.5 -3.625l0 -5.375q0 -2.078125 0.5 -3.609375q0.5 -1.546875 1.671875 -2.375q1.1875 -0.828125 3.234375 -0.828125q2.046875 0 3.21875 0.828125q1.171875 0.828125 1.65625 2.375q0.5 1.53125 0.5 3.609375l0 5.375q0 2.078125 -0.5 3.625q-0.484375 1.53125 -1.65625 2.359375q-1.171875 0.828125 -3.21875 0.828125zm0 -2.515625q1.0 0 1.390625 -0.578125q0.40625 -0.578125 0.484375 -1.515625q0.078125 -0.953125 0.078125 -1.984375l0 -5.78125q0 -1.0625 -0.078125 -1.984375q-0.078125 -0.9375 -0.484375 -1.515625q-0.390625 -0.59375 -1.390625 -0.59375q-0.984375 0 -1.40625 0.59375q-0.421875 0.578125 -0.5 1.515625q-0.078125 0.921875 -0.078125 1.984375l0 5.78125q0 1.03125 0.078125 1.984375q0.078125 0.9375 0.5 1.515625q0.421875 0.578125 1.40625 0.578125zm8.521912 2.265625l0 -18.5l3.15625 0l0 1.765625q0.9375 -1.0625 2.046875 -1.5625q1.125 -0.515625 2.3125 -0.515625q1.015625 0 1.828125 0.515625q0.828125 0.5 1.171875 1.8125q1.0 -1.21875 2.15625 -1.765625q1.171875 -0.5625 2.453125 -0.5625q0.90625 0 1.640625 0.4375q0.734375 0.421875 1.171875 1.375q0.453125 0.9375 0.453125 2.46875l0 14.53125l-3.140625 0l0 -14.296875q0 -1.34375 -0.4375 -1.8125q-0.421875 -0.46875 -1.15625 -0.46875q-0.703125 0 -1.46875 0.40625q-0.765625 0.390625 -1.40625 1.09375q0 0.140625 0 0.265625q0 0.125 0 0.28125l0 14.53125l-3.140625 0l0 -14.296875q0 -1.34375 -0.4375 -1.8125q-0.421875 -0.46875 -1.15625 -0.46875q-0.703125 0 -1.46875 0.40625q-0.75 0.390625 -1.421875 1.09375l0 15.078125l-3.15625 0zm26.869415 0.25q-2.171875 0 -3.359375 -0.84375q-1.1875 -0.84375 -1.65625 -2.484375q-0.453125 -1.65625 -0.453125 -4.0625l0 -4.21875q0 -2.46875 0.484375 -4.09375q0.484375 -1.640625 1.671875 -2.46875q1.203125 -0.828125 3.3125 -0.828125q2.34375 0 3.4375 0.96875q1.109375 0.953125 1.453125 2.765625q0.359375 1.796875 0.359375 4.328125l0 1.5l-7.296875 0l0 3.71875q0 1.109375 0.203125 1.828125q0.21875 0.703125 0.671875 1.046875q0.46875 0.328125 1.203125 0.328125q0.765625 0 1.171875 -0.375q0.40625 -0.375 0.546875 -1.0625q0.140625 -0.6875 0.140625 -1.609375l0 -1.125l3.328125 0l0 0.703125q0 2.796875 -1.1875 4.390625q-1.171875 1.59375 -4.03125 1.59375zm-2.046875 -11.296875l3.9375 0l0 -1.65625q0 -1.15625 -0.125 -1.9375q-0.125 -0.78125 -0.53125 -1.171875q-0.390625 -0.40625 -1.265625 -0.40625q-0.828125 0 -1.265625 0.390625q-0.421875 0.375 -0.59375 1.296875q-0.15625 0.90625 -0.15625 2.5l0 0.984375zm15.33139 11.296875q-1.4375 0 -2.328125 -0.53125q-0.875 -0.546875 -1.28125 -1.53125q-0.390625 -1.0 -0.390625 -2.34375l0 -12.0625l-1.953125 0l0 -2.28125l1.953125 0l0 -5.40625l3.421875 0l0 5.40625l2.984375 0l0 2.28125l-2.984375 0l0 11.828125q0 1.09375 0.34375 1.5625q0.359375 0.453125 1.359375 0.453125q0.25 0 0.578125 -0.03125q0.34375 -0.03125 0.671875 -0.0625l0 2.53125q-0.640625 0.09375 -1.1875 0.140625q-0.546875 0.046875 -1.1875 0.046875zm5.027893 -0.25l0 -25.921875l3.421875 0l0 9.34375q0.921875 -0.890625 2.078125 -1.53125q1.15625 -0.640625 2.5625 -0.640625q1.078125 0 1.671875 0.578125q0.59375 0.578125 0.828125 1.4375q0.25 0.859375 0.25 1.765625l0 14.96875l-3.421875 0l0 -13.984375q0 -0.984375 -0.296875 -1.53125q-0.28125 -0.546875 -1.171875 -0.546875q-0.609375 0 -1.265625 0.359375q-0.65625 0.34375 -1.234375 0.859375l0 14.84375l-3.421875 0zm14.365051 0l0 -18.5l3.421875 0l0 18.5l-3.421875 0zm0 -21.25l0 -3.578125l3.421875 0l0 3.578125l-3.421875 0zm7.109253 21.25l0 -18.5l3.421875 0l0 1.828125q0.921875 -0.859375 2.03125 -1.46875q1.125 -0.609375 2.46875 -0.609375q1.125 0 1.71875 0.578125q0.59375 0.578125 0.828125 1.4375q0.25 0.859375 0.25 1.765625l0 14.96875l-3.421875 0l0 -13.984375q0 -0.984375 -0.296875 -1.53125q-0.28125 -0.546875 -1.1875 -0.546875q-0.578125 0 -1.203125 0.34375q-0.609375 0.328125 -1.1875 0.8125l0 14.90625l-3.421875 0zm18.84491 5.734375q-1.671875 0 -3.015625 -0.359375q-1.34375 -0.34375 -2.109375 -1.125q-0.765625 -0.765625 -0.765625 -2.015625q0 -0.890625 0.375 -1.5625q0.390625 -0.671875 1.0 -1.15625q0.609375 -0.5 1.28125 -0.828125q-0.890625 -0.25 -1.34375 -0.8125q-0.453125 -0.5625 -0.453125 -1.171875q0 -1.015625 0.546875 -1.75q0.546875 -0.75 1.5 -1.609375q-1.046875 -0.796875 -1.59375 -2.046875q-0.546875 -1.25 -0.546875 -3.453125q0 -2.1875 0.59375 -3.640625q0.59375 -1.453125 1.75 -2.203125q1.171875 -0.75 2.875 -0.75q1.5 0 2.40625 0.515625q0.921875 0.5 1.40625 1.53125q0.15625 -0.25 0.859375 -0.875q0.703125 -0.625 1.625 -1.046875l0.515625 -0.21875l0.859375 2.203125q-0.40625 0.0625 -1.09375 0.3125q-0.6875 0.234375 -1.28125 0.484375q-0.59375 0.234375 -0.75 0.390625q0.21875 0.546875 0.390625 1.578125q0.1875 1.015625 0.1875 1.8125q0 1.890625 -0.484375 3.328125q-0.484375 1.4375 -1.59375 2.265625q-1.09375 0.8125 -3.046875 0.8125q-0.421875 0 -0.90625 -0.0625q-0.46875 -0.078125 -0.859375 -0.171875q-0.1875 0.296875 -0.40625 0.6875q-0.203125 0.375 -0.203125 0.71875q0 0.359375 0.359375 0.5625q0.375 0.203125 1.1875 0.28125l2.875 0.25q2.171875 0.1875 3.21875 1.3125q1.0625 1.125 1.0625 3.203125q0 1.5 -0.703125 2.53125q-0.703125 1.046875 -2.125 1.5625q-1.421875 0.515625 -3.59375 0.515625zm0.25 -2.6875q1.828125 0 2.6875 -0.4375q0.875 -0.4375 0.875 -1.390625q0 -0.578125 -0.21875 -0.96875q-0.203125 -0.375 -0.75 -0.59375q-0.546875 -0.234375 -1.5625 -0.328125l-2.921875 -0.25q-0.34375 0.34375 -0.671875 0.703125q-0.3125 0.34375 -0.515625 0.734375q-0.1875 0.40625 -0.1875 0.859375q0 0.828125 0.703125 1.25q0.703125 0.421875 2.5625 0.421875zm-0.15625 -11.109375q0.734375 0 1.15625 -0.265625q0.4375 -0.28125 0.65625 -0.796875q0.234375 -0.53125 0.3125 -1.296875q0.078125 -0.78125 0.078125 -1.734375q0 -0.96875 -0.078125 -1.75q-0.078125 -0.78125 -0.296875 -1.34375q-0.203125 -0.5625 -0.640625 -0.84375q-0.421875 -0.296875 -1.15625 -0.296875q-0.703125 0 -1.171875 0.296875q-0.453125 0.28125 -0.6875 0.8125q-0.21875 0.53125 -0.3125 1.3125q-0.09375 0.78125 -0.09375 1.8125q0 0.859375 0.078125 1.609375q0.078125 0.75 0.3125 1.296875q0.25 0.546875 0.6875 0.875q0.453125 0.3125 1.15625 0.3125zm21.279297 8.3125q-1.4375 0 -2.328125 -0.53125q-0.875 -0.546875 -1.28125 -1.53125q-0.390625 -1.0 -0.390625 -2.34375l0 -12.0625l-1.953125 0l0 -2.28125l1.953125 0l0 -5.40625l3.421875 0l0 5.40625l2.984375 0l0 2.28125l-2.984375 0l0 11.828125q0 1.09375 0.34375 1.5625q0.359375 0.453125 1.359375 0.453125q0.25 0 0.578125 -0.03125q0.34375 -0.03125 0.671875 -0.0625l0 2.53125q-0.640625 0.09375 -1.1875 0.140625q-0.546875 0.046875 -1.1875 0.046875zm5.027893 -0.25l0 -25.921875l3.421875 0l0 9.34375q0.921875 -0.890625 2.078125 -1.53125q1.15625 -0.640625 2.5625 -0.640625q1.078125 0 1.671875 0.578125q0.59375 0.578125 0.828125 1.4375q0.25 0.859375 0.25 1.765625l0 14.96875l-3.421875 0l0 -13.984375q0 -0.984375 -0.296875 -1.53125q-0.28125 -0.546875 -1.171875 -0.546875q-0.609375 0 -1.265625 0.359375q-0.65625 0.34375 -1.234375 0.859375l0 14.84375l-3.421875 0zm17.474426 0.25q-1.09375 0 -1.9375 -0.609375q-0.828125 -0.625 -1.3125 -1.59375q-0.46875 -0.984375 -0.46875 -2.078125q0 -1.734375 0.578125 -2.90625q0.578125 -1.1875 1.578125 -2.0q1.015625 -0.828125 2.34375 -1.421875q1.328125 -0.609375 2.796875 -1.1875l0 -1.3125q0 -1.125 -0.125 -1.859375q-0.125 -0.734375 -0.53125 -1.09375q-0.40625 -0.375 -1.203125 -0.375q-0.703125 0 -1.140625 0.328125q-0.421875 0.3125 -0.625 0.90625q-0.1875 0.578125 -0.1875 1.390625l0 0.921875l-3.390625 -0.125q0.0625 -3.078125 1.40625 -4.53125q1.34375 -1.453125 4.171875 -1.453125q2.75 0 3.890625 1.5q1.15625 1.5 1.15625 4.359375l0 8.4375q0 0.875 0.046875 1.671875q0.046875 0.796875 0.125 1.484375q0.078125 0.6875 0.15625 1.296875l-3.140625 0q-0.09375 -0.515625 -0.25 -1.296875q-0.140625 -0.78125 -0.203125 -1.421875q-0.3125 1.09375 -1.234375 2.03125q-0.90625 0.9375 -2.5 0.9375zm1.34375 -2.9375q0.5 0 0.953125 -0.28125q0.453125 -0.296875 0.796875 -0.65625q0.359375 -0.375 0.484375 -0.59375l0 -5.25q-0.796875 0.4375 -1.5 0.890625q-0.703125 0.453125 -1.234375 0.953125q-0.53125 0.484375 -0.84375 1.109375q-0.296875 0.625 -0.296875 1.421875q0 1.125 0.40625 1.765625q0.421875 0.640625 1.234375 0.640625zm13.626038 2.9375q-1.4375 0 -2.328125 -0.53125q-0.875 -0.546875 -1.28125 -1.53125q-0.390625 -1.0 -0.390625 -2.34375l0 -12.0625l-1.953125 0l0 -2.28125l1.953125 0l0 -5.40625l3.421875 0l0 5.40625l2.984375 0l0 2.28125l-2.984375 0l0 11.828125q0 1.09375 0.34375 1.5625q0.359375 0.453125 1.359375 0.453125q0.25 0 0.578125 -0.03125q0.34375 -0.03125 0.671875 -0.0625l0 2.53125q-0.640625 0.09375 -1.1875 0.140625q-0.546875 0.046875 -1.1875 0.046875zm16.543396 0q-2.265625 0 -3.65625 -1.421875q-1.375 -1.421875 -1.5625 -3.75l2.84375 -0.875q0.265625 1.765625 0.875 2.65625q0.609375 0.875 1.78125 0.875q0.9375 0 1.40625 -0.53125q0.484375 -0.53125 0.484375 -1.421875q0 -0.8125 -0.359375 -1.4375q-0.34375 -0.640625 -1.140625 -1.3125l-3.171875 -2.734375q-0.953125 -0.828125 -1.609375 -1.84375q-0.65625 -1.03125 -0.65625 -2.65625q0 -1.484375 0.59375 -2.484375q0.59375 -1.015625 1.65625 -1.53125q1.078125 -0.53125 2.515625 -0.53125q2.203125 0 3.375 1.421875q1.171875 1.421875 1.328125 3.4375l-2.296875 0.859375q-0.140625 -0.953125 -0.390625 -1.671875q-0.25 -0.71875 -0.703125 -1.109375q-0.453125 -0.40625 -1.1875 -0.40625q-0.828125 0 -1.328125 0.5625q-0.5 0.546875 -0.5 1.3125q0 0.484375 0.203125 0.953125q0.21875 0.46875 0.734375 0.90625l3.265625 3.015625q0.671875 0.609375 1.265625 1.3125q0.59375 0.703125 0.96875 1.609375q0.390625 0.890625 0.390625 2.0625q0 1.578125 -0.640625 2.640625q-0.640625 1.046875 -1.796875 1.578125q-1.15625 0.515625 -2.6875 0.515625zm7.7805176 -0.25l0 -25.921875l3.421875 0l0 9.34375q0.921875 -0.890625 2.078125 -1.53125q1.15625 -0.640625 2.5625 -0.640625q1.078125 0 1.671875 0.578125q0.59375 0.578125 0.828125 1.4375q0.25 0.859375 0.25 1.765625l0 14.96875l-3.421875 0l0 -13.984375q0 -0.984375 -0.296875 -1.53125q-0.28125 -0.546875 -1.171875 -0.546875q-0.609375 0 -1.265625 0.359375q-0.65625 0.34375 -1.234375 0.859375l0 14.84375l-3.421875 0zm19.224426 0.25q-2.046875 0 -3.234375 -0.828125q-1.171875 -0.828125 -1.671875 -2.359375q-0.5 -1.546875 -0.5 -3.625l0 -5.375q0 -2.078125 0.5 -3.609375q0.5 -1.546875 1.671875 -2.375q1.1875 -0.828125 3.234375 -0.828125q2.046875 0 3.21875 0.828125q1.171875 0.828125 1.65625 2.375q0.5 1.53125 0.5 3.609375l0 5.375q0 2.078125 -0.5 3.625q-0.484375 1.53125 -1.65625 2.359375q-1.171875 0.828125 -3.21875 0.828125zm0 -2.515625q1.0 0 1.390625 -0.578125q0.40625 -0.578125 0.484375 -1.515625q0.078125 -0.953125 0.078125 -1.984375l0 -5.78125q0 -1.0625 -0.078125 -1.984375q-0.078125 -0.9375 -0.484375 -1.515625q-0.390625 -0.59375 -1.390625 -0.59375q-0.984375 0 -1.40625 0.59375q-0.421875 0.578125 -0.5 1.515625q-0.078125 0.921875 -0.078125 1.984375l0 5.78125q0 1.03125 0.078125 1.984375q0.078125 0.9375 0.5 1.515625q0.421875 0.578125 1.40625 0.578125zm11.178162 2.515625q-1.09375 0 -1.703125 -0.5625q-0.609375 -0.578125 -0.859375 -1.4375q-0.234375 -0.875 -0.234375 -1.765625l0 -14.984375l3.4375 0l0 13.953125q0 1.0 0.28125 1.5625q0.28125 0.546875 1.1875 0.546875q0.578125 0 1.1875 -0.328125q0.625 -0.34375 1.203125 -0.8125l0 -14.921875l3.421875 0l0 18.5l-3.421875 0l0 -1.828125q-0.890625 0.875 -2.03125 1.484375q-1.125 0.59375 -2.46875 0.59375zm11.736267 -0.25l0 -25.921875l3.421875 0l0 25.921875l-3.421875 0zm11.296753 0.25q-2.328125 0 -3.484375 -1.703125q-1.15625 -1.71875 -1.15625 -5.8125l0 -3.578125q0 -2.109375 0.34375 -3.921875q0.359375 -1.8125 1.328125 -2.890625q0.984375 -1.09375 2.875 -1.09375q0.921875 0 1.6875 0.421875q0.78125 0.40625 1.375 1.015625l0 -8.609375l3.4375 0l0 25.921875l-3.4375 0l0 -1.1875q-0.59375 0.640625 -1.328125 1.046875q-0.71875 0.390625 -1.640625 0.390625zm0.859375 -2.6875q0.484375 0 1.03125 -0.171875q0.546875 -0.171875 1.078125 -0.53125l0 -12.125q-0.4375 -0.3125 -0.984375 -0.546875q-0.546875 -0.25 -1.1875 -0.25q-1.1875 0 -1.609375 1.140625q-0.40625 1.125 -0.40625 2.734375l0 5.21875q0 1.265625 0.140625 2.3125q0.15625 1.046875 0.59375 1.640625q0.453125 0.578125 1.34375 0.578125zm16.33142 2.4375l0 -18.5l3.421875 0l0 1.828125q0.921875 -0.859375 2.03125 -1.46875q1.125 -0.609375 2.46875 -0.609375q1.125 0 1.71875 0.578125q0.59375 0.578125 0.828125 1.4375q0.25 0.859375 0.25 1.765625l0 14.96875l-3.421875 0l0 -13.984375q0 -0.984375 -0.296875 -1.53125q-0.28125 -0.546875 -1.1875 -0.546875q-0.578125 0 -1.203125 0.34375q-0.609375 0.328125 -1.1875 0.8125l0 14.90625l-3.421875 0zm19.12616 0.25q-2.046875 0 -3.234375 -0.828125q-1.171875 -0.828125 -1.671875 -2.359375q-0.5 -1.546875 -0.5 -3.625l0 -5.375q0 -2.078125 0.5 -3.609375q0.5 -1.546875 1.671875 -2.375q1.1875 -0.828125 3.234375 -0.828125q2.046875 0 3.21875 0.828125q1.171875 0.828125 1.65625 2.375q0.5 1.53125 0.5 3.609375l0 5.375q0 2.078125 -0.5 3.625q-0.484375 1.53125 -1.65625 2.359375q-1.171875 0.828125 -3.21875 0.828125zm0 -2.515625q1.0 0 1.390625 -0.578125q0.40625 -0.578125 0.484375 -1.515625q0.078125 -0.953125 0.078125 -1.984375l0 -5.78125q0 -1.0625 -0.078125 -1.984375q-0.078125 -0.9375 -0.484375 -1.515625q-0.390625 -0.59375 -1.390625 -0.59375q-0.984375 0 -1.40625 0.59375q-0.421875 0.578125 -0.5 1.515625q-0.078125 0.921875 -0.078125 1.984375l0 5.78125q0 1.03125 0.078125 1.984375q0.078125 0.9375 0.5 1.515625q0.421875 0.578125 1.40625 0.578125zm13.443787 2.515625q-1.4375 0 -2.328125 -0.53125q-0.875 -0.546875 -1.28125 -1.53125q-0.390625 -1.0 -0.390625 -2.34375l0 -12.0625l-1.953125 0l0 -2.28125l1.953125 0l0 -5.40625l3.421875 0l0 5.40625l2.984375 0l0 2.28125l-2.984375 0l0 11.828125q0 1.09375 0.34375 1.5625q0.359375 0.453125 1.359375 0.453125q0.25 0 0.578125 -0.03125q0.34375 -0.03125 0.671875 -0.0625l0 2.53125q-0.640625 0.09375 -1.1875 0.140625q-0.546875 0.046875 -1.1875 0.046875zm18.887146 0q-1.0 0 -1.78125 -0.484375q-0.78125 -0.5 -1.359375 -1.109375l0 1.34375l-3.421875 0l0 -25.921875l3.421875 0l0 8.890625q0.609375 -0.703125 1.453125 -1.203125q0.84375 -0.515625 2.03125 -0.515625q1.4375 0 2.28125 0.75q0.859375 0.75 1.265625 1.890625q0.421875 1.140625 0.546875 2.3125q0.125 1.15625 0.125 1.984375l0 4.484375q0 1.953125 -0.390625 3.703125q-0.375 1.734375 -1.375 2.8125q-0.984375 1.0625 -2.796875 1.0625zm-0.71875 -2.6875q0.90625 0 1.28125 -0.65625q0.390625 -0.65625 0.484375 -1.765625q0.09375 -1.125 0.09375 -2.46875l0 -4.484375q0 -1.140625 -0.125 -2.109375q-0.125 -0.984375 -0.546875 -1.5625q-0.40625 -0.578125 -1.3125 -0.578125q-0.671875 0 -1.265625 0.296875q-0.59375 0.28125 -1.03125 0.625l0 11.875q0.4375 0.359375 1.0625 0.59375q0.625 0.234375 1.359375 0.234375zm13.507141 2.6875q-2.171875 0 -3.359375 -0.84375q-1.1875 -0.84375 -1.65625 -2.484375q-0.453125 -1.65625 -0.453125 -4.0625l0 -4.21875q0 -2.46875 0.484375 -4.09375q0.484375 -1.640625 1.671875 -2.46875q1.203125 -0.828125 3.3125 -0.828125q2.34375 0 3.4375 0.96875q1.109375 0.953125 1.453125 2.765625q0.359375 1.796875 0.359375 4.328125l0 1.5l-7.296875 0l0 3.71875q0 1.109375 0.203125 1.828125q0.21875 0.703125 0.671875 1.046875q0.46875 0.328125 1.203125 0.328125q0.765625 0 1.171875 -0.375q0.40625 -0.375 0.546875 -1.0625q0.140625 -0.6875 0.140625 -1.609375l0 -1.125l3.328125 0l0 0.703125q0 2.796875 -1.1875 4.390625q-1.171875 1.59375 -4.03125 1.59375zm-2.046875 -11.296875l3.9375 0l0 -1.65625q0 -1.15625 -0.125 -1.9375q-0.125 -0.78125 -0.53125 -1.171875q-0.390625 -0.40625 -1.265625 -0.40625q-0.828125 0 -1.265625 0.390625q-0.421875 0.375 -0.59375 1.296875q-0.15625 0.90625 -0.15625 2.5l0 0.984375zm22.815674 11.296875q-2.046875 0 -3.234375 -0.828125q-1.171875 -0.828125 -1.671875 -2.359375q-0.5 -1.546875 -0.5 -3.625l0 -5.375q0 -2.078125 0.5 -3.609375q0.5 -1.546875 1.671875 -2.375q1.1875 -0.828125 3.234375 -0.828125q2.046875 0 3.21875 0.828125q1.171875 0.828125 1.65625 2.375q0.5 1.53125 0.5 3.609375l0 5.375q0 2.078125 -0.5 3.625q-0.484375 1.53125 -1.65625 2.359375q-1.171875 0.828125 -3.21875 0.828125zm0 -2.515625q1.0 0 1.390625 -0.578125q0.40625 -0.578125 0.484375 -1.515625q0.078125 -0.953125 0.078125 -1.984375l0 -5.78125q0 -1.0625 -0.078125 -1.984375q-0.078125 -0.9375 -0.484375 -1.515625q-0.390625 -0.59375 -1.390625 -0.59375q-0.984375 0 -1.40625 0.59375q-0.421875 0.578125 -0.5 1.515625q-0.078125 0.921875 -0.078125 1.984375l0 5.78125q0 1.03125 0.078125 1.984375q0.078125 0.9375 0.5 1.515625q0.421875 0.578125 1.40625 0.578125zm10.406555 2.265625l-2.984375 -18.5l2.828125 0l1.90625 13.640625l2.46875 -13.640625l2.625 0l2.46875 13.578125l1.921875 -13.578125l2.8125 0l-3.078125 18.5l-2.875 0l-2.53125 -13.0625l-2.5 13.0625l-3.0625 0zm16.675415 0l0 -18.5l3.421875 0l0 1.828125q0.921875 -0.859375 2.03125 -1.46875q1.125 -0.609375 2.46875 -0.609375q1.125 0 1.71875 0.578125q0.59375 0.578125 0.828125 1.4375q0.25 0.859375 0.25 1.765625l0 14.96875l-3.421875 0l0 -13.984375q0 -0.984375 -0.296875 -1.53125q-0.28125 -0.546875 -1.1875 -0.546875q-0.578125 0 -1.203125 0.34375q-0.609375 0.328125 -1.1875 0.8125l0 14.90625l-3.421875 0zm19.15741 0.25q-2.171875 0 -3.359375 -0.84375q-1.1875 -0.84375 -1.65625 -2.484375q-0.453125 -1.65625 -0.453125 -4.0625l0 -4.21875q0 -2.46875 0.484375 -4.09375q0.484375 -1.640625 1.671875 -2.46875q1.203125 -0.828125 3.3125 -0.828125q2.34375 0 3.4375 0.96875q1.109375 0.953125 1.453125 2.765625q0.359375 1.796875 0.359375 4.328125l0 1.5l-7.296875 0l0 3.71875q0 1.109375 0.203125 1.828125q0.21875 0.703125 0.671875 1.046875q0.46875 0.328125 1.203125 0.328125q0.765625 0 1.171875 -0.375q0.40625 -0.375 0.546875 -1.0625q0.140625 -0.6875 0.140625 -1.609375l0 -1.125l3.328125 0l0 0.703125q0 2.796875 -1.1875 4.390625q-1.171875 1.59375 -4.03125 1.59375zm-2.046875 -11.296875l3.9375 0l0 -1.65625q0 -1.15625 -0.125 -1.9375q-0.125 -0.78125 -0.53125 -1.171875q-0.390625 -0.40625 -1.265625 -0.40625q-0.828125 0 -1.265625 0.390625q-0.421875 0.375 -0.59375 1.296875q-0.15625 0.90625 -0.15625 2.5l0 0.984375zm14.690796 11.296875q-2.328125 0 -3.484375 -1.703125q-1.15625 -1.71875 -1.15625 -5.8125l0 -3.578125q0 -2.109375 0.34375 -3.921875q0.359375 -1.8125 1.328125 -2.890625q0.984375 -1.09375 2.875 -1.09375q0.921875 0 1.6875 0.421875q0.78125 0.40625 1.375 1.015625l0 -8.609375l3.4375 0l0 25.921875l-3.4375 0l0 -1.1875q-0.59375 0.640625 -1.328125 1.046875q-0.71875 0.390625 -1.640625 0.390625zm0.859375 -2.6875q0.484375 0 1.03125 -0.171875q0.546875 -0.171875 1.078125 -0.53125l0 -12.125q-0.4375 -0.3125 -0.984375 -0.546875q-0.546875 -0.25 -1.1875 -0.25q-1.1875 0 -1.609375 1.140625q-0.40625 1.125 -0.40625 2.734375l0 5.21875q0 1.265625 0.140625 2.3125q0.15625 1.046875 0.59375 1.640625q0.453125 0.578125 1.34375 0.578125zm8.831543 2.4375l0 -3.8125l3.421875 0l0 3.8125l-3.421875 0z" fill-rule="nonzero"/><path fill="#ffffff" d="m58.695744 244.26843l0 -7.9375l3.109375 0l-1.25 7.9375l-1.859375 0zm4.453125 0l0 -7.9375l3.0937462 0l-1.25 7.9375l-1.8437462 0zm10.07452 18.234375q-1.4375 0 -2.328125 -0.53125q-0.875 -0.546875 -1.28125 -1.53125q-0.390625 -1.0 -0.390625 -2.34375l0 -12.0625l-1.953125 0l0 -2.28125l1.953125 0l0 -5.40625l3.421875 0l0 5.40625l2.984375 0l0 2.28125l-2.984375 0l0 11.828125q0 1.09375 0.34375 1.5625q0.359375 0.453125 1.359375 0.453125q0.25 0 0.578125 -0.03125q0.34375 -0.03125 0.671875 -0.0625l0 2.53125q-0.640625 0.09375 -1.1875 0.140625q-0.546875 0.046875 -1.1875 0.046875zm5.027893 -0.25l0 -25.921875l3.421875 0l0 9.34375q0.921875 -0.890625 2.078125 -1.53125q1.15625 -0.640625 2.5625 -0.640625q1.078125 0 1.671875 0.578125q0.59375 0.578125 0.828125 1.4375q0.25 0.859375 0.25 1.765625l0 14.96875l-3.421875 0l0 -13.984375q0 -0.984375 -0.296875 -1.53125q-0.28125 -0.546875 -1.171875 -0.546875q-0.609375 0 -1.265625 0.359375q-0.65625 0.34375 -1.234375 0.859375l0 14.84375l-3.421875 0zm19.255661 0.25q-2.171875 0 -3.359375 -0.84375q-1.1875 -0.84375 -1.65625 -2.484375q-0.453125 -1.65625 -0.453125 -4.0625l0 -4.21875q0 -2.46875 0.484375 -4.09375q0.484375 -1.640625 1.671875 -2.46875q1.203125 -0.828125 3.3125 -0.828125q2.34375 0 3.4375 0.96875q1.109375 0.953125 1.453125 2.765625q0.359375 1.796875 0.359375 4.328125l0 1.5l-7.296875 0l0 3.71875q0 1.109375 0.203125 1.828125q0.21875 0.703125 0.671875 1.046875q0.46875 0.328125 1.203125 0.328125q0.765625 0 1.171875 -0.375q0.40625 -0.375 0.546875 -1.0625q0.140625 -0.6875 0.140625 -1.609375l0 -1.125l3.328125 0l0 0.703125q0 2.796875 -1.1875 4.390625q-1.171875 1.59375 -4.03125 1.59375zm-2.046875 -11.296875l3.9375 0l0 -1.65625q0 -1.15625 -0.125 -1.9375q-0.125 -0.78125 -0.53125 -1.171875q-0.390625 -0.40625 -1.265625 -0.40625q-0.828125 0 -1.265625 0.390625q-0.421875 0.375 -0.59375 1.296875q-0.15625 0.90625 -0.15625 2.5l0 0.984375zm17.831299 11.046875l0 -25.921875l3.421875 0l0 9.34375q0.921875 -0.890625 2.078125 -1.53125q1.15625 -0.640625 2.5625 -0.640625q1.078125 0 1.671875 0.578125q0.59375 0.578125 0.828125 1.4375q0.25 0.859375 0.25 1.765625l0 14.96875l-3.421875 0l0 -13.984375q0 -0.984375 -0.296875 -1.53125q-0.28125 -0.546875 -1.171875 -0.546875q-0.609375 0 -1.265625 0.359375q-0.65625 0.34375 -1.234375 0.859375l0 14.84375l-3.421875 0zm19.224411 0.25q-2.046875 0 -3.234375 -0.828125q-1.171875 -0.828125 -1.671875 -2.359375q-0.5 -1.546875 -0.5 -3.625l0 -5.375q0 -2.078125 0.5 -3.609375q0.5 -1.546875 1.671875 -2.375q1.1875 -0.828125 3.234375 -0.828125q2.046875 0 3.21875 0.828125q1.171875 0.828125 1.65625 2.375q0.5 1.53125 0.5 3.609375l0 5.375q0 2.078125 -0.5 3.625q-0.484375 1.53125 -1.65625 2.359375q-1.171875 0.828125 -3.21875 0.828125zm0 -2.515625q1.0 0 1.390625 -0.578125q0.40625 -0.578125 0.484375 -1.515625q0.078125 -0.953125 0.078125 -1.984375l0 -5.78125q0 -1.0625 -0.078125 -1.984375q-0.078125 -0.9375 -0.484375 -1.515625q-0.390625 -0.59375 -1.390625 -0.59375q-0.984375 0 -1.40625 0.59375q-0.421875 0.578125 -0.5 1.515625q-0.078125 0.921875 -0.078125 1.984375l0 5.78125q0 1.03125 0.078125 1.984375q0.078125 0.9375 0.5 1.515625q0.421875 0.578125 1.40625 0.578125zm8.521896 2.265625l0 -18.5l3.421875 0l0 1.828125q0.921875 -0.859375 2.03125 -1.46875q1.125 -0.609375 2.46875 -0.609375q1.125 0 1.71875 0.578125q0.59375 0.578125 0.828125 1.4375q0.25 0.859375 0.25 1.765625l0 14.96875l-3.421875 0l0 -13.984375q0 -0.984375 -0.296875 -1.53125q-0.28125 -0.546875 -1.1875 -0.546875q-0.578125 0 -1.203125 0.34375q-0.609375 0.328125 -1.1875 0.8125l0 14.90625l-3.421875 0zm19.12616 0.25q-2.046875 0 -3.234375 -0.828125q-1.171875 -0.828125 -1.671875 -2.359375q-0.5 -1.546875 -0.5 -3.625l0 -5.375q0 -2.078125 0.5 -3.609375q0.5 -1.546875 1.671875 -2.375q1.1875 -0.828125 3.234375 -0.828125q2.046875 0 3.21875 0.828125q1.171875 0.828125 1.65625 2.375q0.5 1.53125 0.5 3.609375l0 5.375q0 2.078125 -0.5 3.625q-0.484375 1.53125 -1.65625 2.359375q-1.171875 0.828125 -3.21875 0.828125zm0 -2.515625q1.0 0 1.390625 -0.578125q0.40625 -0.578125 0.484375 -1.515625q0.078125 -0.953125 0.078125 -1.984375l0 -5.78125q0 -1.0625 -0.078125 -1.984375q-0.078125 -0.9375 -0.484375 -1.515625q-0.390625 -0.59375 -1.390625 -0.59375q-0.984375 0 -1.40625 0.59375q-0.421875 0.578125 -0.5 1.515625q-0.078125 0.921875 -0.078125 1.984375l0 5.78125q0 1.03125 0.078125 1.984375q0.078125 0.9375 0.5 1.515625q0.421875 0.578125 1.40625 0.578125zm11.178146 2.515625q-1.09375 0 -1.703125 -0.5625q-0.609375 -0.578125 -0.859375 -1.4375q-0.234375 -0.875 -0.234375 -1.765625l0 -14.984375l3.4375 0l0 13.953125q0 1.0 0.28125 1.5625q0.28125 0.546875 1.1875 0.546875q0.578125 0 1.1875 -0.328125q0.625 -0.34375 1.203125 -0.8125l0 -14.921875l3.421875 0l0 18.5l-3.421875 0l0 -1.828125q-0.890625 0.875 -2.03125 1.484375q-1.125 0.59375 -2.46875 0.59375zm11.517532 -0.25l0 -18.5l3.421875 0l0 2.625q1.015625 -1.6875 2.03125 -2.265625q1.03125 -0.578125 2.0625 -0.578125q0.125 0 0.234375 0q0.125 0 0.3125 0.03125l0 3.78125q-0.390625 -0.171875 -0.890625 -0.28125q-0.484375 -0.109375 -1.0 -0.109375q-0.796875 0 -1.453125 0.375q-0.65625 0.359375 -1.296875 1.421875l0 13.5l-3.421875 0zm14.459518 0.25q-2.265625 0 -3.65625 -1.421875q-1.375 -1.421875 -1.5625 -3.75l2.84375 -0.875q0.265625 1.765625 0.875 2.65625q0.609375 0.875 1.78125 0.875q0.9375 0 1.40625 -0.53125q0.484375 -0.53125 0.484375 -1.421875q0 -0.8125 -0.359375 -1.4375q-0.34375 -0.640625 -1.140625 -1.3125l-3.171875 -2.734375q-0.953125 -0.828125 -1.609375 -1.84375q-0.65625 -1.03125 -0.65625 -2.65625q0 -1.484375 0.59375 -2.484375q0.59375 -1.015625 1.65625 -1.53125q1.078125 -0.53125 2.515625 -0.53125q2.203125 0 3.375 1.421875q1.171875 1.421875 1.328125 3.4375l-2.296875 0.859375q-0.140625 -0.953125 -0.390625 -1.671875q-0.25 -0.71875 -0.703125 -1.109375q-0.453125 -0.40625 -1.1875 -0.40625q-0.828125 0 -1.328125 0.5625q-0.5 0.546875 -0.5 1.3125q0 0.484375 0.203125 0.953125q0.21875 0.46875 0.734375 0.90625l3.265625 3.015625q0.671875 0.609375 1.265625 1.3125q0.59375 0.703125 0.96875 1.609375q0.390625 0.890625 0.390625 2.0625q0 1.578125 -0.640625 2.640625q-0.640625 1.046875 -1.796875 1.578125q-1.15625 0.515625 -2.6875 0.515625zm7.7805176 -0.25l0 -25.921875l3.421875 0l0 9.34375q0.921875 -0.890625 2.078125 -1.53125q1.15625 -0.640625 2.5625 -0.640625q1.078125 0 1.671875 0.578125q0.59375 0.578125 0.828125 1.4375q0.25 0.859375 0.25 1.765625l0 14.96875l-3.421875 0l0 -13.984375q0 -0.984375 -0.296875 -1.53125q-0.28125 -0.546875 -1.171875 -0.546875q-0.609375 0 -1.265625 0.359375q-0.65625 0.34375 -1.234375 0.859375l0 14.84375l-3.421875 0zm14.365036 0l0 -18.5l3.421875 0l0 18.5l-3.421875 0zm0 -21.25l0 -3.578125l3.421875 0l0 3.578125l-3.421875 0zm7.109268 27.328125l0 -24.578125l3.421875 0l0 1.46875q0.609375 -0.703125 1.46875 -1.203125q0.859375 -0.515625 2.046875 -0.515625q1.4375 0 2.28125 0.75q0.859375 0.75 1.265625 1.890625q0.421875 1.140625 0.546875 2.3125q0.125 1.15625 0.125 1.984375l0 4.484375q0 1.953125 -0.390625 3.703125q-0.375 1.734375 -1.390625 2.8125q-1.0 1.0625 -2.828125 1.0625q-0.984375 0 -1.75 -0.484375q-0.765625 -0.5 -1.375 -1.140625l0 7.453125l-3.421875 0zm5.875 -8.515625q0.90625 0 1.28125 -0.65625q0.390625 -0.65625 0.484375 -1.765625q0.09375 -1.125 0.09375 -2.46875l0 -4.484375q0 -1.140625 -0.125 -2.109375q-0.125 -0.984375 -0.546875 -1.5625q-0.40625 -0.578125 -1.3125 -0.578125q-0.671875 0 -1.28125 0.296875q-0.609375 0.28125 -1.046875 0.65625l0 11.84375q0.46875 0.359375 1.078125 0.59375q0.609375 0.234375 1.375 0.234375zm20.803177 2.6875q-2.046875 0 -3.234375 -0.828125q-1.171875 -0.828125 -1.671875 -2.359375q-0.5 -1.546875 -0.5 -3.625l0 -5.375q0 -2.078125 0.5 -3.609375q0.5 -1.546875 1.671875 -2.375q1.1875 -0.828125 3.234375 -0.828125q2.046875 0 3.2187653 0.828125q1.171875 0.828125 1.65625 2.375q0.5 1.53125 0.5 3.609375l0 5.375q0 2.078125 -0.5 3.625q-0.484375 1.53125 -1.65625 2.359375q-1.1718903 0.828125 -3.2187653 0.828125zm0 -2.515625q1.0 0 1.390625 -0.578125q0.40625 -0.578125 0.484375 -1.515625q0.078125 -0.953125 0.078125 -1.984375l0 -5.78125q0 -1.0625 -0.078125 -1.984375q-0.078125 -0.9375 -0.484375 -1.515625q-0.390625 -0.59375 -1.390625 -0.59375q-0.984375 0 -1.40625 0.59375q-0.421875 0.578125 -0.5 1.515625q-0.078125 0.921875 -0.078125 1.984375l0 5.78125q0 1.03125 0.078125 1.984375q0.078125 0.9375 0.5 1.515625q0.421875 0.578125 1.40625 0.578125zm9.600021 2.265625l0 -15.96875l-2.203125 0l0 -2.53125l2.203125 0l0 -0.953125q0 -1.734375 0.265625 -2.953125q0.28125 -1.234375 1.140625 -1.90625q0.875 -0.671875 2.59375 -0.671875q0.640625 0 1.140625 0.046875q0.5 0.046875 1.109375 0.171875l0 2.5q-0.296875 -0.078125 -0.65625 -0.125q-0.34375 -0.046875 -0.625 -0.046875q-1.0 0 -1.28125 0.65625q-0.265625 0.65625 -0.265625 1.75l0 1.53125l2.828125 0l0 2.53125l-2.828125 0l0 15.96875l-3.421875 0zm15.746429 0l0 -25.921875l3.421875 0l0 25.921875l-3.421875 0zm10.343628 0.25q-1.09375 0 -1.9375 -0.609375q-0.828125 -0.625 -1.3125 -1.59375q-0.46875 -0.984375 -0.46875 -2.078125q0 -1.734375 0.578125 -2.90625q0.578125 -1.1875 1.578125 -2.0q1.015625 -0.828125 2.34375 -1.421875q1.328125 -0.609375 2.796875 -1.1875l0 -1.3125q0 -1.125 -0.125 -1.859375q-0.125 -0.734375 -0.53125 -1.09375q-0.40625 -0.375 -1.203125 -0.375q-0.703125 0 -1.140625 0.328125q-0.421875 0.3125 -0.625 0.90625q-0.1875 0.578125 -0.1875 1.390625l0 0.921875l-3.390625 -0.125q0.0625 -3.078125 1.40625 -4.53125q1.34375 -1.453125 4.171875 -1.453125q2.75 0 3.890625 1.5q1.15625 1.5 1.15625 4.359375l0 8.4375q0 0.875 0.046875 1.671875q0.046875 0.796875 0.125 1.484375q0.078125 0.6875 0.15625 1.296875l-3.140625 0q-0.09375 -0.515625 -0.25 -1.296875q-0.140625 -0.78125 -0.203125 -1.421875q-0.3125 1.09375 -1.234375 2.03125q-0.90625 0.9375 -2.5 0.9375zm1.34375 -2.9375q0.5 0 0.953125 -0.28125q0.453125 -0.296875 0.796875 -0.65625q0.359375 -0.375 0.484375 -0.59375l0 -5.25q-0.796875 0.4375 -1.5 0.890625q-0.703125 0.453125 -1.234375 0.953125q-0.53125 0.484375 -0.84375 1.109375q-0.296875 0.625 -0.296875 1.421875q0 1.125 0.40625 1.765625q0.421875 0.640625 1.234375 0.640625zm8.960175 2.6875l0 -18.5l3.421875 0l0 1.828125q0.921875 -0.859375 2.03125 -1.46875q1.125 -0.609375 2.46875 -0.609375q1.125 0 1.71875 0.578125q0.59375 0.578125 0.828125 1.4375q0.25 0.859375 0.25 1.765625l0 14.96875l-3.421875 0l0 -13.984375q0 -0.984375 -0.296875 -1.53125q-0.28125 -0.546875 -1.1875 -0.546875q-0.578125 0 -1.203125 0.34375q-0.609375 0.328125 -1.1875 0.8125l0 14.90625l-3.421875 0zm18.329285 0.25q-2.328125 0 -3.484375 -1.703125q-1.15625 -1.71875 -1.15625 -5.8125l0 -3.578125q0 -2.109375 0.34375 -3.921875q0.359375 -1.8125 1.328125 -2.890625q0.984375 -1.09375 2.875 -1.09375q0.921875 0 1.6875 0.421875q0.78125 0.40625 1.375 1.015625l0 -8.609375l3.4375 0l0 25.921875l-3.4375 0l0 -1.1875q-0.59375 0.640625 -1.328125 1.046875q-0.71875 0.390625 -1.640625 0.390625zm0.859375 -2.6875q0.484375 0 1.03125 -0.171875q0.546875 -0.171875 1.078125 -0.53125l0 -12.125q-0.4375 -0.3125 -0.984375 -0.546875q-0.546875 -0.25 -1.1875 -0.25q-1.1875 0 -1.609375 1.140625q-0.40625 1.125 -0.40625 2.734375l0 5.21875q0 1.265625 0.140625 2.3125q0.15625 1.046875 0.59375 1.640625q0.453125 0.578125 1.34375 0.578125zm7.9096375 -15.546875l0 -7.9375l3.109375 0l-1.25 7.9375l-1.859375 0zm4.453125 0l0 -7.9375l3.09375 0l-1.25 7.9375l-1.84375 0z" fill-rule="nonzero"/></g></svg>