<?xml version="1.0" encoding="utf-8"?>
<!-- Generator: Adobe Illustrator 21.1.0, SVG Export Plug-In . SVG Version: 6.00 Build 0)  -->
<svg version="1.1" id="Logo" xmlns="http://www.w3.org/2000/svg" xmlns:xlink="http://www.w3.org/1999/xlink" x="0px" y="0px"
	 viewBox="0 0 512 512" style="enable-background:new 0 0 512 512;" xml:space="preserve">
<style type="text/css">
	.st0{fill:#F0F0F0;}
</style>
<path class="st0" d="M161.1,463.9c193,0,298.7-160.1,298.7-298.7c0-4.5,0-9-0.2-13.5c20.5-14.9,38.3-33.4,52.4-54.3
	c-19.2,8.4-39.5,14.1-60.4,16.6c21.9-13.1,38.3-33.8,46.1-58.1c-20.7,12.3-43.2,20.9-66.7,25.4c-39.7-42.4-106.2-44.4-148.6-4.5
	c-27.2,25.6-38.9,63.9-30.3,100.3c-84.3-4.3-163.2-44-216.4-109.7C7.8,115.3,21.9,176.7,68.2,207.6c-16.8-0.4-33-4.9-47.7-13.1
	c0,0.4,0,0.8,0,1.2c0,50,35.2,92.9,84.3,103c-15.6,4.3-31.7,4.9-47.5,1.8c13.7,42.8,53.2,72.1,98.1,72.9
	c-37.3,29.3-83.1,45-130.4,45c-8.4,0-16.8-0.6-25-1.4C48.3,447.5,104,463.9,161.1,463.9"/>
</svg>
